<svg xmlns="http://www.w3.org/2000/svg" width="192" height="214"><g fill="none" fill-rule="evenodd"><path d="M109 116.099v-.685c-.023-1.257-.164-1.395-1.47-1.414h-2.093a5.424 5.424 0 0 0-.738.045c-.343.03-.615.282-.645.6-.04.379-.057.76-.053 1.14v10.63c.015 1.485.102 1.573 1.654 1.585h1.726c1.5-.014 1.614-.107 1.619-1.5v-10.4zm-14.043-2.407c-.018-.36-.288-.645-.622-.657a3.98 3.98 0 0 0-.631-.034H91.38c-1.263 0-1.375.117-1.38 1.512v10.94c-.002.303.017.606.058.906.032.316.265.564.558.596.21.03.42.045.631.045h2.428c1.194 0 1.311-.138 1.324-1.457V114.59c.005-.3-.01-.6-.042-.898zm6.994.954c-.029-.317-.259-.568-.552-.605a2.778 2.778 0 0 0-.525-.04h-2.75a2.764 2.764 0 0 0-.525.04c-.292.04-.52.29-.553.605a4.662 4.662 0 0 0-.046.681v11.403c0 .228.018.455.057.68a.6.6 0 0 0 .49.528c.244.042.49.063.736.062h2.326c1.28 0 1.384-.12 1.39-1.5v-10.84a9.282 9.282 0 0 0-.048-1.014zm11.046.02a9.503 9.503 0 0 0-.049-1.024.64.64 0 0 0-.575-.596 6.318 6.318 0 0 0-.877-.045c-1.376 0-1.486.098-1.49 1.565-.012 3.608 0 7.216 0 10.824-.004.303.014.606.052.907a.66.66 0 0 0 .638.662c.473.044.95.052 1.424.027.627-.034.82-.258.865-.93.02-.302.014-.607.014-.909v-5.001c-.002-1.836-.002-3.658-.002-5.48zm3.173-.657c-.771.03-1.043.238-1.13.815-.03.227-.043.455-.04.683v10.944a5.13 5.13 0 0 0 .076.908c.04.317.356.567.757.6.285.034.574.046.862.039.935-.022 1.206-.224 1.285-.934.03-.303.018-.608.018-.913v-10.83c.033-1.21-.423-1.365-1.828-1.312zm-27.204.752c-.057-.476-.28-.715-.778-.736a56.101 56.101 0 0 0-3.35 0c-.519.012-.745.257-.804.715a7.598 7.598 0 0 0-.031.91v10.717c0 .227 0 .455.015.684.055.67.273.895.98.926.78.034 1.573.022 2.362.017 1.518 0 1.632-.11 1.64-1.489v-10.834c-.005-.3 0-.605-.034-.91zm-15.964 14.974c.026.57.1 1.142.168 1.71.07.605.132 1.215.24 1.813.09.494.318.671.857.718.383.032.767.023 1.152.023h41.222c.308 0 .618 0 .924-.014.734-.044.945-.206 1.049-.895.14-.923.24-1.85.346-2.775.031-.213.044-.428.039-.643a.583.583 0 0 0-.176-.445.675.675 0 0 0-.466-.191c-.42-.038-.845-.036-1.268-.036H74.945c-.42 0-.846 0-1.267.031-.486.04-.698.251-.676.704zm6.004-3.165c0 1.284.144 1.413 1.404 1.43 1.458.011 1.58-.089 1.584-1.593.014-3.645 0-7.29 0-10.935a5.368 5.368 0 0 0-.05-.793.665.665 0 0 0-.657-.642 8.409 8.409 0 0 0-1.095-.031c-.991.024-1.147.188-1.189 1.19v5.797c0 1.864-.009 3.719.003 5.578zm-1.023-11.475c0-.872-.301-1.079-1.377-1.093a5.507 5.507 0 0 0-.716.028c-.455.018-.816.313-.823.675-.05.415-.071.833-.066 1.25v9.918c0 .38 0 .76.033 1.14.069.74.333.952 1.23.98.19.01.382.01.573 0 .818-.047 1.076-.252 1.143-.928.03-.303.018-.608.018-.91v-5.13c-.006-1.97.012-3.955-.015-5.93z"/><path d="M80.203 136.865c.077-.374.133-.75.167-1.13a.609.609 0 0 0-.576-.715 6.93 6.93 0 0 0-.916-.043h-5.853c-.766-.055-1.012-.272-1.167-1.008-.031-.15-.053-.3-.067-.45-.195-1.749-.388-3.497-.579-5.245a4.12 4.12 0 0 1-.038-.57c.019-.552.268-.857.8-.953.302-.055.613-.038.914-.08.479-.065.672-.263.718-.742.031-.346.045-.692.04-1.04v-10.408c0-.267-.012-.534 0-.801 0-.577-.239-.94-.837-1.03-.597-.09-.894-.531-.901-1.134 0-.649-.017-1.297-.012-1.945.012-1.588.165-1.74 1.803-1.747h6.542a8.28 8.28 0 0 0 1.03-.043.688.688 0 0 0 .67-.665c.041-.456.058-.914.05-1.37v-20.25c0-1.22.023-2.44.068-3.658a27.806 27.806 0 0 1 1.14-7.098 17.999 17.999 0 0 1 2.882-5.814 12.693 12.693 0 0 1 5.26-4.128c.245-.096.485-.206.718-.329a.499.499 0 0 0 .224-.686c-.136-.315-.318-.608-.45-.925a4.088 4.088 0 0 1-.007-3.175 4.107 4.107 0 0 1 2.27-2.229 4.074 4.074 0 0 1 4.452.91c1.234 1.28 1.495 2.787.907 4.446-.115.32-.311.61-.45.925a.535.535 0 0 0 .285.76c.135.071.275.134.418.189 2.829 1.103 4.868 3.098 6.41 5.651a19.607 19.607 0 0 1 2.06 4.832 28.992 28.992 0 0 1 1.073 7.91v23.109c0 1.547.094 1.633 1.617 1.638h6.542a9.27 9.27 0 0 1 1.03.03c.6.065.914.341.943.954.045.953.03 1.907 0 2.86a.954.954 0 0 1-.782.97c-.074.017-.148.036-.225.05-.5.09-.693.422-.703.897v11.66c0 1.265.057 1.308 1.337 1.449.935.103 1.195.39 1.112 1.35-.043.569-.12 1.136-.187 1.706-.153 1.363-.292 2.729-.478 4.09-.112.827-.38 1.051-1.196 1.108-.303.022-.612 0-.918 0h-4.933a7.784 7.784 0 0 0-1.028.065.541.541 0 0 0-.464.572c.032.417.087.832.165 1.244a324476.884 324476.884 0 0 1 8.594 47.516c.061.376.146.747.253 1.113a.584.584 0 0 0 .701.45c.377-.062.75-.148 1.117-.257 32.292-9.309 57.194-35.013 65.401-67.507 7.625-30.245-.263-62.292-21.066-85.584C145.279 9.267 114.258-2.251 83.237 1.799a92.996 92.996 0 0 0-29.916 9.14 94.275 94.275 0 0 0-28.933 22.353A92.978 92.978 0 0 0 5.84 65.54c-4.587 13.8-5.953 27.935-3.929 42.34 3.135 22.193 12.91 40.973 29.323 56.34a92.01 92.01 0 0 0 25.514 16.87 94.526 94.526 0 0 0 12.594 4.595c.402.123.81.22 1.224.294a.64.64 0 0 0 .792-.477 8.37 8.37 0 0 0 .22-1.006c2.055-11.331 4.106-22.664 6.155-33.999l2.47-13.631zm37.664-31.36a3.92 3.92 0 0 1-2.006-1.192.561.561 0 0 1-.058-.64.598.598 0 0 1 .54-.35c.567-.023 1.947.792 2.17 1.285.03.09.05.184.06.279a.612.612 0 0 1-.706.617zm2.224-8.925c-.223.045-.45.068-.677.07h-1.483c-.495 0-.99.011-1.482 0a2.444 2.444 0 0 1-.67-.11.622.622 0 0 1 0-1.192c.18-.056.368-.087.557-.09h3.307c.153.002.305.022.452.059.311.052.54.318.546.632a.685.685 0 0 1-.55.631zm5.399-2.989a30.47 30.47 0 0 0-.414-3.635 3.167 3.167 0 0 1-.079-1.132.644.644 0 0 1 .522-.538.656.656 0 0 1 .674.336c.164.307.265.644.299.991a29.94 29.94 0 0 1 .447 3.974 8.2 8.2 0 0 0 .072.91c.024.4.355.713.758.715.304.027.61.038.916.034h10.327a7.8 7.8 0 0 0 1.028-.055.637.637 0 0 0 .586-.61c.038-.456.048-.914.029-1.371a43.634 43.634 0 0 0-.976-7.59c-.088-.41-.189-.817-.275-1.227a3.776 3.776 0 0 1-.09-.562c-.03-.43.157-.727.478-.808a.689.689 0 0 1 .818.462c.136.356.246.722.327 1.094a46.745 46.745 0 0 1 1.172 8.6c.021.458.038.915.095 1.368a.683.683 0 0 0 .675.66c.265.03.532.043.798.039h2.526c.305-.003.61.017.913.06.317.028.57.275.605.59a.716.716 0 0 1-.629.701c-.15.03-.302.047-.454.05h-2.867c-1.574 0-1.61.048-1.727 1.564-.076.986-.18 1.973-.28 2.958a5.422 5.422 0 0 1-.126.789c-.137.54-.479.817-.854.74-.375-.075-.56-.395-.545-.89 0-.239.052-.453.076-.682.089-.87.185-1.743.266-2.622.033-.342.043-.686.03-1.03-.023-.543-.226-.755-.762-.81-.304-.029-.61-.024-.916-.024H128.38c-1.306 0-1.409.107-1.53 1.43a30.898 30.898 0 0 1-1.137 5.945 8.18 8.18 0 0 1-.332.972c-.24.522-.59.715-.968.577-.342-.134-.479-.46-.376-.968.07-.336.177-.662.275-.991.51-1.72.86-3.482 1.05-5.266.04-.34.054-.682.043-1.025a.635.635 0 0 0-.564-.626c-.225-.04-.457-.031-.684-.062a2.551 2.551 0 0 1-.553-.13.632.632 0 0 1-.401-.63.608.608 0 0 1 .401-.516c.142-.054.291-.089.443-.104.239-.027.459-.017.686-.048.528-.072.717-.281.765-.825.013-.26.01-.521-.007-.782zm39.902-.81a68.244 68.244 0 0 0-.598-6.948c-.182-1.297-.337-1.406-1.638-1.192-1.394.238-2.786.494-4.18.737-.3.059-.603.095-.908.11-.479.014-.818-.24-.854-.585-.036-.345.184-.612.588-.746a5.65 5.65 0 0 1 .78-.18c3.316-.586 6.628-1.17 9.938-1.753.333-.089.681-.11 1.023-.064.274.04.496.243.557.512a.624.624 0 0 1-.327.672 4.264 4.264 0 0 1-.866.28c-.636.13-1.284.214-1.913.355-.717.16-.892.395-.818 1.127.141 1.401.333 2.8.455 4.205a62.92 62.92 0 0 1 .215 7.536c-.015.42 0 .84.017 1.256.01.32.243.589.559.644.22.055.452.067.68.102.264.033.527.082.786.146.309.075.526.35.526.667a.702.702 0 0 1-.684.641c-.19.024-.382.024-.571 0-1.378-.16-1.493.217-1.586 1.43a56.537 56.537 0 0 1-.633 4.99 4.65 4.65 0 0 1-.28 1.005.596.596 0 0 1-.658.355.65.65 0 0 1-.533-.526 3.174 3.174 0 0 1 .05-1.135c.196-1.514.4-3.022.586-4.529.049-.377.068-.758.057-1.14a.67.67 0 0 0-.617-.714 7.762 7.762 0 0 0-.908-.117 366.89 366.89 0 0 0-2.743-.238 2.292 2.292 0 0 1-.89-.191.65.65 0 0 1-.39-.644.601.601 0 0 1 .498-.555c.3-.044.606-.056.909-.033.992.069 1.982.155 2.972.238 1.117.107 1.394-.112 1.406-1.344a3.488 3.488 0 0 0-.033-.57.654.654 0 0 0-.591-.608 8.209 8.209 0 0 0-1.028-.055h-11.012c-.344 0-.688 0-1.03-.03-.567-.058-.897-.327-.907-.699-.01-.372.323-.677.868-.734.266-.029.534-.024.801-.026h11.356c1.512-.007 1.626-.129 1.569-1.652zm-10.488 17.026a1.2 1.2 0 0 1-.56 0 68.689 68.689 0 0 1-2.295-.687 1.11 1.11 0 0 1-.392-.226.633.633 0 0 1-.24-.715.66.66 0 0 1 .599-.45 3.61 3.61 0 0 1 .394 0c.717.238 1.588.502 2.453.795a.93.93 0 0 1 .354.274.616.616 0 0 1-.313 1.009zm-3.89-53.885a2.553 2.553 0 0 1-.524.596 1201.242 1201.242 0 0 1-5.78 4.514 1.437 1.437 0 0 1-1.045.389c-.325 0-.628-.522-.399-.916.135-.228.311-.43.519-.596a857.59 857.59 0 0 1 5.782-4.514c.228-.208.514-.34.82-.381a.644.644 0 0 1 .6.262.552.552 0 0 1 .027.646zM144.64 76.11a8.388 8.388 0 0 1 1.083-.364.67.67 0 0 1 .837.417.655.655 0 0 1-.303.789 8.245 8.245 0 0 1-1.136.539 5022.14 5022.14 0 0 1-12.258 4.826c-1.102.434-2.202.873-3.307 1.3-.282.109-.576.18-.765.238-.402-.012-.631-.124-.763-.391a.645.645 0 0 1 .24-.808 6.542 6.542 0 0 1 1.023-.499c2.732-1.085 5.468-2.164 8.207-3.236 2.386-.94 4.767-1.876 7.142-2.81zm-13.022 48.303a.786.786 0 0 1-.342.105.632.632 0 0 1-.632-.732 1.89 1.89 0 0 1 .28-.61c.397-.553.813-1.092 1.234-1.628a2.04 2.04 0 0 1 .411-.386.619.619 0 0 1 .744-.026c.25.129.364.423.268.686a7.072 7.072 0 0 1-1.963 2.591zm1.468 12.263a.696.696 0 0 1-.749.525.69.69 0 0 1 .05-1.366.702.702 0 0 1 .699.844v-.003zm-8.991-51.008a4.261 4.261 0 0 1-.717.368c-2.027.805-4.054 1.606-6.081 2.402a3.804 3.804 0 0 1-.77.212.687.687 0 0 1-.754-.4.635.635 0 0 1 .278-.794c.258-.163.53-.3.815-.41 1.99-.794 3.982-1.58 5.978-2.355.283-.117.58-.197.883-.238a.637.637 0 0 1 .676.624.683.683 0 0 1-.303.599l-.005-.008zm-1.47 61.15a1.282 1.282 0 0 1-1.302-1.25 1.282 1.282 0 0 1 1.242-1.309 1.282 1.282 0 0 1 .977 2.162c-.239.252-.57.395-.918.397zm1.912 23.836a.646.646 0 0 1-.772-.477.713.713 0 0 1 .674-.882.69.69 0 0 1 .672.648.637.637 0 0 1-.567.71h-.007zm.928-60.573c-.826-.467-1.644-.944-2.456-1.43a2.454 2.454 0 0 1-.514-.441.625.625 0 0 1-.04-.742.74.74 0 0 1 .683-.28c.19.045.373.112.548.197.86.486 1.713.984 2.556 1.492.186.125.348.281.478.462a.632.632 0 0 1-.026.744.608.608 0 0 1-.605.238 2.216 2.216 0 0 1-.617-.23l-.007-.01zm9.228 48.357c-.218.152-.452.28-.699.38-.276.129-.56.244-.848.345a1.58 1.58 0 0 0-1.086 1.215 60.67 60.67 0 0 1-.574 2.21 4.36 4.36 0 0 1-.33.844.651.651 0 0 1-.612.319.617.617 0 0 1-.526-.329 3.714 3.714 0 0 1-.292-.739 16.144 16.144 0 0 1-.478-1.878 2.079 2.079 0 0 0-1.645-1.821 4.97 4.97 0 0 1-.74-.305 1.749 1.749 0 0 1-.384-.239.676.676 0 0 1 0-1.086 4.48 4.48 0 0 1 .91-.463c1.515-.624 1.515-.62 1.93-2.245.123-.477.24-.954.369-1.43.057-.221.13-.438.217-.649a.717.717 0 0 1 .692-.51.717.717 0 0 1 .676.53c.149.429.263.872.383 1.31.129.477.263.954.363 1.43a1.63 1.63 0 0 0 1.131 1.314c.326.112.641.238.957.386.21.09.409.202.593.336a.66.66 0 0 1 0 1.085l-.007-.01zm11.226-37.074a.668.668 0 0 1-.803.27 6.398 6.398 0 0 1-1.028-.5 1481.868 1481.868 0 0 1-5.919-3.505c-.239-.135-.459-.276-.698-.393-.12-.05-.243-.09-.37-.12a.644.644 0 0 0-.55.275c-.21.317-.407.646-.605.97-.152.31-.362.586-.62.815a.647.647 0 0 1-.75.07.593.593 0 0 1-.307-.68c.09-.287.207-.564.352-.827.184-.377.404-.736.579-1.115a.638.638 0 0 0-.208-.82 8.61 8.61 0 0 0-.76-.508c-.59-.358-1.196-.698-1.773-1.058a3.7 3.7 0 0 1-.638-.477.69.69 0 0 1-.127-.84.65.65 0 0 1 .799-.266c.249.093.489.208.717.343.564.322 1.12.66 1.674.99.227.14.462.267.703.38a.614.614 0 0 0 .88-.278c.24-.434.435-.892.648-1.337.1-.29.275-.55.507-.751a.63.63 0 0 1 .65-.074.637.637 0 0 1 .38.531 1.5 1.5 0 0 1-.167.775c-.222.527-.478 1.044-.677 1.578-.198.534-.117.758.328 1.085.24.178.517.328.777.476 1.973 1.173 3.946 2.339 5.916 3.516.328.193.64.411.935.653a.637.637 0 0 1 .163.832l-.008-.01zm1.196 37.942a.673.673 0 0 1-.672-.641.67.67 0 0 1 1.344 0 .685.685 0 0 1-.665.65l-.007-.01zm12.31-30.793c.239.18.512.333.772.49l2.069 1.233c.276.134.513.337.686.591a.635.635 0 0 1-.557.973 1.613 1.613 0 0 1-.854-.3c-.693-.404-1.384-.816-2.075-1.221-.24-.136-.457-.281-.696-.396-.498-.238-.766-.174-1.079.28-.196.28-.358.585-.533.881a71.402 71.402 0 0 1-7.138 10.075c-.394.477-.8.923-1.217 1.37a2.774 2.774 0 0 1-.519.442.623.623 0 0 1-.75-.036.657.657 0 0 1-.216-.715 2.57 2.57 0 0 1 .646-.932 69.105 69.105 0 0 0 4.622-5.828 68.354 68.354 0 0 0 3.235-4.993c.098-.165.194-.33.285-.496.61-1.101.567-1.275-.464-1.924-.194-.121-.4-.238-.583-.364a2.553 2.553 0 0 1-.419-.384.637.637 0 0 1-.029-.749.649.649 0 0 1 .596-.276 1.9 1.9 0 0 1 .849.317c.301.167.595.346.91.477a.588.588 0 0 0 .8-.239c.523-.843.96-1.736 1.303-2.667a.652.652 0 0 0-.29-.796 10.09 10.09 0 0 0-.887-.527c-1.985-1.07-3.972-2.13-5.956-3.203a6.05 6.05 0 0 1-.868-.548.666.666 0 0 1-.185-.87.67.67 0 0 1 .845-.282c.356.133.702.292 1.035.477 1.856.99 3.704 1.988 5.557 2.982.168.09.335.186.505.27.97.476 1.183.404 1.628-.63.105-.238.196-.498.304-.741.072-.176.158-.346.258-.508a.702.702 0 0 1 .882-.331c.273.121.416.41.366.91-.105.293-.25.715-.416 1.151-.555 1.43-.538 1.483.818 2.215.538.29 1.08.572 1.614.867.236.127.459.276.667.444a.69.69 0 0 1 .194.827.668.668 0 0 1-.78.329 3.972 3.972 0 0 1-.741-.296c-.512-.26-1.01-.54-1.516-.81-.24-.127-.478-.258-.717-.36-.507-.208-.794-.129-1.052.36-.426.808-.83 1.63-1.196 2.464-.208.444-.112.71.287.997zm8.24 5.806a.677.677 0 0 1-.648.32 3.225 3.225 0 0 1-.562-.208c-.717-.412-1.435-.846-2.152-1.273a1.888 1.888 0 0 1-.27-.207.73.73 0 0 1-.215-.918c.16-.283.509-.388.903-.255.145.048.283.111.414.188.658.383 1.312.771 1.96 1.164.24.12.438.308.572.538a.658.658 0 0 1-.002.651zm6.217-19.285a.658.658 0 0 1-.624.424 3.117 3.117 0 0 1-1.12-.226l-9.774-2.954c-.842-.255-1.686-.505-2.525-.765a5.6 5.6 0 0 1-.857-.324.688.688 0 0 1-.406-.846c.105-.262.402-.43.873-.42.182.043.478.1.775.186 4.175 1.259 8.348 2.521 12.52 3.788.292.087.574.204.842.35.287.147.42.485.308.787h-.012zm7.867-19.784c.343 0 .685.027 1.024.084a.604.604 0 0 1 .506.55.637.637 0 0 1-.492.677c-.26.063-.525.094-.792.093H170.77a2.074 2.074 0 0 1-.9-.129.653.653 0 0 1-.401-.634.597.597 0 0 1 .49-.56c.338-.055.68-.083 1.024-.083h5.382c1.796 0 3.601-.01 5.397-.002l-.012.004zm-5.366-25.182a.607.607 0 0 1 .593.45.59.59 0 0 1-.239.716 2.69 2.69 0 0 1-.717.348 1212.2 1212.2 0 0 1-7.499 2.426c-.251.081-.514.124-.691.165-.378-.022-.6-.139-.717-.415a.66.66 0 0 1 .267-.83 2.03 2.03 0 0 1 .507-.257 1872.86 1872.86 0 0 1 7.824-2.529c.219-.06.446-.085.672-.074zm-14.77-1.77c.38.781.598.881 1.449.555 1.533-.584 3.056-1.192 4.586-1.798a2.78 2.78 0 0 1 1.098-.29.645.645 0 1 1 .34 1.21c-.298.17-.606.319-.924.446-1.456.582-2.915 1.149-4.368 1.726-1.158.46-1.21.586-.811 1.79.108.326.24.648.31.98.052.221.07.45.051.676a.573.573 0 0 1-.416.499.633.633 0 0 1-.638-.141 1.536 1.536 0 0 1-.397-.684c-.158-.43-.29-.87-.479-1.287-.222-.517-.478-.632-1-.477-.255.074-.504.179-.752.277l-6.504 2.557c-.318.124-.637.26-.957.355-.562.165-.944.046-1.098-.31-.153-.355.036-.731.539-.989.272-.138.561-.238.844-.355l6.606-2.61a7.92 7.92 0 0 0 .842-.36c.414-.22.521-.49.395-.953-.072-.255-.19-.498-.268-.753-.06-.18-.1-.367-.117-.556a.645.645 0 0 1 1.114-.491c.104.111.194.234.268.367.107.184.186.398.287.603v.012zM153.352 47.6c.175-.201.37-.384.581-.546 1.803-1.413 3.609-2.824 5.416-4.233.254-.234.554-.412.88-.525a.652.652 0 0 1 .832.553.766.766 0 0 1-.239.62c-.22.21-.45.413-.688.6a1491.05 1491.05 0 0 1-5.058 3.95 6.5 6.5 0 0 1-.956.618.654.654 0 0 1-.825-.191.68.68 0 0 1 .057-.858v.012zm-7.413-1.723a.635.635 0 0 1 .639-.141c.351.093.574.367.813.61 1.196 1.228 2.32 2.53 3.41 3.854a71.493 71.493 0 0 1 7.303 10.776c.148.267.294.537.416.815.052.143.092.29.12.44-.032.562-.536.86-.924.635a1.311 1.311 0 0 1-.418-.374c-.194-.281-.357-.586-.524-.884a70.13 70.13 0 0 0-10.043-13.846c-.24-.253-.478-.496-.693-.76a1.54 1.54 0 0 1-.261-.501.578.578 0 0 1 .17-.636l-.008.012zm-6.052-6.04a.94.94 0 0 1 .672.2 34.225 34.225 0 0 1 3.274 2.834c.104.11.186.241.239.384a.633.633 0 0 1-.128.683.637.637 0 0 1-.68.156 2.885 2.885 0 0 1-.672-.42c-.9-.76-1.789-1.535-2.68-2.307a1.595 1.595 0 0 1-.548-.715.632.632 0 0 1 .53-.827l-.007.012zm-8.809-12.435a.736.736 0 0 1 .842.634.713.713 0 0 1-1.202.613.735.735 0 0 1-.235-.518.77.77 0 0 1 .595-.73zm-2.224 37.388c-.81-.863-1.673-1.688-2.494-2.529a2.041 2.041 0 0 1-.562-.715.651.651 0 0 1 .086-.648.676.676 0 0 1 .718-.212c.322.125.608.327.834.588.914.923 1.837 1.838 2.734 2.775.937.98 1.011 1.003 2.063.183a7238.43 7238.43 0 0 0 11.566-9.029c.302-.238.598-.476.919-.684.193-.118.407-.2.63-.238a.625.625 0 0 1 .668.627.819.819 0 0 1-.282.605 10.84 10.84 0 0 1-.79.663l-11.2 8.755c-.3.238-.61.46-.896.715-.581.507-.615.753-.213 1.368.148.224.315.431.478.646a45.193 45.193 0 0 1 3.276 5.105c.188.331.348.677.478 1.035a.662.662 0 0 1-.28.854.666.666 0 0 1-.877-.21 5.848 5.848 0 0 1-.478-.773 47.95 47.95 0 0 0-3.001-4.743c-.225-.31-.445-.622-.687-.915-.554-.677-.8-.716-1.528-.158-1.195.904-2.35 1.83-3.524 2.748-1.748 1.366-3.498 2.725-5.237 4.098-1.045.824-1.047.936-.272 2.033.351.498.7 1.001 1.03 1.513a3.2 3.2 0 0 1 .344.716.611.611 0 0 1-.224.715.657.657 0 0 1-.844-.055 4.055 4.055 0 0 1-.51-.613c-.313-.434-.605-.882-.916-1.316a5.042 5.042 0 0 0-.502-.624.669.669 0 0 0-.93-.129 8.249 8.249 0 0 0-.741.537 981.59 981.59 0 0 1-2.894 2.26c-.236.19-.484.37-.74.533-.431.262-.804.238-1.046-.038-.241-.277-.186-.715.218-1.104.197-.18.403-.352.617-.512l2.704-2.114c.15-.12.306-.239.452-.353.823-.68.842-.851.17-1.654a2.095 2.095 0 0 1-.502-.756.628.628 0 0 1 .148-.634.64.64 0 0 1 .631-.171c.3.076.566.25.756.495.956 1.1 1.241.818 2.176.086 2.766-2.169 5.535-4.335 8.307-6.497 1.21-.951 1.23-1.097.167-2.227v-.002zm-15.236-10.54a.804.804 0 0 1 .746-.78.764.764 0 0 1 .033 1.523.793.793 0 0 1-.78-.74v-.003zm-1.435-18.215c.227-.14.467-.258.717-.35 1.741-.696 1.612-.58 2.296-2.284.1-.329.267-.633.492-.894a.68.68 0 0 1 1.014.029c.122.145.223.305.302.477.149.31.28.628.392.953.2.712.754 1.272 1.466 1.48.432.151.853.333 1.26.544.245.114.41.349.435.617a.652.652 0 0 1-.215.527c-.177.142-.37.264-.574.364-.275.135-.56.25-.851.341a2.165 2.165 0 0 0-1.543 1.55c-.069.218-.153.43-.253.636-.204.448-.35.999-.971.984-.557-.014-.703-.514-.887-.934-.137-.315-.273-.63-.39-.953a1.838 1.838 0 0 0-1.172-1.173c-.287-.1-.569-.222-.85-.341a4.473 4.473 0 0 1-.623-.29c-.562-.34-.583-.923-.04-1.28l-.005-.003zm-2.317-22.668c.347-.034.693.08.952.313.26.233.407.565.408.913.022.346-.1.686-.339.939-.238.253-.57.397-.918.398a1.284 1.284 0 0 1-.932-.37 1.275 1.275 0 0 1-.379-.927 1.239 1.239 0 0 1 1.213-1.263l-.005-.003zm-19.735 9.03a17.67 17.67 0 0 0 .995-1.67c.337-.555.956-.536 1.289.032.278.542.59 1.067.932 1.57a.737.737 0 0 1 0 .954c-.355.494-.665 1.02-.925 1.57a.75.75 0 0 1-.634.434.718.718 0 0 1-.667-.364c-.354-.587-.696-1.192-1.028-1.776a.678.678 0 0 1 .038-.75zm.718 21.451a1.22 1.22 0 0 1 1.265 1.192 1.23 1.23 0 0 1-.577 1.117 1.24 1.24 0 0 1-1.26.03 1.23 1.23 0 0 1-.629-1.09 1.19 1.19 0 0 1 1.215-1.237l-.014-.012zm-16.4-.758a.619.619 0 0 1 .431.803.648.648 0 0 1-.767.51.683.683 0 0 1-.374-1.168.686.686 0 0 1 .71-.145zm-10.664-22.6c0-.024.053-.058.086-.063.148-.021.299-.033.332-.038 1.866.153 3.693.617 5.405 1.37.25.096.474.248.655.444.29.32.354.785.16 1.17a1.048 1.048 0 0 1-1.038.57 1.48 1.48 0 0 1-.837-.336 19.696 19.696 0 0 0-4.466-2.71.78.78 0 0 1-.268-.205c-.05-.043-.036-.136-.029-.203zM60.71 62.917c.478.383.767.386 1.215 0 .287-.25.55-.53.82-.801a45.547 45.547 0 0 1 7.688-6.13 11 11 0 0 1 .791-.466 1.46 1.46 0 0 1 .43-.147.63.63 0 0 1 .69.298.637.637 0 0 1-.056.748 3.024 3.024 0 0 1-.899.698 44.105 44.105 0 0 0-5.942 4.477c-.717.636-1.392 1.306-2.08 1.966a3.853 3.853 0 0 0-.455.513.642.642 0 0 0 .022.843c.195.235.407.455.633.66l7.82 7.235c.478.45.968.827 1.71.76a.566.566 0 0 1 .666.624c-.019.749.407 1.192.897 1.633.875.796 1.739 1.607 2.604 2.415a1.9 1.9 0 0 1 .56.715.606.606 0 0 1-.1.64.635.635 0 0 1-.618.22 1.73 1.73 0 0 1-.87-.524l-2.523-2.334a7.434 7.434 0 0 0-.602-.526c-.383-.286-.689-.284-1.002.104-.577.716-1.103 1.46-1.648 2.196-.205.274-.385.57-.614.822a.685.685 0 0 1-.928.14.69.69 0 0 1-.21-.824c.097-.252.223-.492.375-.715.497-.715 1.009-1.43 1.518-2.145.156-.217.33-.422.479-.646a.656.656 0 0 0-.058-.844 7.925 7.925 0 0 0-.643-.653l-7.903-7.313a5.746 5.746 0 0 0-.521-.443c-.137-.08-.28-.15-.428-.205-.146.04-.285.102-.412.183a7.781 7.781 0 0 0-.698.754 45.585 45.585 0 0 0-5.643 8.862c-.16.345-.347.677-.56.994a.652.652 0 0 1-.817.216.671.671 0 0 1-.347-.774c.122-.4.275-.79.459-1.166a46.021 46.021 0 0 1 5.55-8.802c.263-.33.54-.646.784-.987.316-.446.3-.715-.081-1.118-.31-.336-.655-.641-.992-.953a3086.21 3086.21 0 0 0-5.804-5.366c-.225-.207-.445-.42-.653-.64a1.53 1.53 0 0 1-.255-.375.623.623 0 0 1 .105-.741c.19-.203.49-.26.741-.14.407.152.689.476.995.757l6.303 5.828c.167.157.328.324.507.477zm14.194 25.334a.675.675 0 0 1-.846.4 6.509 6.509 0 0 1-.976-.326c-1.456-.581-2.908-1.173-4.362-1.761-1.84-.749-3.684-1.495-5.523-2.253a6.464 6.464 0 0 1-1.019-.515.642.642 0 0 1-.239-.808c.13-.269.361-.379.76-.386.192.062.479.143.768.25l1.815.716a.997.997 0 0 0 1.062-.174c.841-.637 1.214-.506 1.336.495.037.465.356.858.804.992 1.525.615 3.048 1.235 4.57 1.859.32.129.64.255.956.39.177.072.348.158.511.256.362.215.498.539.383.853v.012zM35.021 95.61a6.493 6.493 0 0 1-1.138-.095.622.622 0 0 1-.493-.677.592.592 0 0 1 .505-.548c.416-.061.835-.09 1.255-.086h12.621c.906-.038 1.076-.188 1.15-1.063.07-.834.11-1.669.175-2.51a2.14 2.14 0 0 1 .25-.99.634.634 0 0 1 1.163.13c.043.146.065.298.065.45 0 .265-.039.532-.058.796l-.12 1.712c0 .152-.016.305 0 .457.02.79.209.977 1.043 1.016.38.019.765 0 1.146.026.228.01.453.06.664.145a.55.55 0 0 1 .342.548.577.577 0 0 1-.354.544c-.212.082-.437.13-.664.143-.38.026-.766 0-1.146.026-.865.048-1.042.238-1.05 1.137 0 .19.012.381.02.572.099 2.057.338 4.106.717 6.13.066.337.106.678.117 1.02a.65.65 0 0 1-1.265.238 5.376 5.376 0 0 1-.277-.983 42.297 42.297 0 0 1-.691-5.673c-.02-.343-.034-.687-.05-1.03-.065-1.285-.182-1.406-1.516-1.413h-6.196c-2.085-.02-4.151-.015-6.215-.022zm-8.608-.326a.946.946 0 0 1 .385.238.602.602 0 0 1 .014.825.681.681 0 0 1-.275.198c-.667.154-.956.57-.916 1.241a1.079 1.079 0 0 1-.06.334.671.671 0 0 1-.657.53.633.633 0 0 1-.593-.463 5.132 5.132 0 0 1-.141-.665c-.146-.675-.294-.806-1-.849-.306-.019-.612 0-.918 0h-3.321a1.635 1.635 0 0 1-.887-.178.607.607 0 0 1-.318-.568.598.598 0 0 1 .368-.534c.324-.118.67-.16 1.014-.126h3.55c1.39-.012 1.502-.122 1.517-1.502.025-2.36.185-4.717.478-7.06a6.27 6.27 0 0 1 .194-1.006.665.665 0 0 1 .693-.476.69.69 0 0 1 .598.6c.024.15.02.303.029.456h-.05c-.14 1.706-.292 3.413-.417 5.12-.062.874-.069 1.749-.105 2.621-.012.599.1 1.109.83 1.264h-.012zm.366-13.281a.675.675 0 0 1-.749.395.715.715 0 0 1-.511-.686l-.012-.189c.038-.226.08-.529.14-.827a67.622 67.622 0 0 1 1.85-7.074c.1-.326.238-.64.41-.934a.632.632 0 0 1 .797-.27.623.623 0 0 1 .392.64 3.109 3.109 0 0 1-.144.78 74.174 74.174 0 0 0-1.963 7.516c-.046.223-.116.44-.21.649zm.148-12.421c-.33-.1-.635-.269-.894-.496a.656.656 0 0 1-.163-.736.672.672 0 0 1 .67-.396c.37.048.729.16 1.061.329 2.835 1.147 5.667 2.296 8.499 3.446l10.94 4.443c.353.146.717.282 1.05.456.451.238.623.565.516.908-.108.343-.514.524-1.064.381a5.226 5.226 0 0 1-.648-.238l-19.967-8.097zm9.06 39.786a7.367 7.367 0 0 1-1.853.477.717.717 0 0 1-.763-.537.684.684 0 0 1 .402-.738 4.994 4.994 0 0 1 1.85-.477.672.672 0 0 1 .761.527.69.69 0 0 1-.409.748h.012zm15.007-.953a.641.641 0 1 1 1.162-.184c.12.194.22.399.3.613.342.93.676 1.861 1.001 2.796.077.213.132.435.163.66a.655.655 0 0 1-.433.715.632.632 0 0 1-.717-.224 1.63 1.63 0 0 1-.297-.477c-.389-1.072-.77-2.148-1.145-3.227a1.155 1.155 0 0 1-.045-.663l.011-.01zm1.744-28.386a1.873 1.873 0 0 1-.479-.298.64.64 0 0 1-.22-.715c.075-.238.333-.422.718-.436.223.043.443.103.657.179 1.767.708 3.531 1.423 5.294 2.145.245.103.472.243.675.414.213.173.277.47.155.716a.624.624 0 0 1-.643.38 1.846 1.846 0 0 1-.555-.118 386.515 386.515 0 0 1-5.614-2.257l.012-.01zm5.04-23.714a.645.645 0 0 1-.739.691 1.517 1.517 0 0 1-.772-.46c-1.24-1.182-2.478-2.366-3.713-3.551a2.861 2.861 0 0 1-.479-.627.606.606 0 0 1 .096-.739.626.626 0 0 1 .734-.143c.205.099.395.225.564.377a588.537 588.537 0 0 1 3.888 3.699c.231.191.378.465.41.763l.011-.01zm-16.82-10.85a.66.66 0 0 1 .847-.045c.285.19.529.438.794.653.514.415.81.422 1.3-.045.804-.763 1.572-1.562 2.368-2.331a68.3 68.3 0 0 1 8.331-6.815 3.286 3.286 0 0 1 1.093-.61.662.662 0 0 1 .849.539.714.714 0 0 1-.24.612c-.26.224-.533.435-.815.632a69.354 69.354 0 0 0-9.95 8.435 8.333 8.333 0 0 0-.693.76.661.661 0 0 0 .033.94c.354.398.754.758 1.129 1.137a1.6 1.6 0 0 1 .51.746.63.63 0 0 1-.175.626.62.62 0 0 1-.636.143 2.217 2.217 0 0 1-.842-.581c-.34-.308-.655-.641-1.011-.93a.642.642 0 0 0-.933.034 8.747 8.747 0 0 0-.703.753 69.952 69.952 0 0 0-3.537 4.502c-.197.28-.417.543-.657.787a.662.662 0 0 1-.847.071.67.67 0 0 1-.21-.822c.147-.309.321-.604.521-.882 1.126-1.59 2.339-3.113 3.587-4.6.074-.088.148-.174.225-.26.767-.846.956-1.192-.02-2.078a2.283 2.283 0 0 1-.37-.432.713.713 0 0 1 .053-.939zm-4.184-3.887a.599.599 0 0 1 .624-.182.905.905 0 0 1 .313.13c.675.498 1.285 1.08 1.815 1.73.18.21.213.508.084.753a.624.624 0 0 1-.478.338.958.958 0 0 1-.718-.238 69.98 69.98 0 0 1-1.566-1.504 1.06 1.06 0 0 1-.217-.396.614.614 0 0 1 .143-.631zM16.576 58.739a.65.65 0 0 1 .561-.436 2.11 2.11 0 0 1 1.033.265l3.769 1.685 18.835 8.435c.316.14.632.279.935.436.17.087.327.196.467.324.213.18.28.479.165.732a.641.641 0 0 1-.644.391c-.396 0-.731-.198-1.08-.353a3151.44 3151.44 0 0 1-7.535-3.37l-15.175-6.79a3.988 3.988 0 0 1-1.104-.594.65.65 0 0 1-.227-.718v-.007zM9.43 93.322a5.447 5.447 0 0 1-1.024-.09.625.625 0 0 1-.5-.673.61.61 0 0 1 .498-.557 3.51 3.51 0 0 1 .791-.084H19.63c.306-.026.613.017.9.124.25.11.41.361.399.634a.64.64 0 0 1-.397.52c-.324.118-.67.16-1.014.126H14.36c-1.645.002-3.288.007-4.93 0zm9.167 20.556c-.188-.024-.265-.031-.34-.046a.652.652 0 0 1-.523-.538.624.624 0 0 1 .263-.596 2.806 2.806 0 0 1 1.064-.403l8.109-2.09c.478-.124.956-.239 1.435-.37.258-.077.533-.077.791 0a.632.632 0 0 1 .24 1.032 1.87 1.87 0 0 1-.924.427c-1.222.32-2.444.632-3.665.953l-5.443 1.402c-.363.1-.739.17-1.007.229zm17.291 40.315c-.366-.014-.67-.145-.693-.548-.022-.363.14-.67.545-.696a.592.592 0 0 1 .698.543.604.604 0 0 1-.55.701zm1.624-20.167c.146.268.31.525.492.77.813 1.108 1.634 2.212 2.449 3.315.235.252.411.552.517.88a.645.645 0 0 1-.993.715c-.313-.221-.58-.5-.787-.823a280.638 280.638 0 0 1-2.568-3.51c-.736-1.025-.875-1.07-1.925-.38a2504.482 2504.482 0 0 0-8.307 5.516c-.253.17-.504.346-.767.498-.163.1-.338.181-.521.239a.618.618 0 0 1-.718-.239.635.635 0 0 1 0-.75c.232-.305.528-.555.868-.732l5.163-3.433 3.347-2.221a7.89 7.89 0 0 0 .656-.463c.373-.312.464-.598.239-1.005a99.202 99.202 0 0 0-1.837-3.168c-.256-.42-.528-.477-.982-.298-.283.112-.55.27-.84.362a.66.66 0 0 1-.795-.295.656.656 0 0 1 .154-.832c.256-.227.558-.403.825-.615.342-.274.424-.505.275-.903-.131-.356-.3-.699-.464-1.044a70.515 70.515 0 0 1-3.825-9.92 8.293 8.293 0 0 1-.278-1.224.65.65 0 0 1 .43-.715.665.665 0 0 1 .842.406c.152.349.28.708.383 1.075a69.856 69.856 0 0 0 3.792 9.805c.672 1.404.77 1.43 2.121.651 1.72-.996 3.432-2.002 5.153-2.996a7 7 0 0 1 1.03-.477.606.606 0 0 1 .718.239.67.67 0 0 1-.057.843 3.288 3.288 0 0 1-.928.665l-4.852 2.827c-.265.153-.533.303-.791.465-.832.525-.902.732-.45 1.566.383.715.797 1.39 1.196 2.081.13.232.276.456.435.67.292.374.576.434 1.004.202.302-.164.584-.362.87-.553l10.883-7.229c.38-.253.74-.55 1.196-.648a.642.642 0 0 1 .789.61.743.743 0 0 1-.287.598c-.299.239-.607.463-.925.672a9921.885 9921.885 0 0 1-10.88 7.234c-.287.191-.58.377-.844.594-.369.284-.419.562-.206.975zm17.2 20.131a2.85 2.85 0 0 1-.756-.252 2.232 2.232 0 0 0-2.19.021c-.17.085-.35.152-.536.198-.813.212-1.253-.238-1.014-1.073.084-.29.24-.565.326-.85.086-.287.15-.508.224-.77-.079-.263-.146-.518-.239-.768-.132-.312-.249-.63-.349-.953-.167-.716.265-1.135.957-.954.294.08.58.188.853.322a1.9 1.9 0 0 0 1.758 0c.273-.137.56-.245.856-.322.748-.198 1.195.258.98 1.02a4.95 4.95 0 0 1-.33.849c-.26.519-.26 1.13 0 1.65.15.305.268.624.356.953.154.631-.26 1.056-.896.93zm1.776 13.11a.745.745 0 0 1-.803-.69.748.748 0 1 1 1.49-.124.768.768 0 0 1-.687.823v-.01zm2.899-43.857a.597.597 0 0 1-.746.028 2.705 2.705 0 0 1-.572-.548c-.79-1.029-1.52-2.1-2.19-3.21a2.663 2.663 0 0 1-.309-.732c-.088-.396.273-.79.9-.732-.05 0 .128.066.26.212.15.175.289.359.416.55a421.763 421.763 0 0 1 2.061 3.025c.155.216.282.451.378.699a.607.607 0 0 1-.198.72v-.012zm2.702-12.252a7.598 7.598 0 0 1-.847.582 8397.89 8397.89 0 0 1-12.434 7.265 6.753 6.753 0 0 1-.916.476.683.683 0 0 1-.897-.267.714.714 0 0 1 .24-.91c.206-.169.427-.32.66-.45 4.245-2.483 8.49-4.961 12.737-7.437.282-.196.601-.334.938-.405a.661.661 0 0 1 .755.686.612.612 0 0 1-.236.472v-.012zm1.57 55.267a1.12 1.12 0 0 1-1.1-1.115 1.12 1.12 0 0 1 1.096-1.12 1.12 1.12 0 0 1 .829 1.903 1.133 1.133 0 0 1-.824.344v-.012zm2.748-61.312a.635.635 0 0 1-.717-.25 1.688 1.688 0 0 1-.268-.5 31.182 31.182 0 0 1-1.196-5.776c.016-.2.049-.4.098-.596a.569.569 0 0 1 .505-.405.659.659 0 0 1 .605.258c.155.22.245.48.26.748.22 1.774.583 3.528 1.086 5.244.062.22.093.446.093.674 0 .286-.19.537-.466.615v-.012zm-6.133-8.752a6.448 6.448 0 0 1-1.134-.105.596.596 0 0 1-.478-.565.634.634 0 0 1 .51-.667c.337-.064.68-.096 1.023-.093h15.708c.344 0 .688 0 1.033.017.23 0 .456.064.652.186a.612.612 0 0 1-.019 1.046 1.657 1.657 0 0 1-.884.183h-8.498c-2.638.01-5.275.013-7.913.01v-.012zm9.744 46.129a.748.748 0 0 1-.89.641.744.744 0 1 1 .89-.63v-.011zm.717-36.3c-.23.133-.478.229-.736.287a.589.589 0 0 1-.672-.32.609.609 0 0 1 .079-.738c.15-.17.325-.316.519-.434.815-.491 1.638-.954 2.46-1.43.223-.148.483-.23.751-.239a.64.64 0 0 1 .643.65.697.697 0 0 1-.239.501c-.168.153-.35.29-.543.41-.755.453-1.504.897-2.269 1.326l.007-.012z"/><path d="M74.664 110.038a.654.654 0 0 0-.631.573 2.586 2.586 0 0 0-.017.702c.017.33.263.597.58.63.337.042.677.06 1.017.056h40.81c.34.004.68-.018 1.017-.066a.606.606 0 0 0 .527-.546c.037-.232.043-.468.018-.702a.655.655 0 0 0-.583-.628c-.413-.04-.828-.06-1.243-.056H75.916c-.42-.003-.839-.003-1.252.037zm16.893-29.186c-.262.023-.53.019-.792.019h-5.103c-.34-.003-.68.016-1.017.058a.669.669 0 0 0-.555.496 2.05 2.05 0 0 0-.052.99c.027.27.242.487.517.52.413.046.828.068 1.244.065h20.298c.378 0 .756 0 1.132-.035.52-.053.728-.288.761-.796a2.544 2.544 0 0 0 0-.445c-.056-.515-.224-.696-.75-.835-.217-.055-.446-.079-.656-.153a.577.577 0 0 1-.402-.496.605.605 0 0 1 .352-.64c.207-.09.42-.168.636-.232a.635.635 0 0 0 .447-.696 5.631 5.631 0 0 0-.102-.77 20.892 20.892 0 0 0-.775-2.904 16.079 16.079 0 0 0-2.697-4.982c-1.537-1.874-3.428-3.247-5.858-3.77-4.17-.912-8.167.755-10.71 4.39a1.73 1.73 0 0 0-.199.396.397.397 0 0 0 .017.324.41.41 0 0 0 .255.207c.297.045.596.074.896.086.378.023.759 0 1.132.051a.65.65 0 0 1 .648.647.703.703 0 0 1-.674.64c-.3.032-.601.045-.903.04-.605 0-1.21 0-1.815.016a1.024 1.024 0 0 0-.89.406 3.482 3.482 0 0 0-.564 1.44.504.504 0 0 0 .409.58c.26.043.523.064.787.065.567.012 1.135 0 1.702.014.263.007.524.048.775.123a.556.556 0 0 1 .38.505.632.632 0 0 1-.39.62c-.286.097-.59.136-.893.113h-2.38c-.9.026-1.106.207-1.284 1.083a3.871 3.871 0 0 0-.082.773.583.583 0 0 0 .536.614c.338.04.677.056 1.017.051h4.763c.265 0 .53 0 .792.017.645.053.978.315.945.73-.014.394-.319.626-.898.675zM99 61.522A2.479 2.479 0 0 0 96.536 59 2.591 2.591 0 0 0 94 61.599 2.473 2.473 0 0 0 96.466 64 2.553 2.553 0 0 0 99 61.522zm-3.254.081a.632.632 0 0 1-1.056-.408 1.36 1.36 0 0 1 1.338-1.52.715.715 0 0 1 .68.398.632.632 0 0 1-.19.775c-.263.254-.49.522-.772.755zM84 97.036v10.153c0 1.766.041 1.805 1.748 1.81h7.584c.293.005.586-.006.878-.032.517-.058.758-.27.77-.805.027-1.515.015-3.033.01-4.55.015-.448-.274-.843-.687-.939-.279-.095-.56-.187-.833-.301-2.307-.973-3.734-3.245-3.798-5.89-.04-2.645 1.46-5.041 3.772-6.027.237-.105.48-.193.729-.263.59-.158.834-.569.827-1.194v-2.451c0-1.435-.103-1.542-1.43-1.547h-8.017c-1.48 0-1.55.078-1.553 1.651v10.385zm5.866 5.311a.677.677 0 0 1-.191.743.585.585 0 0 1-.725.03 2.152 2.152 0 0 1-.497-.452 9.454 9.454 0 0 1-1.544-2.935 1.543 1.543 0 0 1-.075-.803.632.632 0 0 1 .471-.508.617.617 0 0 1 .553.197c.12.144.22.309.29.486.352.987.844 1.911 1.457 2.741.108.154.195.322.26.501h.001zm-2.2-10.803a5.025 5.025 0 0 1 1.804-2.405.957.957 0 0 1 .348-.104.58.58 0 0 1 .55.42.69.69 0 0 1 0 .445 12.58 12.58 0 0 1-1.757 2.342c-.2.194-.502.2-.71.017a.614.614 0 0 1-.236-.715zm-.72 1.87a.557.557 0 0 1 .593-.194c.22.05.39.234.435.467.097.459.006.94-.25 1.323a.574.574 0 0 1-.661.282.645.645 0 0 1-.458-.579c-.014-.075 0-.153-.017-.23.001-.39.127-.766.358-1.068zm21.049-6.857c-.013-1.433-.114-1.552-1.418-1.557h-8.233a4.43 4.43 0 0 0-.762.06.639.639 0 0 0-.52.534 2.104 2.104 0 0 0-.052.462c0 .972-.023 1.945 0 2.918.018.817.137.951.915 1.238.137.054.28.092.416.146 2.015.742 3.51 2.56 3.934 4.783.423 2.222-.29 4.516-1.875 6.033a5.346 5.346 0 0 1-2.267 1.371c-1.073.312-1.123.635-1.12 1.666v3.267c0 1.398.116 1.517 1.459 1.522h8.115c1.303 0 1.4-.124 1.413-1.564V86.67c-.005-.035-.005-.073-.005-.112zm-3.771 5.96a.6.6 0 0 1 .686.22c.256.301.542 1.216.556 1.787a1.933 1.933 0 0 1-.04.304.612.612 0 0 1-.436.487.532.532 0 0 1-.595-.195 2.058 2.058 0 0 1-.301-.61c-.126-.445-.314-.88-.29-1.358a.628.628 0 0 1 .424-.634h-.004zm-2.564-2.607a.67.67 0 0 1 .079-.604.586.586 0 0 1 .52-.256c.588.046 1.601 1.196 1.601 1.84 0 .448-.457.815-.832.594a3.229 3.229 0 0 1-1.368-1.574zm3.703 9.082a9.864 9.864 0 0 1-2.136 4.134c-.2.279-.47.492-.778.616a.628.628 0 0 1-.686-.22.626.626 0 0 1-.071-.653 3.13 3.13 0 0 1 .435-.662 9.053 9.053 0 0 0 1.937-3.728c.058-.224.14-.44.247-.642a.561.561 0 0 1 .647-.321.654.654 0 0 1 .492.559c.015.097.026.194.032.292-.034.173-.062.404-.12.625zm-68.726 87.09a.484.484 0 0 0-.688.161 8.945 8.945 0 0 0-.846 1.292c-.17.322-.134.497.146.725a4.84 4.84 0 0 0 1.01.633.906.906 0 0 0 .856 0c.487-.283.814-.773.884-1.326.013-.316-.12-.62-.362-.827a5.332 5.332 0 0 0-1-.658zm73.846-45.319c.256-.289.515-.588.517-.999a5.54 5.54 0 0 0-.345-1.912.416.416 0 0 0-.667-.18c-.314.278-.592.598-.891.894a9.584 9.584 0 0 1-.839.787.626.626 0 0 1-.758 0 .653.653 0 0 1-.196-.822c.1-.206.224-.4.37-.576.242-.302.51-.577.754-.873.118-.15.223-.31.311-.478a.383.383 0 0 0-.2-.478 2.42 2.42 0 0 0-1.027-.112h-8.23c-1.816 0-3.622.026-5.448 0-.848-.017-1.503.239-2.003.915-.16.215-.355.404-.534.605l-4.886 5.524c-1.783 2.015-3.558 4.032-5.345 6.043-.433.44-.73.993-.853 1.594-.164.982-.358 1.958-.522 2.938a3.98 3.98 0 0 0-.024.796c0 .181.288.299.447.21.321-.213.603-.479.833-.786l3.607-4.045c.241-.284.483-.595.879-.717a.635.635 0 0 1 .652.117c.185.15.263.394.198.622a1.64 1.64 0 0 1-.242.509c-.207.277-.444.53-.673.789-1.933 2.182-3.865 4.37-5.827 6.54a3.585 3.585 0 0 0-.942 1.924c-.132.87-.314 1.733-.46 2.598-.045.263-.065.53-.059.796a.36.36 0 0 0 .172.265c.103.04.22.03.314-.028.265-.222.514-.462.746-.717 1.208-1.344 2.399-2.699 3.599-4.047a3.08 3.08 0 0 1 .85-.77.665.665 0 0 1 .759.06c.217.176.294.47.19.729a2.258 2.258 0 0 1-.29.492c-.185.24-.395.478-.598.698-1.933 2.183-3.865 4.37-5.829 6.538a3.552 3.552 0 0 0-.947 1.912c-.12.832-.302 1.654-.442 2.484a4.72 4.72 0 0 0-.062.796.305.305 0 0 0 .175.278.312.312 0 0 0 .33-.04c.264-.22.513-.46.743-.716 1.181-1.315 2.348-2.63 3.532-3.954a5.11 5.11 0 0 1 .753-.717.647.647 0 0 1 .848.062.62.62 0 0 1 .135.739 2.202 2.202 0 0 1-.297.478c-.188.239-.398.478-.601.698l-5.674 6.365c-.386.433-.766.87-.872 1.463-.2 1.09-.399 2.183-.585 3.275-.038.222-.077.492.15.626.227.134.433-.06.594-.217.242-.24.484-.5.708-.758l5.903-6.626 25.507-28.684c.865-.96 1.729-1.928 2.592-2.907zM81.319 203c-.401 0-.554.141-.652.522-.03.13-.05.261-.06.394-.15 1.23-.305 2.46-.45 3.691-.061.522-.13 1.043-.155 1.566-.022.451.128.609.593.705.29.048.583.083.876.103 1.274.14 2.498-.514 3.037-1.625.31-.62.477-1.295.492-1.981-.03-2.13-1.267-3.398-3.681-3.375zm29.761-13.206a2.969 2.969 0 0 0 1.945-1.085c.905-1.1 1.856-2.163 2.788-3.24l1.734-2.013c.257-.239.419-.566.453-.92a8.015 8.015 0 0 0-.46-2.616.37.37 0 0 0-.584-.121 3.212 3.212 0 0 0-.421.388c-.308.342-.6.701-.913 1.044a4.51 4.51 0 0 1-.581.553.69.69 0 0 1-.85 0 .671.671 0 0 1-.146-.847c.152-.268.33-.52.529-.752.443-.534.907-1.049 1.355-1.578 1.24-1.457 1.282-1.168.877-3.33-.083-.435 0-1.049-.56-1.16-.452-.09-.672.436-.953.728-.319.335-.607.701-.953 1.014-.345.313-.76.357-1.027.102-.267-.255-.262-.64.015-1.063.155-.22.323-.432.502-.633.577-.673 1.158-1.34 1.735-2.013.283-.33.529-.689.476-1.148a16.644 16.644 0 0 0-.324-1.699.41.41 0 0 0-.292-.338.4.4 0 0 0-.422.137c-.405.408-.775.854-1.168 1.277-.23.26-.476.503-.739.728a.632.632 0 0 1-.84-.03.679.679 0 0 1-.122-.851 5.68 5.68 0 0 1 .61-.84c.62-.728 1.239-1.474 1.89-2.185a1.79 1.79 0 0 0 .461-1.699c-.138-.645-.238-1.298-.355-1.941a2.063 2.063 0 0 0-.145-.44.38.38 0 0 0-.581-.143c-.339.306-.662.63-.968.97A36433.007 36433.007 0 0 0 90.55 189.5c-.238.28-.665.554-.52.971.177.485.715.357 1.106.388 2.016.163 4.036.141 6.057.139a96.488 96.488 0 0 0 13.889-1.204z"/><path fill="#8F82D8" fill-rule="nonzero" d="M192 96.053C192.04 42.434 148.221-.174 96.067.001 43.97-.239.904 42.018.014 94.313c-.902 52.855 41.211 97.605 95.88 97.687 53.72.081 96.068-43.297 96.106-95.947zM71.835 186.691a.64.64 0 0 1-.792.478 10.254 10.254 0 0 1-1.226-.294 94.388 94.388 0 0 1-12.611-4.613 92.057 92.057 0 0 1-25.534-16.935c-16.373-15.424-26.155-34.284-29.346-56.58C.3 94.282 1.668 80.087 6.26 66.227a93.454 93.454 0 0 1 18.56-32.384 94.39 94.39 0 0 1 28.957-22.448 92.833 92.833 0 0 1 29.947-9.18c45.408-5.926 88.538 21.54 102.386 65.201 13.847 43.662-5.566 90.974-46.085 112.316a92.906 92.906 0 0 1-17.773 7.138c-.367.11-.74.196-1.118.259a.586.586 0 0 1-.7-.453 9.337 9.337 0 0 1-.255-1.118c-1.971-10.93-3.942-21.86-5.91-32.793l-2.69-14.925a11.4 11.4 0 0 1-.165-1.25.543.543 0 0 1 .464-.574 7.763 7.763 0 0 1 1.029-.065h5.856c.811-.057 1.079-.282 1.196-1.113.18-1.367.319-2.738.479-4.107.067-.572.143-1.142.187-1.714.071-.958-.178-1.252-1.113-1.355-1.28-.141-1.336-.184-1.338-1.455v-11.71c0-.48.203-.81.704-.9.076-.015.15-.034.225-.05a.957.957 0 0 0 .816-.973c.021-.957.035-1.915 0-2.872-.03-.615-.343-.893-.943-.957a9.244 9.244 0 0 0-1.032-.032h-6.547c-1.525 0-1.615-.09-1.618-1.644V83.862a29.21 29.21 0 0 0-1.074-7.945 19.727 19.727 0 0 0-2.06-4.852c-1.544-2.561-3.59-4.567-6.417-5.675a3.864 3.864 0 0 1-.418-.19.539.539 0 0 1-.285-.763c.139-.316.335-.608.45-.929.588-1.675.328-3.179-.907-4.464a4.067 4.067 0 0 0-4.456-.914 4.117 4.117 0 0 0-2.264 5.426c.132.319.314.613.45.929a.5.5 0 0 1-.225.69 7.16 7.16 0 0 1-.718.33 12.71 12.71 0 0 0-5.265 4.146 18.1 18.1 0 0 0-2.888 5.838 28.013 28.013 0 0 0-1.142 7.128 108.478 108.478 0 0 0-.067 3.675v20.334c.008.46-.009.919-.05 1.376a.69.69 0 0 1-.67.668c-.342.036-.687.05-1.031.043h-6.548c-1.639 0-1.792.16-1.804 1.755 0 .651 0 1.302.012 1.953 0 .606.26 1.042.902 1.14.641.098.842.454.838 1.034v11.257a9.93 9.93 0 0 1-.031 1.034c-.05.48-.252.68-.718.745-.302.043-.613.026-.914.081-.534.094-.783.4-.802.958 0 .191.012.382.038.572.192 1.755.385 3.51.58 5.266.013.152.036.303.066.452.156.74.402.958 1.168 1.013.306.021.613 0 .919 0h4.94c.305-.006.612.008.916.043a.613.613 0 0 1 .577.718c-.035.381-.09.76-.168 1.135-.818 4.559-1.64 9.119-2.465 13.68a18244.68 18244.68 0 0 0-6.193 34.124 8.43 8.43 0 0 1-.22 1.018zM91.587 79.989c-.266-.022-.534-.017-.802-.017h-4.822a7.759 7.759 0 0 1-1.029-.052.598.598 0 0 1-.543-.635 4.07 4.07 0 0 1 .084-.797c.18-.905.388-1.091 1.3-1.118.803-.021 1.608 0 2.41 0 .306.024.614-.016.904-.117a.653.653 0 0 0 .395-.64.572.572 0 0 0-.386-.521 3.005 3.005 0 0 0-.785-.127c-.574-.019-1.148 0-1.723-.014-.267 0-.533-.023-.796-.067a.52.52 0 0 1-.414-.599c.078-.531.273-1.04.571-1.486.209-.285.548-.443.9-.419.613 0 1.225 0 1.838-.017.305.006.61-.008.914-.04a.718.718 0 0 0 .682-.661.665.665 0 0 0-.655-.668c-.379-.048-.764-.029-1.147-.053a8.192 8.192 0 0 1-.907-.088.416.416 0 0 1-.275-.548 1.88 1.88 0 0 1 .201-.41c2.575-3.75 6.622-5.472 10.843-4.531 2.46.548 4.375 1.958 5.93 3.892a16.698 16.698 0 0 1 2.723 5.151c.332.98.595 1.981.785 2.997.053.263.087.528.103.795a.656.656 0 0 1-.452.718c-.22.066-.434.146-.644.24a.627.627 0 0 0-.356.66.59.59 0 0 0 .406.512c.213.077.446.101.666.158.531.137.7.33.758.862.014.153.014.307 0 .46-.033.524-.239.766-.77.82-.38.041-.764.027-1.146.037H85.804c-.421.003-.842-.02-1.26-.067a.6.6 0 0 1-.524-.537c-.065-.34-.046-.69.053-1.022a.682.682 0 0 1 .562-.512 7.761 7.761 0 0 1 1.03-.06h5.166c.266 0 .536 0 .802-.019.586-.05.895-.29.916-.68.022-.454-.316-.725-.962-.78zm1.938-17.926a2.733 2.733 0 0 1 2.674-2.744 2.618 2.618 0 0 1 2.596 2.662 2.693 2.693 0 0 1-2.67 2.616 2.609 2.609 0 0 1-2.607-2.534h.007zm14.837 44.522v.572c-.014 1.418-.114 1.535-1.478 1.54h-8.491c-1.405 0-1.515-.122-1.527-1.499v-3.215c0-1.014.05-1.333 1.173-1.64a5.669 5.669 0 0 0 2.371-1.35 6.306 6.306 0 0 0-2.153-10.644c-.144-.053-.292-.091-.436-.144-.802-.282-.926-.414-.957-1.218-.024-.958 0-1.915 0-2.873 0-.153.019-.305.055-.454a.649.649 0 0 1 .543-.525c.264-.041.53-.061.797-.06h8.615c1.364 0 1.47.123 1.484 1.533v19.982l.004-.005zM85.57 85.075h8.375c1.386 0 1.482.11 1.494 1.523v2.413c0 .615-.24 1.02-.864 1.175-.26.069-.514.155-.761.259a6.286 6.286 0 0 0-3.942 5.931c.067 2.605 1.558 4.848 3.968 5.798.285.112.58.203.871.297.43.094.733.483.718.924 0 1.493.017 2.987-.012 4.478 0 .527-.263.735-.804.793-.305.025-.61.036-.917.03h-7.94c-1.783 0-1.826-.042-1.826-1.78V86.699c0-1.561.077-1.623 1.623-1.628l.017.005zm10.675 25.046h20.327c.42-.003.84.015 1.258.055a.649.649 0 0 1 .592.61c.02.228.01.458-.032.683a.6.6 0 0 1-.528.531 7.05 7.05 0 0 1-1.03.065h-41.34a7.794 7.794 0 0 1-1.031-.055.651.651 0 0 1-.582-.613 2.416 2.416 0 0 1 .017-.682.653.653 0 0 1 .64-.558c.418-.038.842-.038 1.263-.038l20.446.002zm20.516 10.506v5.154c0 .306 0 .612-.015.916-.055.718-.277.917-1.02.939a3.85 3.85 0 0 1-.683-.039.675.675 0 0 1-.601-.603 6.438 6.438 0 0 1-.06-.912v-10.994c-.003-.23.008-.459.031-.687.07-.582.285-.788.898-.819 1.105-.052 1.466.103 1.457 1.32-.036 1.902-.024 3.81-.024 5.72l.017.005zm-3.875 6.063c-.047.675-.239.9-.902.934a10.53 10.53 0 0 1-1.486-.027.675.675 0 0 1-.665-.665 6.465 6.465 0 0 1-.055-.912c0-3.627-.012-7.253 0-10.88 0-1.474.124-1.577 1.555-1.572.306-.005.611.01.914.045.32.026.574.28.601.599.036.342.053.685.05 1.029v10.532c-.012.297 0 .613-.012.917zm-4.546-.558c0 1.4-.11 1.494-1.508 1.508h-1.608c-1.436 0-1.527-.1-1.541-1.594v-10.692c-.004-.383.013-.766.05-1.147a.663.663 0 0 1 .6-.603c.228-.032.458-.047.687-.046h1.95c1.216.02 1.348.158 1.37 1.422v5.513c0 1.886.012 3.763 0 5.64zm-6.074 0c0 1.389-.12 1.496-1.508 1.508h-2.52a4.938 4.938 0 0 1-.796-.062.625.625 0 0 1-.532-.531 3.592 3.592 0 0 1-.062-.682v-11.46a4.35 4.35 0 0 1 .05-.684.69.69 0 0 1 .599-.608c.188-.03.378-.044.57-.04h2.978c.191-.004.382.01.57.04a.68.68 0 0 1 .598.608c.038.341.056.684.053 1.027v5.386c.005 1.831.012 3.665.002 5.498h-.002zm-6.84.041c0 1.326-.133 1.453-1.435 1.465h-2.633c-.229 0-.457-.015-.684-.045a.677.677 0 0 1-.605-.599 6.106 6.106 0 0 1-.063-.912v-10.997c0-1.402.127-1.508 1.496-1.52h2.52c.229-.005.457.006.684.034a.699.699 0 0 1 .675.66c.034.304.048.61.04.915v5.506c0 1.84.018 3.662.008 5.493h-.002zm-6.891-.029c0 1.386-.113 1.484-1.513 1.496-.718 0-1.452.017-2.178-.016-.653-.031-.854-.259-.904-.931-.02-.24-.014-.46-.014-.687v-10.772c-.008-.305.002-.61.028-.915.055-.46.27-.706.742-.718a49.855 49.855 0 0 1 3.09 0c.461.015.667.266.717.74.032.304.027.61.03.917v5.383c.006 1.839.014 3.67.004 5.503h-.002zm-9.204-5.541v-5.829c.036-1.003.206-1.168 1.24-1.197a9.06 9.06 0 0 1 1.141.032.682.682 0 0 1 .684.646c.038.264.056.53.053.797v10.994c0 1.513-.132 1.614-1.651 1.602-1.314 0-1.458-.137-1.465-1.437v-5.61l-.002.002zm-1.412.024v5.154c0 .304 0 .61-.014.914-.053.68-.259.886-.91.933a4.16 4.16 0 0 1-.457 0c-.718-.038-.924-.239-.979-.986-.028-.38-.026-.763-.026-1.144v-9.965c-.004-.42.014-.839.053-1.257a.69.69 0 0 1 .655-.677 3.48 3.48 0 0 1 .57-.029c.847.015 1.086.223 1.096 1.099.022 1.984 0 3.969 0 5.955l.012.003zm-2.728 8.512h41.922c.42 0 .844 0 1.26.038a.648.648 0 0 1 .64.68c.005.23-.008.46-.039.687-.11.989-.205 1.98-.344 2.966-.103.74-.314.912-1.044.957-.304.022-.612.015-.919.015h-41c-.383 0-.766 0-1.146-.024-.536-.048-.764-.24-.852-.769-.11-.639-.172-1.29-.24-1.936-.066-.608-.14-1.219-.167-1.829-.021-.479.19-.718.673-.754.423-.036.84-.031 1.258-.031h-.002zm.957 49.854c-.24.258-.46.514-.701.758-.16.158-.345.367-.589.218-.244-.148-.186-.404-.148-.627.184-1.094.38-2.188.579-3.28.105-.593.479-1.031.864-1.464l5.624-6.375c.2-.24.409-.457.595-.699a2.21 2.21 0 0 0 .295-.478.625.625 0 0 0-.134-.74.636.636 0 0 0-.84-.062 5.086 5.086 0 0 0-.747.718c-1.172 1.316-2.328 2.633-3.498 3.959a7.18 7.18 0 0 1-.738.718.306.306 0 0 1-.5-.24 4.69 4.69 0 0 1 .063-.806c.138-.83.318-1.654.437-2.487.11-.719.438-1.387.939-1.915 1.938-2.171 3.852-4.361 5.774-6.547.201-.24.41-.457.593-.699.117-.151.213-.317.288-.493a.64.64 0 0 0-.19-.73.653.653 0 0 0-.75-.06 3.08 3.08 0 0 0-.843.771c-1.197 1.35-2.374 2.707-3.566 4.053-.23.256-.477.496-.74.718a.347.347 0 0 1-.31.028.361.361 0 0 1-.17-.265 4.257 4.257 0 0 1 .057-.797c.146-.867.326-1.731.457-2.602a3.605 3.605 0 0 1 .933-1.927c1.936-2.174 3.85-4.364 5.773-6.55.239-.258.461-.512.667-.79a1.65 1.65 0 0 0 .24-.51.596.596 0 0 0-.197-.622.624.624 0 0 0-.646-.117c-.383.13-.62.44-.87.718a952.813 952.813 0 0 0-3.574 4.05 3.35 3.35 0 0 1-.825.788c-.158.088-.436-.029-.443-.21a4.027 4.027 0 0 1 .024-.798c.163-.981.354-1.958.517-2.942a3.2 3.2 0 0 1 .852-1.608c1.77-2.013 3.53-4.034 5.296-6.052 1.612-1.846 3.226-3.69 4.84-5.531.178-.202.372-.39.53-.606.495-.675 1.143-.934 1.983-.917 1.8.038 3.59 0 5.4 0h8.151c.343-.037.69.002 1.017.113.18.084.266.291.199.478a3.02 3.02 0 0 1-.309.48c-.239.296-.51.571-.746.873-.145.177-.268.37-.366.577a.658.658 0 0 0 .193.823c.222.171.53.171.752 0 .292-.245.57-.508.83-.787.297-.297.572-.618.883-.896a.41.41 0 0 1 .66.194 5.6 5.6 0 0 1 .343 1.915c0 .412-.259.718-.512 1-.857.98-1.715 1.959-2.575 2.935l-25.27 28.725-5.852 6.619zm14.868 11.43c-.402-.032-.933.105-1.11-.384-.146-.409.273-.68.521-.957a29513.37 29513.37 0 0 1 22.595-25.098c.308-.336.632-.655.972-.957a.388.388 0 0 1 .584.14c.065.14.114.284.146.434.122.64.218 1.283.357 1.915a1.743 1.743 0 0 1-.464 1.676c-.654.699-1.276 1.436-1.898 2.154a5.695 5.695 0 0 0-.613.828.66.66 0 0 0 .122.84.644.644 0 0 0 .845.029 7.45 7.45 0 0 0 .742-.718c.395-.417.766-.857 1.172-1.26a.407.407 0 0 1 .718.2c.138.552.247 1.111.326 1.675.062.453-.184.807-.479 1.132-.579.663-1.163 1.322-1.742 1.985-.18.198-.349.407-.505.624-.277.417-.273.805-.014 1.049.258.244.663.24 1.031-.1.369-.34.627-.67.957-1.001.285-.292.505-.812.958-.718.557.11.478.718.562 1.144.407 2.133.364 1.843-.88 3.284-.45.522-.917 1.03-1.362 1.556a4.8 4.8 0 0 0-.532.742.654.654 0 0 0 .146.835.703.703 0 0 0 .855 0c.21-.164.406-.346.584-.545.313-.338.608-.692.916-1.03.13-.14.271-.268.424-.383a.376.376 0 0 1 .586.12c.299.828.455 1.7.462 2.58a1.417 1.417 0 0 1-.455.908c-.579.662-1.16 1.323-1.742 1.984-.936 1.063-1.89 2.111-2.8 3.196a2.996 2.996 0 0 1-1.953 1.07 98.647 98.647 0 0 1-13.956 1.187c-2.02.002-4.049.024-6.073-.137h-.003z"/><path fill="#8F82D8" fill-rule="nonzero" d="M38.258 133.644c.262-.22.55-.41.832-.603 3.573-2.449 7.145-4.899 10.716-7.35.313-.213.617-.443.911-.682A.764.764 0 0 0 51 124.4a.655.655 0 0 0-.244-.502.618.618 0 0 0-.533-.118c-.457.1-.81.402-1.178.659l-10.718 7.344c-.283.194-.56.395-.858.562-.421.242-.706.174-.989-.206a6.302 6.302 0 0 1-.428-.68c-.4-.702-.808-1.4-1.178-2.114-.445-.848-.377-1.059.443-1.591.254-.165.518-.317.78-.472l4.764-2.872c.34-.17.65-.398.914-.676a.698.698 0 0 0 .056-.857.587.587 0 0 0-.706-.242 6.7 6.7 0 0 0-1.016.484c-1.695 1.01-3.382 2.032-5.075 3.044-1.33.796-1.427.765-2.089-.661a72.344 72.344 0 0 1-3.735-9.963 8.635 8.635 0 0 0-.377-1.092.65.65 0 0 0-.83-.412.663.663 0 0 0-.423.727c.06.42.152.836.273 1.242a73.03 73.03 0 0 0 3.768 10.079c.16.351.328.7.457 1.06.146.405.066.64-.27.918-.264.216-.561.395-.813.625a.681.681 0 0 0-.152.845.642.642 0 0 0 .783.3c.285-.094.549-.242.827-.368.447-.181.706-.123.968.303a81.624 81.624 0 0 1 1.809 3.218c.22.414.131.705-.236 1.022a7.777 7.777 0 0 1-.645.47l-3.298 2.257-5.075 3.482c-.335.18-.627.434-.855.744a.661.661 0 0 0 0 .762.599.599 0 0 0 .707.243c.18-.059.352-.14.513-.243.26-.155.506-.334.756-.506l8.182-5.603c1.034-.702 1.178-.656 1.896.385.831 1.196 1.68 2.383 2.53 3.567.203.327.466.61.774.835a.612.612 0 0 0 .742 0 .667.667 0 0 0 .236-.726 2.401 2.401 0 0 0-.51-.894c-.802-1.121-1.61-2.242-2.41-3.368a6.61 6.61 0 0 1-.486-.782c-.214-.388-.165-.671.207-.986zm15.67-77.142a.656.656 0 0 0-.745.138.6.6 0 0 0-.105.727 1.5 1.5 0 0 0 .257.367c.208.218.43.426.655.629 1.942 1.756 3.884 3.51 5.827 5.261.339.304.684.603.996.935.382.402.399.66.082 1.096-.24.334-.523.645-.788.968a44.992 44.992 0 0 0-5.57 8.618 7.61 7.61 0 0 0-.46 1.142.653.653 0 0 0 .348.76c.29.136.638.046.82-.213.214-.31.402-.636.563-.974a44.577 44.577 0 0 1 5.666-8.69 7.63 7.63 0 0 1 .7-.739c.128-.08.267-.14.414-.18.149.055.292.122.43.201.183.135.357.28.523.435l7.935 7.17c.223.204.441.417.646.641a.632.632 0 0 1 .057.827c-.141.22-.317.421-.48.634-.511.701-1.025 1.402-1.525 2.103-.152.22-.279.455-.377.702a.667.667 0 0 0 .212.808.7.7 0 0 0 .931-.138c.24-.247.41-.537.617-.806.548-.722 1.076-1.456 1.655-2.153.314-.38.621-.383 1.006-.102.21.161.413.334.605.516l2.532 2.288c.232.253.537.432.874.515a.646.646 0 0 0 .62-.215.584.584 0 0 0 .1-.63 1.864 1.864 0 0 0-.561-.7c-.87-.793-1.736-1.587-2.615-2.368-.492-.437-.92-.867-.9-1.601a.543.543 0 0 0-.174-.473.577.577 0 0 0-.496-.14c-.744.066-1.227-.303-1.717-.745-2.613-2.37-5.23-4.735-7.85-7.094a6.56 6.56 0 0 1-.637-.647.619.619 0 0 1-.021-.828 3.8 3.8 0 0 1 .456-.502c.691-.648 1.376-1.304 2.089-1.928a44.21 44.21 0 0 1 5.966-4.39 3.02 3.02 0 0 0 .903-.685.613.613 0 0 0 .055-.734.638.638 0 0 0-.692-.292 1.467 1.467 0 0 0-.432.145c-.271.14-.535.295-.794.456a45.569 45.569 0 0 0-7.72 6.011c-.27.267-.535.54-.823.786-.449.385-.72.383-1.22 0-.18-.138-.34-.302-.508-.454l-6.339-5.714c-.3-.276-.583-.599-.991-.744zm74.829 11.146a4128.605 4128.605 0 0 1-8.268 6.45c-.93.727-1.202 1.007-2.166-.084a1.386 1.386 0 0 0-.752-.493.638.638 0 0 0-.628.17.622.622 0 0 0-.148.63c.11.284.28.54.5.75.669.798.65.968-.169 1.643-.145.12-.3.236-.45.35l-2.694 2.104a7.853 7.853 0 0 0-.614.509c-.402.385-.476.8-.216 1.095.26.296.611.298 1.04.038.256-.163.502-.34.738-.53a722.89 722.89 0 0 1 2.88-2.243 8.21 8.21 0 0 1 .737-.533.667.667 0 0 1 .926.128c.183.193.35.4.5.62.31.43.6.876.911 1.306.149.219.319.423.507.608.23.22.584.243.84.055a.606.606 0 0 0 .224-.71c-.084-.25-.2-.488-.343-.71a42.945 42.945 0 0 0-1.025-1.503c-.772-1.088-.77-1.2.27-2.018 1.731-1.363 3.473-2.712 5.213-4.068 1.169-.911 2.33-1.832 3.508-2.729.714-.551.969-.516 1.52.156.239.291.46.601.684.91a47.589 47.589 0 0 1 2.984 4.704c.139.267.298.523.476.766a.664.664 0 0 0 .873.21.656.656 0 0 0 .28-.849 6.816 6.816 0 0 0-.477-1.027 44.855 44.855 0 0 0-3.26-5.069c-.16-.213-.326-.418-.476-.64-.4-.611-.367-.855.212-1.36.285-.248.592-.473.892-.71l11.148-8.691c.269-.208.533-.429.785-.658a.812.812 0 0 0 .281-.601.616.616 0 0 0-.664-.623 1.786 1.786 0 0 0-.628.237c-.32.204-.614.447-.914.68a4122.856 4122.856 0 0 1-11.51 8.973c-1.047.814-1.12.79-2.054-.182-.892-.93-1.81-1.839-2.72-2.755a2.12 2.12 0 0 0-.83-.584.674.674 0 0 0-.715.21.645.645 0 0 0-.085.644c.13.275.321.518.56.71.827.835 1.665 1.656 2.481 2.51 1.06 1.12 1.04 1.264-.164 2.204zm36.733 27.668h-11.761c-.277 0-.555 0-.83.026-.564.057-.911.353-.899.735.013.382.352.643.939.7.354.033.71.028 1.067.03h11.405c.355-.002.71.016 1.064.056.331.03.59.289.612.609.027.189.04.38.035.57-.013 1.235-.3 1.454-1.457 1.347a83.014 83.014 0 0 0-3.078-.239 4.432 4.432 0 0 0-.94.034.61.61 0 0 0-.516.556.65.65 0 0 0 .404.645c.29.122.604.187.92.19.947.082 1.895.16 2.841.24.316.02.63.06.941.116a.68.68 0 0 1 .64.717 7.04 7.04 0 0 1-.06 1.141c-.193 1.516-.404 3.028-.607 4.537a3.078 3.078 0 0 0-.052 1.136c.05.271.271.482.552.528a.622.622 0 0 0 .681-.351 4.53 4.53 0 0 0 .288-.984c.29-1.657.52-3.324.656-4.997.097-1.223.215-1.6 1.642-1.433.196.024.395.024.592 0a.717.717 0 0 0 .708-.642.693.693 0 0 0-.545-.669 7.166 7.166 0 0 0-.815-.145c-.247-.036-.475-.048-.703-.103a.684.684 0 0 1-.58-.645 14.206 14.206 0 0 1-.017-1.258c.082-2.519.008-5.04-.223-7.55-.126-1.406-.324-2.808-.47-4.212-.077-.733.101-.97.847-1.13.656-.14 1.327-.223 1.981-.355.31-.07.612-.17.899-.303a.619.619 0 0 0 .337-.676.684.684 0 0 0-.577-.513 2.784 2.784 0 0 0-1.06.064l-10.292 1.762a6.156 6.156 0 0 0-.808.182c-.418.134-.641.425-.609.747.032.323.379.6.884.585.316-.014.63-.05.941-.11 1.444-.238 2.885-.499 4.33-.737 1.346-.22 1.507-.11 1.695 1.193.33 2.309.536 4.632.62 6.96.062 1.521-.057 1.643-1.622 1.646zm-39.99.091c-.223.031-.45.021-.672.048a1.646 1.646 0 0 0-.433.107.615.615 0 0 0-.394.524c-.018.28.141.54.394.642.175.065.356.109.54.131.223.032.45.022.67.063a.638.638 0 0 1 .553.638c.01.348-.004.697-.043 1.043a31.057 31.057 0 0 1-1.027 5.357c-.096.334-.202.667-.27 1.009-.103.516.033.848.368.984.37.148.723-.056.948-.587.129-.322.237-.653.326-.99.56-1.973.932-3.998 1.112-6.047.119-1.341.22-1.443 1.498-1.455h10.326c.3 0 .6 0 .897.024.525.056.724.272.747.824.012.35.002.7-.03 1.048-.08.888-.174 1.775-.26 2.668-.024.242-.068.463-.075.693-.014.505.19.834.533.907.345.073.703-.204.836-.754.06-.264.102-.532.124-.803.099-1.001.2-2.005.274-3.01.115-1.542.15-1.583 1.69-1.59h2.807c.15-.004.299-.02.445-.05a.719.719 0 0 0 .616-.714.667.667 0 0 0-.592-.601 5.814 5.814 0 0 0-.895-.061h-2.472a6.011 6.011 0 0 1-.782-.039.681.681 0 0 1-.66-.671c-.056-.461-.072-.927-.094-1.392a49.316 49.316 0 0 0-1.147-8.75 7.936 7.936 0 0 0-.32-1.113.671.671 0 0 0-.801-.47c-.316.082-.499.385-.468.821.015.193.045.385.089.573.084.417.182.832.269 1.249.535 2.54.855 5.123.955 7.721.019.465.01.93-.028 1.394a.638.638 0 0 1-.574.621c-.334.042-.67.06-1.006.056h-10.111c-.3.004-.599-.007-.897-.034a.759.759 0 0 1-.742-.727 8.663 8.663 0 0 1-.07-.927 31.61 31.61 0 0 0-.431-4.06 2.773 2.773 0 0 0-.29-.996.635.635 0 0 0-.66-.342.645.645 0 0 0-.511.548c-.041.386-.015.776.077 1.152.206 1.223.342 2.458.405 3.698.015.27.015.542 0 .813-.033.54-.227.754-.744.827zm35.607 30.032c.26-.504.548-.585 1.057-.371.24.105.48.246.721.371.51.278 1.009.568 1.523.836.238.127.487.23.745.305a.664.664 0 0 0 .783-.34.724.724 0 0 0-.195-.853 4.332 4.332 0 0 0-.67-.457c-.536-.305-1.08-.595-1.621-.895-1.362-.755-1.38-.812-.822-2.285.166-.44.312-.886.418-1.188.05-.517-.094-.814-.368-.94a.697.697 0 0 0-.886.342c-.1.167-.187.342-.26.524-.108.246-.199.512-.304.765-.447 1.067-.661 1.151-1.636.65-.171-.087-.34-.185-.507-.279-1.862-1.025-3.719-2.056-5.583-3.077a7.495 7.495 0 0 0-1.04-.491.665.665 0 0 0-.849.291.7.7 0 0 0 .186.897c.274.213.566.402.872.565 1.994 1.107 3.99 2.214 5.984 3.306.306.165.603.347.89.543a.681.681 0 0 1 .292.822c-.345.96-.784 1.882-1.31 2.752a.592.592 0 0 1-.35.295.576.576 0 0 1-.452-.05c-.317-.142-.613-.326-.915-.491a1.878 1.878 0 0 0-.853-.327.645.645 0 0 0-.598.285.672.672 0 0 0 .029.773c.125.147.266.28.42.395.185.14.392.246.586.377 1.036.669 1.079.848.466 1.985-.091.172-.187.341-.286.511a72.22 72.22 0 0 1-7.893 11.166 2.661 2.661 0 0 0-.649.962.689.689 0 0 0 .216.738c.215.184.523.2.755.037.19-.13.366-.282.52-.455.419-.463.827-.932 1.224-1.414a73.705 73.705 0 0 0 7.17-10.397c.176-.305.339-.62.536-.91.315-.467.584-.536 1.083-.288.24.118.48.269.7.409.694.418 1.388.843 2.085 1.259.25.185.548.293.857.31a.639.639 0 0 0 .572-.331.67.67 0 0 0-.012-.673 1.773 1.773 0 0 0-.69-.61l-2.068-1.279c-.262-.162-.53-.32-.776-.506-.401-.305-.497-.57-.298-1.02.368-.862.774-1.71 1.201-2.544zM47.902 96.373c1.32 0 1.436.13 1.5 1.427.017.346.031.693.05 1.04a43.49 43.49 0 0 0 .684 5.725c.06.339.152.672.275.993.103.308.414.49.728.43a.652.652 0 0 0 .524-.67 6.56 6.56 0 0 0-.116-1.03 46.388 46.388 0 0 1-.71-6.187c0-.193-.022-.385-.02-.578 0-.904.183-1.099 1.04-1.147.376-.022.757 0 1.133-.027.226-.012.448-.061.658-.144a.583.583 0 0 0 .35-.548.556.556 0 0 0-.338-.554 1.984 1.984 0 0 0-.658-.146c-.376-.03-.757 0-1.133-.027-.827-.038-1.013-.24-1.032-1.025v-.462c.037-.575.077-1.151.118-1.727.019-.267.052-.536.057-.803 0-.154-.022-.307-.064-.455a.625.625 0 1 0-1.15-.13c-.161.308-.246.65-.249.999-.064.844-.104 1.683-.173 2.533-.073.882-.236 1.034-1.138 1.073-.339.014-.68 0-1.02 0H35.746a7.955 7.955 0 0 0-1.243.086.593.593 0 0 0-.5.553.627.627 0 0 0 .488.684c.372.065.75.098 1.127.096h6.132c2.06.02 4.11.012 6.152.021zm-6.444-48.428c1.002.92.802 1.274.02 2.148-.078.089-.154.177-.23.268-1.28 1.537-2.516 3.111-3.653 4.754a5.871 5.871 0 0 0-.531.91.7.7 0 0 0 .214.85c.267.191.63.16.862-.073.245-.252.47-.524.67-.813a72.14 72.14 0 0 1 3.603-4.652 8.81 8.81 0 0 1 .717-.778.65.65 0 0 1 .95-.035c.363.298.684.643 1.03.96.236.266.53.472.858.601a.626.626 0 0 0 .648-.147.657.657 0 0 0 .177-.648 1.653 1.653 0 0 0-.518-.77c-.383-.392-.79-.764-1.15-1.176a.688.688 0 0 1-.034-.97c.219-.276.455-.539.706-.786a70.923 70.923 0 0 1 10.125-8.715c.287-.204.564-.422.83-.653a.743.743 0 0 0 .244-.633.68.68 0 0 0-.305-.48.666.666 0 0 0-.56-.077c-.408.136-.786.35-1.113.63a69.793 69.793 0 0 0-8.488 7.042c-.81.795-1.593 1.62-2.411 2.409-.5.492-.802.475-1.326.046-.27-.221-.519-.477-.808-.674a.664.664 0 0 0-.863.046.745.745 0 0 0-.053.97c.11.165.241.315.39.446zm94.261 110.045a3.183 3.183 0 0 0-.609-.316 12.042 12.042 0 0 0-.982-.363c-.614-.174-1.065-.654-1.16-1.235-.103-.449-.246-.897-.373-1.345-.123-.413-.246-.83-.393-1.233-.085-.289-.368-.491-.695-.498-.326-.002-.615.194-.709.48a4.26 4.26 0 0 0-.223.61c-.133.448-.246.896-.378 1.345-.427 1.528-.427 1.524-1.98 2.111a4.77 4.77 0 0 0-.936.435.62.62 0 0 0-.281.511.62.62 0 0 0 .281.511c.12.09.254.166.396.225.243.114.497.21.758.287.91.174 1.594.867 1.688 1.712.125.598.289 1.187.491 1.767.072.24.173.474.3.695a.641.641 0 0 0 .54.31.69.69 0 0 0 .628-.301c.142-.253.255-.52.338-.794.209-.688.408-1.38.59-2.078.11-.54.539-.98 1.113-1.143.297-.095.588-.204.872-.325.253-.094.493-.214.716-.357a.607.607 0 0 0 .289-.504.605.605 0 0 0-.281-.507zM17.26 60.128c.337.25.712.445 1.112.58l15.26 6.649c2.525 1.1 5.05 2.199 7.578 3.296.35.151.687.345 1.086.345a.647.647 0 0 0 .647-.382.594.594 0 0 0-.166-.716 2.13 2.13 0 0 0-.468-.317c-.306-.154-.623-.29-.94-.427l-18.943-8.25-3.79-1.647A2.169 2.169 0 0 0 17.597 59a.643.643 0 0 0-.571.451.617.617 0 0 0 .235.677zm143.827 7.268a.638.638 0 0 0-.373.646c.017.189.056.375.115.555.077.255.192.498.262.753.125.462.02.734-.386.953a7.73 7.73 0 0 1-.825.36l-6.474 2.609c-.277.112-.56.217-.827.355-.492.257-.68.629-.527.989.152.36.524.476 1.075.31.323-.096.635-.239.937-.356l6.374-2.556c.234-.098.487-.203.738-.277.508-.147.761-.033.98.477.175.417.304.858.468 1.287.069.258.203.494.389.683a.611.611 0 0 0 .625.14.57.57 0 0 0 .408-.497 2.26 2.26 0 0 0-.05-.677c-.079-.33-.198-.653-.304-.979-.391-1.203-.34-1.33.795-1.79 1.424-.576 2.854-1.143 4.28-1.724.312-.128.614-.277.905-.446a.65.65 0 0 0 .304-.74.636.636 0 0 0-.637-.47 2.68 2.68 0 0 0-1.075.29c-1.5.598-2.992 1.213-4.494 1.797-.835.326-1.048.226-1.42-.555-.099-.205-.176-.42-.282-.622a1.829 1.829 0 0 0-.262-.367.623.623 0 0 0-.72-.148zM47.896 78.946c.554.143.964 0 1.073-.381.108-.381-.065-.674-.52-.907-.343-.174-.702-.31-1.06-.455l-11.027-4.43-8.566-3.442a3.327 3.327 0 0 0-1.07-.329.678.678 0 0 0-.675.395.651.651 0 0 0 .164.736c.26.227.568.396.901.495l20.127 8.094c.212.089.43.163.653.224zm65.554-40.759c.205.116.419.217.639.3.29.123.579.246.874.352.57.19 1.016.639 1.202 1.211.12.333.26.657.4.985.19.433.339.95.91.965.639.014.788-.554.997-1.017.102-.212.19-.432.26-.657a2.23 2.23 0 0 1 1.583-1.6c.3-.095.592-.213.874-.352.21-.103.407-.23.589-.377a.675.675 0 0 0 .22-.544.783.783 0 0 0-.446-.637 9.828 9.828 0 0 0-1.293-.561 2.212 2.212 0 0 1-1.505-1.529 9.259 9.259 0 0 0-.402-.985 2.177 2.177 0 0 0-.31-.492.696.696 0 0 0-1.04-.03 2.535 2.535 0 0 0-.506.924c-.702 1.76-.569 1.639-2.356 2.358a4.089 4.089 0 0 0-.736.362c-.557.361-.535.964.047 1.324zm31.4 81.982c-1.914-1.2-3.831-2.387-5.748-3.582-.254-.157-.516-.31-.756-.485-.432-.333-.51-.585-.318-1.105.193-.52.442-1.07.658-1.607a1.59 1.59 0 0 0 .162-.79.65.65 0 0 0-.37-.54.59.59 0 0 0-.631.074 1.781 1.781 0 0 0-.493.765c-.207.454-.395.92-.63 1.362a.605.605 0 0 1-.365.346.573.573 0 0 1-.49-.062 6.844 6.844 0 0 1-.683-.388c-.546-.335-1.085-.68-1.627-1.008a4.335 4.335 0 0 0-.697-.35.616.616 0 0 0-.776.273c-.15.28-.1.632.123.854.19.185.398.348.62.486.57.366 1.163.714 1.723 1.078a8.3 8.3 0 0 1 .739.517.668.668 0 0 1 .202.835c-.17.386-.384.753-.563 1.137a4.616 4.616 0 0 0-.343.852.614.614 0 0 0 .297.692.606.606 0 0 0 .73-.07c.25-.234.454-.516.602-.831.192-.33.383-.665.587-.988a.617.617 0 0 1 .535-.28c.123.03.244.07.36.122.232.119.465.262.679.4l5.75 3.57c.319.2.653.371 1 .51.29.115.617 0 .78-.275a.67.67 0 0 0-.136-.845 7.08 7.08 0 0 0-.92-.667zm1.455-72.889c.214.262.462.501.698.75a69.234 69.234 0 0 1 10.118 13.655c.169.294.332.595.528.872.111.151.255.277.421.37.39.22.899-.074.93-.628a2.47 2.47 0 0 0-.12-.433 9.476 9.476 0 0 0-.42-.804 70.444 70.444 0 0 0-7.357-10.627c-1.098-1.307-2.223-2.585-3.435-3.8-.24-.236-.465-.51-.819-.602a.65.65 0 0 0-.643.138.562.562 0 0 0-.176.616c.06.18.153.347.275.494zm-71.05 49.717h2.507c.319.015.638-.029.92-.128.194-.075.314-.211.318-.36.004-.149-.109-.288-.297-.368a1.806 1.806 0 0 0-.68-.13c-.358 0-.717-.01-1.075-.01H60.597a8.12 8.12 0 0 0-1.065.064c-.327.044-.554.243-.53.464.009.192.215.355.498.393a9.85 9.85 0 0 0 1.18.073h14.563l.012.002zm-49.49-5.017c.121-1.651.27-3.303.405-4.956h.05c0-.147 0-.295-.029-.44a.67.67 0 0 0-.582-.582.647.647 0 0 0-.675.462c-.09.319-.153.644-.189.973a59.927 59.927 0 0 0-.465 6.835c-.014 1.336-.124 1.442-1.476 1.454h-3.457a2.244 2.244 0 0 0-.988.122.58.58 0 0 0-.358.517.587.587 0 0 0 .31.55 1.6 1.6 0 0 0 .863.172h4.128c.698.042.831.169.973.822.032.217.077.432.137.643.073.259.307.44.578.448a.653.653 0 0 0 .64-.512 1.04 1.04 0 0 0 .058-.323c-.04-.651.233-1.052.892-1.202a.663.663 0 0 0 .268-.192.58.58 0 0 0-.014-.798.933.933 0 0 0-.375-.231c-.699-.15-.824-.653-.796-1.258.035-.81.042-1.656.102-2.503zm104.581-9.648a6.784 6.784 0 0 0-1.044.49.62.62 0 0 0-.244.794c.135.262.369.372.779.384.192-.056.487-.126.78-.234 1.127-.42 2.25-.85 3.374-1.277 4.17-1.579 8.337-3.16 12.503-4.743a8.54 8.54 0 0 0 1.159-.53.633.633 0 0 0 .31-.775.69.69 0 0 0-.854-.41 8.784 8.784 0 0 0-1.105.359c-2.423.916-4.854 1.837-7.293 2.761l-8.365 3.181zm-69.084 28.675a2.547 2.547 0 0 0-.913.382l-12.4 7.008a4.491 4.491 0 0 0-.643.425.66.66 0 0 0-.233.858.676.676 0 0 0 .873.251 6.53 6.53 0 0 0 .892-.449c4.035-2.28 8.07-4.563 12.105-6.847a7.41 7.41 0 0 0 .824-.548.57.57 0 0 0 .233-.449.61.61 0 0 0-.216-.482.658.658 0 0 0-.522-.15zm-5.615 41.251a1.687 1.687 0 0 1 0-1.507 4.54 4.54 0 0 0 .3-.776c.187-.697-.217-1.114-.891-.933a4 4 0 0 0-.779.294 1.72 1.72 0 0 1-1.598 0 4.344 4.344 0 0 0-.776-.294c-.629-.159-1.022.236-.87.872.09.295.197.586.317.871.078.218.14.462.218.702-.068.24-.126.475-.205.704-.078.229-.217.512-.295.778-.218.756.182 1.174.922.98.168-.042.331-.103.487-.18a2.02 2.02 0 0 1 1.991-.02c.218.109.449.186.688.23.578.116.954-.272.815-.85-.08-.3-.189-.591-.324-.87zm118.013-38.352a4.434 4.434 0 0 0-.82-.316 3521.682 3521.682 0 0 0-12.203-3.422c-.285-.078-.578-.13-.756-.168-.466 0-.748.142-.85.379-.105.311.067.645.396.764.269.119.548.217.834.293.818.235 1.632.461 2.462.691l9.54 2.668c.346.13.716.2 1.09.205.27.003.513-.15.609-.383a.557.557 0 0 0-.301-.71zm-98.59-26.44c-.314-.134-.633-.259-.951-.386a1663.71 1663.71 0 0 0-4.548-1.833 1.115 1.115 0 0 1-.8-.978c-.121-.987-.492-1.116-1.33-.489a1 1 0 0 1-1.056.172c-.603-.235-1.19-.47-1.807-.705-.28-.106-.573-.186-.764-.247-.397 0-.628.115-.756.38a.63.63 0 0 0 .238.798c.322.198.661.368 1.013.507 1.83.748 3.665 1.483 5.498 2.221 1.446.58 2.89 1.175 4.34 1.737.315.133.64.24.971.322a.673.673 0 0 0 .843-.395c.114-.31-.022-.63-.381-.85a3.65 3.65 0 0 0-.51-.254z"/><path fill="#8F82D8" fill-rule="nonzero" d="M171.535 96.002c-.348 0-.695.02-1.037.059-.279.035-.485.2-.497.396-.014.194.15.373.407.448.29.076.601.107.911.09h11.377c.27.001.54-.02.802-.065.315-.05.528-.255.5-.478-.022-.197-.234-.358-.514-.39a8.744 8.744 0 0 0-1.037-.058h-5.458c-1.822 0-3.634-.007-5.454-.002zM28.907 111.48a1.87 1.87 0 0 0 .917-.417.607.607 0 0 0 .16-.566.62.62 0 0 0-.398-.44 1.39 1.39 0 0 0-.786 0c-.475.116-.95.232-1.425.36l-8.052 2.04a2.817 2.817 0 0 0-1.056.392.604.604 0 0 0-.261.581.64.64 0 0 0 .52.526c.073.014.15.02.337.044.266-.058.639-.126 1.004-.219 1.803-.454 3.605-.91 5.405-1.367 1.208-.318 2.422-.623 3.635-.934zm-8.304-17.577c.218-.062.37-.202.397-.365.01-.192-.148-.369-.399-.446a2.878 2.878 0 0 0-.897-.087H9.289a4.95 4.95 0 0 0-.79.059c-.273.036-.477.197-.496.392-.03.224.185.428.499.472.337.044.679.065 1.021.064h10.069c.342.024.688-.006 1.011-.089zm147.703-20.085a.632.632 0 0 0-.26.778c.12.27.344.383.722.404.177-.04.442-.081.694-.16a2116.76 2116.76 0 0 0 7.536-2.365c.257-.077.5-.191.721-.339a.566.566 0 0 0 .24-.697.607.607 0 0 0-.595-.439 2.232 2.232 0 0 0-.676.093c-2.622.815-5.243 1.636-7.863 2.465-.185.062-.36.15-.519.26zm-139.428.647c.068-.253.108-.514.12-.779.022-.275-.111-.535-.328-.636-.246-.125-.532-.01-.664.268a4.986 4.986 0 0 0-.343.93 78.078 78.078 0 0 0-1.545 7.045c-.05.297-.086.598-.118.824l.01.187c0 .315.173.593.427.684.26.06.52-.104.624-.394.08-.207.14-.423.18-.646a85.657 85.657 0 0 1 1.637-7.483zM150.88 56.291a.63.63 0 0 0-.605-.286 1.48 1.48 0 0 0-.828.416c-1.95 1.64-3.895 3.282-5.838 4.928-.21.18-.388.401-.524.65-.241.43.075.99.403 1 .39.017.771-.136 1.055-.424a2310.44 2310.44 0 0 0 5.836-4.928c.206-.186.385-.405.528-.65a.642.642 0 0 0-.026-.706zm4.08-6.371a6.4 6.4 0 0 0 .97-.671 901.527 901.527 0 0 0 5.127-4.293 8.26 8.26 0 0 0 .698-.652.866.866 0 0 0 .242-.674.713.713 0 0 0-.29-.512.624.624 0 0 0-.553-.089 2.504 2.504 0 0 0-.892.57 2968.918 2968.918 0 0 0-5.49 4.6 4.116 4.116 0 0 0-.59.594.78.78 0 0 0-.06.92c.193.28.55.368.838.207zm-30.667 35.082a3.957 3.957 0 0 0-.914.226 944.386 944.386 0 0 0-6.197 2.237 5.016 5.016 0 0 0-.846.39c-.29.15-.413.472-.287.754.132.277.455.435.78.38a4.25 4.25 0 0 0 .799-.201 1257.07 1257.07 0 0 0 6.304-2.283 4.5 4.5 0 0 0 .743-.349.637.637 0 0 0 .325-.552.58.58 0 0 0-.21-.442.698.698 0 0 0-.497-.16zM59.35 82.996c.255.03.496-.131.594-.397a.664.664 0 0 0-.144-.745 2.397 2.397 0 0 0-.621-.432c-1.626-.755-3.252-1.5-4.88-2.236a3.885 3.885 0 0 0-.607-.186c-.363.015-.601.199-.66.455a.72.72 0 0 0 .202.745c.132.128.28.232.44.31 1.72.797 3.443 1.587 5.17 2.372.162.067.333.106.507.114zm31.607-57.364c.114.24.335.383.568.367.234-.018.44-.186.539-.437.221-.554.485-1.083.787-1.581a.848.848 0 0 0 0-.96 15.573 15.573 0 0 1-.793-1.581c-.289-.571-.814-.59-1.096-.032a18.846 18.846 0 0 1-.847 1.68.787.787 0 0 0-.03.766c.28.59.571 1.187.872 1.778zM66.665 98.936a1.186 1.186 0 0 0-.295-.693.83.83 0 0 0-.686-.239c-.269.016-.497.166-.573.376a2.71 2.71 0 0 0-.111.551 24.314 24.314 0 0 0 1.356 5.347c.069.167.171.324.304.463.178.216.51.31.814.232.302-.071.514-.292.526-.548 0-.21-.036-.42-.106-.624a25.82 25.82 0 0 1-1.229-4.865zM53.947 52.055a.723.723 0 0 0-.76.128.488.488 0 0 0-.1.661c.135.206.301.395.496.561a517.49 517.49 0 0 0 3.849 3.177c.212.204.491.348.8.412a.745.745 0 0 0 .556-.15.537.537 0 0 0 .21-.468c-.04-.266-.2-.508-.444-.674a2110.593 2110.593 0 0 0-4.03-3.31 2.57 2.57 0 0 0-.577-.337zM64.301 21.43a21.74 21.74 0 0 1 4.641 2.283c.246.165.55.264.868.283.446.035.873-.156 1.074-.48.202-.326.136-.717-.165-.987a1.854 1.854 0 0 0-.679-.374A20.722 20.722 0 0 0 64.44 21c-.035 0-.19.014-.345.032-.034 0-.086.032-.089.052 0 .059-.022.137.018.173a.81.81 0 0 0 .277.173zm-4.715 101.107c-.668-.947-1.342-1.89-2.022-2.83a5.397 5.397 0 0 0-.413-.503c-.13-.136-.305-.203-.256-.199-.615-.053-.969.315-.882.685.064.24.166.472.303.684a32.611 32.611 0 0 0 2.149 3.004 2.6 2.6 0 0 0 .56.512c.22.156.525.145.732-.026a.552.552 0 0 0 .2-.67 2.94 2.94 0 0 0-.37-.657zm81.017-81.116c.931.72 1.86 1.442 2.8 2.151.212.158.448.29.701.391a.723.723 0 0 0 .71-.145.543.543 0 0 0 .135-.637 1.054 1.054 0 0 0-.25-.358 34.949 34.949 0 0 0-3.42-2.633 1.065 1.065 0 0 0-.701-.186.677.677 0 0 0-.474.268.536.536 0 0 0-.073.496c.117.262.316.488.572.653zM52.365 112.28c.08.172.192.33.334.467.183.219.511.308.806.219.335-.102.54-.395.487-.7a2.877 2.877 0 0 0-.183-.645c-.37-.913-.745-1.825-1.127-2.734a3.147 3.147 0 0 0-.336-.599.76.76 0 0 0-.659-.286c-.307.02-.567.207-.648.466a.99.99 0 0 0 .038.66 289.08 289.08 0 0 0 1.288 3.153zm21.372-7.193c.16-.12.255-.29.263-.473a.558.558 0 0 0-.202-.435.767.767 0 0 0-.506-.179 1.77 1.77 0 0 0-.827.225c-.905.45-1.81.9-2.708 1.35a2.44 2.44 0 0 0-.571.41.514.514 0 0 0-.087.697c.131.239.44.365.74.302.284-.055.557-.146.81-.27.837-.405 1.666-.824 2.493-1.247.211-.111.41-.238.595-.38zm54.113 5.679a.533.533 0 0 0 .03-.708 1.99 1.99 0 0 0-.535-.441c-.942-.486-1.894-.96-2.855-1.422a3.421 3.421 0 0 0-.612-.189.899.899 0 0 0-.763.268.528.528 0 0 0 .045.707c.168.162.36.303.574.42.906.467 1.82.92 2.743 1.363.222.107.461.183.71.227a.74.74 0 0 0 .663-.225zm-7.37-14.723a2.378 2.378 0 0 0-.425-.043h-3.112a2.454 2.454 0 0 0-.524.065c-.249.056-.419.23-.419.426 0 .196.17.369.419.425.204.049.416.075.63.079.463.012.929 0 1.395 0h1.395c.214-.001.427-.018.637-.05.291-.042.508-.228.524-.453-.006-.225-.225-.415-.52-.45zm46.867 38.404c-.648-.405-1.3-.803-1.954-1.195a2.119 2.119 0 0 0-.413-.193c-.393-.137-.74-.03-.9.262a.764.764 0 0 0 .214.942c.083.08.173.15.27.213.714.438 1.43.884 2.144 1.307.18.089.368.16.56.213.26.028.51-.1.646-.328a.694.694 0 0 0 0-.668 1.408 1.408 0 0 0-.567-.553zm-11.86-25.69c-.868-.277-1.74-.533-2.46-.752a3.844 3.844 0 0 0-.396 0 .658.658 0 0 0-.6.426.58.58 0 0 0 .24.675c.114.096.248.17.394.214.762.225 1.53.45 2.302.649.184.041.377.041.561 0a.607.607 0 0 0 .442-.386.556.556 0 0 0-.116-.556.927.927 0 0 0-.367-.27zm-21.792 13.339a.71.71 0 0 0-.748.022 1.958 1.958 0 0 0-.415.334c-.423.46-.842.922-1.242 1.397-.13.158-.225.336-.281.523a.485.485 0 0 0 .145.44c.122.121.302.19.49.188a.893.893 0 0 0 .344-.09 6.274 6.274 0 0 0 1.977-2.223c.099-.227-.017-.48-.27-.591zM110.53 17a1.479 1.479 0 0 0 1.071-.46c.278-.292.422-.685.396-1.085A1.49 1.49 0 0 0 110.475 14 1.488 1.488 0 0 0 109 15.502c-.006.4.154.787.442 1.07.288.282.681.437 1.087.428zm12.883 128.003a1.5 1.5 0 1 0 .174 2.994 1.5 1.5 0 0 0-.174-2.994zM91.543 47a1.497 1.497 0 0 0 1.456-1.542 1.483 1.483 0 0 0-1.54-1.457 1.456 1.456 0 0 0-1.457 1.533 1.495 1.495 0 0 0 1.54 1.465zm-54.307-3.758c.5.514 1.008 1.019 1.524 1.515a.918.918 0 0 0 .699.24.609.609 0 0 0 .465-.341.699.699 0 0 0-.081-.759 9.937 9.937 0 0 0-1.767-1.742.865.865 0 0 0-.305-.13.571.571 0 0 0-.608.183.634.634 0 0 0-.125.64c.039.144.106.279.198.394zM64.01 165a1 1 0 1 0-.02 2 1 1 0 0 0 .02-2zm-27.771-55.991a4.449 4.449 0 0 0-1.832.54c-.285.143-.449.488-.398.839.086.388.407.646.755.608a6.555 6.555 0 0 0 1.834-.54c.282-.147.442-.49.393-.839-.067-.4-.4-.67-.752-.608zM116.645 104c-.245.002-.467.128-.567.322a.459.459 0 0 0 .06.583 4.28 4.28 0 0 0 2.108 1.087.718.718 0 0 0 .53-.128.529.529 0 0 0 .224-.435.963.963 0 0 0-.063-.254c-.246-.453-1.696-1.196-2.292-1.175zm30.811 55.003a.49.49 0 0 0-.455.517c.012.268.232.48.5.48a.51.51 0 0 0 .498-.483.493.493 0 0 0-.543-.514zM114.524 55a.506.506 0 0 0 .476-.51.507.507 0 0 0-.499-.49.534.534 0 0 0-.501.512.527.527 0 0 0 .524.488zM56.458 167.002a.49.49 0 0 0-.456.535.496.496 0 0 0 .538.461.514.514 0 0 0 .459-.544.491.491 0 0 0-.54-.452zM131.533 29a.499.499 0 0 0 .354-.18.502.502 0 0 0-.09-.719.512.512 0 0 0-.385-.095.531.531 0 0 0-.412.492.504.504 0 0 0 .16.363c.1.094.235.144.373.139zM69.517 143a.502.502 0 0 0-.12.99.507.507 0 0 0 .6-.431.497.497 0 0 0-.48-.559zm4.905-98.01a.46.46 0 0 0 .353-.07.474.474 0 0 0 .2-.302.455.455 0 0 0-.028-.362.447.447 0 0 0-.282-.225.489.489 0 0 0-.512.106.502.502 0 0 0 .269.854zM124.507 170a.527.527 0 0 0-.4.203.508.508 0 0 0-.092.432.502.502 0 0 0 .571.357.501.501 0 0 0-.08-.992zm7.497-32.525a.466.466 0 0 0 .424.52.507.507 0 0 0 .486-.216.496.496 0 0 0 .02-.527.507.507 0 0 0-.469-.251.473.473 0 0 0-.33.142.463.463 0 0 0-.131.332zm-95.567 15.533c-.323.02-.453.266-.436.555.02.321.262.426.554.437a.485.485 0 0 0 .439-.557.469.469 0 0 0-.557-.435zm51.859-54.291a1.89 1.89 0 0 0-.282-.505.576.576 0 0 0-.535-.204c-.231.056-.411.263-.457.527-.045.28-.02.569.073.833a10.042 10.042 0 0 0 1.496 3.047c.138.184.3.343.482.47.215.164.5.152.702-.032a.736.736 0 0 0 .186-.771 2.254 2.254 0 0 0-.251-.53 11.273 11.273 0 0 1-1.414-2.835zm-.004-6.836a.647.647 0 0 0 .768-.015 11.715 11.715 0 0 0 1.9-2.092.515.515 0 0 0 0-.398c-.085-.225-.324-.377-.594-.376a1.2 1.2 0 0 0-.377.093c-.889.522-1.57 1.273-1.952 2.15-.1.239.007.506.255.638zm-.957 3.098c.179.07.369-.039.464-.267.179-.362.242-.817.174-1.25-.031-.22-.15-.393-.304-.441-.152-.06-.314.012-.416.184A2.07 2.07 0 0 0 87 94.213c0 .074 0 .148.011.219.016.262.146.482.324.547zm18.125 2.037a.599.599 0 0 0-.673.308c-.11.193-.197.4-.257.614a8.443 8.443 0 0 1-2.015 3.566c-.178.191-.33.404-.452.633a.56.56 0 0 0 .074.626.687.687 0 0 0 .714.21c.32-.12.6-.323.808-.59a9.196 9.196 0 0 0 2.222-3.954c.06-.212.088-.433.119-.596a2.697 2.697 0 0 0-.033-.28.646.646 0 0 0-.507-.537zM104 91.214c-.014-.774-.913-2.157-1.43-2.212-.182-.017-.357.1-.465.308-.108.21-.135.483-.07.726.25.809.68 1.474 1.225 1.891.32.252.74-.19.74-.713zm.348 2.913c.08.232.204.448.364.641.17.198.454.28.715.204a.683.683 0 0 0 .526-.51c.025-.105.041-.212.047-.32-.017-.592-.36-1.56-.669-1.876a.784.784 0 0 0-.826-.23.666.666 0 0 0-.5.653c-.04.514.187.984.343 1.438zM95.942 60.38a.685.685 0 0 0-.653-.379c-.37.004-.72.165-.964.441a1.295 1.295 0 0 0-.316 1.01.606.606 0 0 0 1.01.39c.262-.217.494-.48.74-.722a.602.602 0 0 0 .183-.74zm65.551 124.824c-1.055-1.57-2.103-3.148-3.168-4.713-.39-.575-.633-.622-1.232-.261-.519.312-1.027.644-1.536.972-.716.466-.766.622-.294 1.34.774 1.164 1.562 2.327 2.34 3.507.132.182.243.378.332.584.11.276-.03.44-.336.395a3.492 3.492 0 0 1-.607-.165l-5.97-1.936a2.313 2.313 0 0 0-.716-.17 1.143 1.143 0 0 0-.594.184 30.39 30.39 0 0 0-.956.603c-.924.6-.955.73-.344 1.628 1.592 2.383 3.19 4.764 4.793 7.145.511.763 1.02 1.529 1.547 2.28.328.465.569.514 1.058.216a38.018 38.018 0 0 0 1.822-1.163c.463-.31.509-.56.213-1.04-.239-.398-.518-.782-.776-1.163-.595-.889-1.194-1.778-1.775-2.671-.112-.167-.238-.368-.071-.56.167-.194.356-.08.54-.033.11.028.22.063.327.097l3.147.996c.984.305 1.968.605 2.947.917.383.135.81.077 1.141-.156.315-.212.642-.405.955-.61.87-.56.91-.697.344-1.554-1.036-1.558-2.087-3.113-3.13-4.669zM83.639 199.65c-1.758-.338-3.553-.462-5.336-.638-.624-.062-.8.105-.897.715-.017.095-.024.19-.034.283a4137.726 4137.726 0 0 0-1.346 11.344c-.095.812.044.99.858 1.093.851.107 1.707.207 2.556.293.91.093 1.814.238 2.655.257a7.229 7.229 0 0 0 3.509-.8c1.75-.953 2.728-2.45 3.17-4.323.366-1.583.317-3.148-.361-4.646-.927-2.032-2.602-3.158-4.774-3.578zm1 8.417c-.534 1.126-1.748 1.791-3.01 1.648a8.805 8.805 0 0 1-.868-.104c-.46-.089-.61-.239-.587-.715.024-.531.092-1.06.153-1.588.144-1.248.298-2.496.447-3.744.01-.134.03-.266.06-.396.098-.386.244-.524.647-.529 2.392-.028 3.618 1.263 3.657 3.409a4.816 4.816 0 0 1-.5 2.02zm61.003-13.211c-.238-.554-.49-.645-1.048-.429-.407.158-.805.345-1.205.523-.838.372-1.679.734-2.505 1.127-.462.218-.543.453-.36.933.14.376.3.745.477 1.105.238.48.476.564.976.387.21-.094.425-.174.645-.24.353-.077.498.117.37.465a1.313 1.313 0 0 1-.077.153 3.118 3.118 0 0 1-4.777.84 4.346 4.346 0 0 1-1.428-3.099 2.991 2.991 0 0 1 1.005-2.439 2.945 2.945 0 0 1 2.533-.678c.318.064.63.159.929.283.502.194.698.144.952-.3.348-.592.682-1.199.989-1.813.224-.446.133-.703-.296-.96a4.717 4.717 0 0 0-1.266-.517c-1.38-.37-2.717-.192-4.032.307-2.721 1.033-4.536 3.614-4.524 6.796.024 1.307.593 2.775 1.579 4.077 1.378 1.808 3.2 2.75 5.493 2.61 1.574-.1 2.97-.646 4.067-1.838.143-.153.262-.33.405-.48.264-.28.374-.314.686-.083.26.207.617.237.907.076.433-.196.876-.376 1.305-.585.58-.278.68-.501.426-1.096a218.672 218.672 0 0 0-2.226-5.125zm-89.98-2.315c-.097-.06-.2-.114-.305-.16l-6.908-3.182a1.729 1.729 0 0 0-.596-.196.55.55 0 0 0-.533.278c-.1.163-.188.333-.267.507a4281.337 4281.337 0 0 0-3.875 8.345c-.356.765-.721 1.529-1.053 2.3-.24.537-.144.746.37 1.026.118.065.24.12.363.175l3.604 1.677c1.118.515 2.232 1.033 3.364 1.536.642.285.875.191 1.187-.444.212-.428.41-.864.606-1.303.3-.67.22-.896-.46-1.22-.814-.388-1.638-.757-2.455-1.137-.507-.24-1.014-.463-1.509-.72-.365-.19-.459-.395-.36-.747.1-.35.255-.683.459-.987a.544.544 0 0 1 .704-.22c.144.052.286.115.425.18.942.43 1.879.874 2.828 1.293.56.24.793.158 1.07-.383.189-.376.36-.762.533-1.148.329-.719.264-.925-.445-1.262-.884-.42-1.776-.827-2.662-1.242a3.206 3.206 0 0 1-.462-.24.566.566 0 0 1-.24-.797c.164-.388.24-.889.798-.94.115.001.23.026.334.075.18.067.353.149.529.24 1.131.522 2.263 1.05 3.4 1.564.504.24.747.178.973-.24a22.89 22.89 0 0 0 .853-1.82c.149-.381.052-.592-.27-.808zm47.553 17.903h-.628c-1.14.036-2.281.087-3.42.109-1.14.022-1.19-.078-1.19-1.224 0-.745.131-.88.856-.907 1.064-.041 2.13-.075 3.193-.123.623-.027.816-.242.804-.864 0-.464-.038-.929-.06-1.39-.03-.63-.238-.816-.86-.796-1.007.031-2.016.048-3.024.09-.93.035-1.1-.139-1.059-1.164.004-.097.016-.193.036-.288a.515.515 0 0 1 .423-.419c.17-.025.34-.038.512-.038 1.272-.044 2.547-.078 3.82-.126.695-.03.913-.285.885-.984-.02-.465-.031-.93-.048-1.391-.026-.726-.223-.931-.937-.929-.514 0-1.028.046-1.539.063l-5.932.172a2.17 2.17 0 0 0-.398.038c-.447.085-.616.28-.649.743v.406c.095 2.882.191 5.762.288 8.64.033 1.045.066 2.09.114 3.144.029.58.212.757.766.789.133.007.266.007.4 0l3.48-.136c1.189-.063 2.357-.063 3.534-.097a7.6 7.6 0 0 0 .909-.084.524.524 0 0 0 .49-.55c.038-.675.019-1.353-.057-2.026-.057-.498-.212-.627-.709-.658zm14.299-5.783a9.47 9.47 0 0 0-1.686-.41c-.574-.086-1.147-.16-1.718-.241a2.869 2.869 0 0 1-.917-.243.623.623 0 0 1-.406-.576.625.625 0 0 1 .38-.596c.285-.148.6-.222.92-.215a7.905 7.905 0 0 1 2.476.385c.548.155.753.048.932-.506.18-.555.38-1.177.546-1.77.165-.593.044-.853-.553-1.034a10.233 10.233 0 0 0-3.929-.414 5.596 5.596 0 0 0-1.881.533c-2.131 1.014-3.101 3.109-2.505 5.397a3.146 3.146 0 0 0 1.835 2.201c.48.214.983.37 1.497.463.737.125 1.476.227 2.213.339.336.025.664.118.966.273.49.3.482.802-.02 1.085a2.341 2.341 0 0 1-1.03.242 7.653 7.653 0 0 1-2.539-.344c-.252-.07-.501-.162-.758-.21-.377-.073-.599.024-.713.385-.233.77-.467 1.552-.662 2.339-.094.368.044.578.387.726.15.065.307.118.466.158.975.26 1.98.38 2.987.36a7.825 7.825 0 0 0 3.964-.835c1.672-.884 2.41-2.296 2.198-4.23-.153-1.618-.937-2.739-2.45-3.262zm-77.38-20.607c-1.43-.986-2.898-1.919-4.36-2.852-.51-.329-.747-.261-1.103.24-.057.079-.107.16-.16.24-2.025 3.156-4.052 6.312-6.081 9.467a6.225 6.225 0 0 0-.322.542c-.174.355-.15.575.162.813.684.52 1.405.989 2.157 1.403.31.173.512.1.755-.18a4.38 4.38 0 0 0 .296-.422c.396-.612.782-1.228 1.192-1.835.41-.607.59-.638 1.217-.257.506.31.997.646 1.514.929a4 4 0 0 0 2.545.44c2.08-.292 4.135-2.213 4.052-4.266-.022-2.063-.575-3.37-1.864-4.262zm-2.69 4.922a.972.972 0 0 1-.935 0 5.27 5.27 0 0 1-1.103-.706c-.306-.254-.346-.448-.16-.808a9.87 9.87 0 0 1 .925-1.439.522.522 0 0 1 .75-.18c.39.198.756.44 1.092.72.264.23.41.569.395.92a2.004 2.004 0 0 1-.965 1.493zM129.85 207.1l-2.022-6.548c-.381-1.23-.757-2.461-1.143-3.69-.288-.92-.428-.992-1.37-.73-.453.125-.905.256-1.357.382-1.029.292-1.104.405-.804 1.378.86 2.791 1.721 5.58 2.585 8.369.237.746.454 1.492.71 2.232.142.42.35.565.752.486.83-.17 1.647-.397 2.443-.678.256-.09.379-.29.353-.658-.036-.125-.086-.335-.147-.543zm-66.324-12.39c-.523-.191-1.06-.35-1.593-.525-1.008-.333-1.112-.285-1.444.72-.956 2.904-1.912 5.81-2.867 8.72-.188.57-.377 1.134-.546 1.708-.17.574-.073.76.471.957.544.197 1.128.385 1.69.571.821.273.975.189 1.255-.657.467-1.43.94-2.856 1.407-4.285l1.911-5.835a2.91 2.91 0 0 0 .19-.767c-.002-.317-.113-.476-.474-.608zm6.13 12.753a6.777 6.777 0 0 0-1.594-.441.405.405 0 0 0-.379.063.559.559 0 0 0-.209.376c-.186.773-.335 1.556-.468 2.179-.032.575.056.788.372.916.503.196 1.02.34 1.545.43.249.067.498-.108.566-.397.215-.805.381-1.626.498-2.458.059-.29-.087-.585-.331-.668z"/></g></svg>