<svg xmlns="http://www.w3.org/2000/svg" width="98.683" height="109.99" viewBox="0 0 98.683 109.99"><path d="M91.5,114.593v-.352c-.012-.646-.084-.717-.756-.727H89.672a2.789,2.789,0,0,0-.379.023.354.354,0,0,0-.332.308,5.076,5.076,0,0,0-.027.586v5.464c.008.763.052.808.85.815h.887c.771-.007.83-.055.832-.771v-5.345Zm-7.218-1.237a.344.344,0,0,0-.32-.338,2.045,2.045,0,0,0-.324-.017H82.447c-.649,0-.707.06-.709.777V119.4a3.28,3.28,0,0,0,.03.466.334.334,0,0,0,.287.306,2.289,2.289,0,0,0,.324.023h1.248c.614,0,.674-.071.68-.749v-5.63a3.741,3.741,0,0,0-.022-.462Zm3.595.49a.336.336,0,0,0-.284-.311,1.427,1.427,0,0,0-.27-.021H85.913a1.421,1.421,0,0,0-.27.021.342.342,0,0,0-.284.311,2.4,2.4,0,0,0-.024.35v5.861a2.044,2.044,0,0,0,.029.35.308.308,0,0,0,.252.271,2.177,2.177,0,0,0,.378.032h1.2c.658,0,.711-.062.714-.771v-5.571A4.773,4.773,0,0,0,87.88,113.846Zm5.677.01a4.883,4.883,0,0,0-.025-.526.329.329,0,0,0-.3-.306,3.247,3.247,0,0,0-.451-.023c-.707,0-.764.05-.766.8-.006,1.854,0,3.709,0,5.563a3.366,3.366,0,0,0,.027.466.339.339,0,0,0,.328.34,5.043,5.043,0,0,0,.732.014c.322-.017.421-.133.445-.478.01-.155.007-.312.007-.467v-2.57c0-.944,0-1.88,0-2.817Zm1.631-.338c-.4.015-.536.122-.581.419a2.432,2.432,0,0,0-.021.351v5.625a2.637,2.637,0,0,0,.039.467.4.4,0,0,0,.389.308,3.108,3.108,0,0,0,.443.02c.481-.011.62-.115.66-.48.015-.156.009-.312.009-.469v-5.566C96.145,113.571,95.91,113.491,95.188,113.518Zm-13.982.387a.371.371,0,0,0-.4-.378q-.861-.026-1.722,0a.372.372,0,0,0-.413.367,3.905,3.905,0,0,0-.016.468v5.508c0,.117,0,.234.008.352.028.344.14.46.5.476.4.017.808.011,1.214.009.78,0,.839-.057.843-.765v-5.568c0-.154,0-.311-.017-.468ZM73,121.6c.013.293.051.587.086.879.036.311.068.624.123.932.046.254.163.345.44.369.2.016.394.012.592.012H95.43c.158,0,.318,0,.475-.007.377-.023.486-.106.539-.46.072-.474.123-.951.178-1.426a1.975,1.975,0,0,0,.02-.33.3.3,0,0,0-.09-.229.347.347,0,0,0-.24-.1c-.216-.02-.434-.019-.652-.019H74c-.216,0-.435,0-.651.016C73.1,121.26,72.99,121.368,73,121.6Zm3.086-1.627c0,.66.074.726.722.735.749.006.812-.046.814-.819.007-1.873,0-3.747,0-5.62a2.757,2.757,0,0,0-.026-.408.342.342,0,0,0-.338-.33,4.32,4.32,0,0,0-.563-.016c-.509.012-.59.1-.611.612v2.979c0,.958,0,1.911,0,2.867Zm-.526-5.9c0-.448-.155-.555-.708-.562a2.83,2.83,0,0,0-.368.014.4.4,0,0,0-.423.347,4.884,4.884,0,0,0-.034.642v5.1c0,.2,0,.391.017.586.035.38.171.489.632.5a2.813,2.813,0,0,0,.295,0c.42-.024.553-.13.587-.477.015-.156.009-.312.009-.468v-2.637C75.566,116.112,75.575,115.092,75.561,114.077Z" transform="translate(-35.48 -54.921)" fill="none" fill-rule="evenodd"/><path d="M41.708,70.831a5.152,5.152,0,0,0,.086-.581.313.313,0,0,0-.3-.367,3.562,3.562,0,0,0-.471-.022H38.019c-.394-.028-.52-.14-.6-.518a2.111,2.111,0,0,1-.034-.231q-.15-1.348-.3-2.7a2.117,2.117,0,0,1-.02-.293.453.453,0,0,1,.411-.49c.155-.028.315-.02.47-.041a.363.363,0,0,0,.369-.381,5.152,5.152,0,0,0,.021-.535V59.326c0-.137-.006-.274,0-.412a.466.466,0,0,0-.43-.529.535.535,0,0,1-.463-.583c0-.334-.009-.667-.006-1,.006-.816.085-.894.927-.9h3.362a4.255,4.255,0,0,0,.529-.022.354.354,0,0,0,.344-.342,6.58,6.58,0,0,0,.026-.7V44.429q0-.941.035-1.88a14.291,14.291,0,0,1,.586-3.648,9.251,9.251,0,0,1,1.481-2.988,6.524,6.524,0,0,1,2.7-2.122,3.62,3.62,0,0,0,.369-.169.256.256,0,0,0,.115-.353c-.07-.162-.163-.312-.231-.475a2.117,2.117,0,0,1,3.451-2.31,2.075,2.075,0,0,1,.466,2.285c-.059.164-.16.314-.231.475a.275.275,0,0,0,.146.391,2.019,2.019,0,0,0,.215.1,6.64,6.64,0,0,1,3.295,2.9,10.077,10.077,0,0,1,1.059,2.484,14.9,14.9,0,0,1,.551,4.066V55.063c0,.8.048.839.831.842h3.362a4.765,4.765,0,0,1,.529.015.466.466,0,0,1,.485.49c.023.49.015.98,0,1.47a.49.49,0,0,1-.4.5c-.038.009-.076.019-.116.026a.417.417,0,0,0-.361.461v5.993c0,.65.029.672.687.745.481.053.614.2.572.694-.022.292-.062.584-.1.877-.079.7-.15,1.4-.246,2.1-.058.425-.2.54-.615.569-.156.011-.315,0-.472,0H58.262a4,4,0,0,0-.528.033.278.278,0,0,0-.238.294,5.837,5.837,0,0,0,.085.639Q59.78,83.026,62,95.235a3.905,3.905,0,0,0,.125.571.3.3,0,0,0,.36.231,4.688,4.688,0,0,0,.574-.132A48.4,48.4,0,0,0,43.267,1.411a47.8,47.8,0,0,0-15.376,4.7A48.455,48.455,0,0,0,13.021,17.6,47.788,47.788,0,0,0,3.488,34.172,47.3,47.3,0,0,0,1.468,55.933,47.731,47.731,0,0,0,16.539,84.89a47.29,47.29,0,0,0,13.113,8.671,48.584,48.584,0,0,0,6.473,2.362,5.385,5.385,0,0,0,.629.151.329.329,0,0,0,.407-.245,4.3,4.3,0,0,0,.113-.517q1.584-8.736,3.163-17.475l1.27-7.006ZM61.066,54.713a2.015,2.015,0,0,1-1.031-.613.288.288,0,0,1-.03-.329.307.307,0,0,1,.278-.18,1.819,1.819,0,0,1,1.115.66.679.679,0,0,1,.031.143.315.315,0,0,1-.363.317Zm1.143-4.587a1.842,1.842,0,0,1-.348.036H61.1c-.254,0-.509.006-.762,0a1.256,1.256,0,0,1-.344-.057.32.32,0,0,1,0-.613,1.02,1.02,0,0,1,.286-.046h1.7a1.007,1.007,0,0,1,.232.03.336.336,0,0,1,.281.325.352.352,0,0,1-.283.324Zm2.775-1.536a15.66,15.66,0,0,0-.213-1.868,1.628,1.628,0,0,1-.041-.582A.331.331,0,0,1,65,45.863a.337.337,0,0,1,.346.173,1.363,1.363,0,0,1,.154.509,15.388,15.388,0,0,1,.23,2.043,4.216,4.216,0,0,0,.037.468.391.391,0,0,0,.39.367,4.638,4.638,0,0,0,.471.017h5.308a4.01,4.01,0,0,0,.528-.028.327.327,0,0,0,.3-.314,5.657,5.657,0,0,0,.015-.7,22.427,22.427,0,0,0-.5-3.9c-.045-.211-.1-.42-.141-.631a1.942,1.942,0,0,1-.046-.289.359.359,0,0,1,.246-.415.354.354,0,0,1,.42.237,3.905,3.905,0,0,1,.168.562,24.025,24.025,0,0,1,.6,4.42c.011.235.02.47.049.7a.351.351,0,0,0,.347.339,3.22,3.22,0,0,0,.41.02h1.3a3.121,3.121,0,0,1,.469.031.343.343,0,0,1,.311.3.368.368,0,0,1-.323.36,1.324,1.324,0,0,1-.233.026H74.38c-.809,0-.827.025-.888.8-.039.507-.093,1.014-.144,1.52a2.787,2.787,0,0,1-.065.406c-.07.278-.246.42-.439.38s-.288-.2-.28-.457a3.234,3.234,0,0,1,.039-.351c.046-.447.1-.9.137-1.348a3.954,3.954,0,0,0,.015-.529c-.012-.279-.116-.388-.392-.416-.156-.015-.314-.012-.471-.012H66.47c-.671,0-.724.055-.786.735a15.881,15.881,0,0,1-.584,3.056,4.2,4.2,0,0,1-.171.5c-.123.268-.3.367-.5.3-.176-.069-.246-.236-.193-.5.036-.173.091-.34.141-.509a15.169,15.169,0,0,0,.54-2.707,3.535,3.535,0,0,0,.022-.527.326.326,0,0,0-.29-.322c-.116-.021-.235-.016-.352-.032a1.311,1.311,0,0,1-.284-.067.325.325,0,0,1-.206-.324.312.312,0,0,1,.206-.265.885.885,0,0,1,.228-.053c.123-.014.236-.009.353-.025.271-.037.369-.144.393-.424a3.5,3.5,0,0,0,0-.4Zm20.508-.416a35.075,35.075,0,0,0-.307-3.571c-.094-.667-.173-.723-.842-.613-.716.122-1.432.254-2.148.379a3.241,3.241,0,0,1-.467.057.385.385,0,0,1-.439-.3c-.019-.177.095-.315.3-.383a2.9,2.9,0,0,1,.4-.093l5.108-.9a1.343,1.343,0,0,1,.526-.033.344.344,0,0,1,.286.263.321.321,0,0,1-.168.345,2.192,2.192,0,0,1-.445.144c-.327.067-.66.11-.983.182-.369.082-.458.2-.42.579.072.72.171,1.439.234,2.161a32.339,32.339,0,0,1,.111,3.873c-.008.216,0,.432.009.646a.347.347,0,0,0,.287.331c.113.028.232.034.349.052a3.49,3.49,0,0,1,.4.075.353.353,0,0,1,.27.343.361.361,0,0,1-.352.329,1.169,1.169,0,0,1-.293,0c-.708-.082-.767.112-.815.735q-.106,1.289-.325,2.565a2.389,2.389,0,0,1-.144.517.306.306,0,0,1-.338.182.334.334,0,0,1-.274-.27,1.631,1.631,0,0,1,.026-.583c.1-.778.206-1.553.3-2.328a3.716,3.716,0,0,0,.029-.586.344.344,0,0,0-.317-.367,3.989,3.989,0,0,0-.467-.06q-.7-.064-1.41-.122a1.178,1.178,0,0,1-.457-.1.334.334,0,0,1-.2-.331.309.309,0,0,1,.256-.285,2.119,2.119,0,0,1,.467-.017c.51.035,1.019.08,1.528.122.574.055.716-.058.723-.691a1.793,1.793,0,0,0-.017-.293.336.336,0,0,0-.3-.312,4.22,4.22,0,0,0-.528-.028h-5.66c-.177,0-.354,0-.529-.015-.291-.03-.461-.168-.466-.359s.166-.348.446-.377a4.075,4.075,0,0,1,.412-.013h5.837C85.463,49.018,85.522,48.956,85.493,48.173ZM80.1,56.924a.617.617,0,0,1-.288,0q-.593-.166-1.18-.353a.57.57,0,0,1-.2-.116.325.325,0,0,1-.123-.367.339.339,0,0,1,.308-.231,1.856,1.856,0,0,1,.2,0c.369.122.816.258,1.261.409a.478.478,0,0,1,.182.141.317.317,0,0,1-.161.519Zm-2-27.7a1.312,1.312,0,0,1-.269.306q-1.482,1.164-2.971,2.32a.739.739,0,0,1-.537.2.32.32,0,0,1-.205-.471,1.127,1.127,0,0,1,.267-.306q1.481-1.166,2.972-2.32a.778.778,0,0,1,.421-.2.331.331,0,0,1,.308.135.284.284,0,0,1,.014.332ZM74.827,39.6a4.311,4.311,0,0,1,.557-.187.344.344,0,0,1,.43.214.337.337,0,0,1-.156.406,4.237,4.237,0,0,1-.584.277q-3.148,1.244-6.3,2.48c-.567.223-1.132.449-1.7.668-.145.056-.3.093-.393.122a.39.39,0,0,1-.392-.2.332.332,0,0,1,.123-.415,3.362,3.362,0,0,1,.526-.256q2.106-.836,4.218-1.663L74.827,39.6ZM68.134,64.431a.4.4,0,0,1-.176.054.325.325,0,0,1-.325-.376.971.971,0,0,1,.144-.314c.2-.284.418-.561.634-.837a1.049,1.049,0,0,1,.211-.2.318.318,0,0,1,.382-.013.286.286,0,0,1,.138.353,3.635,3.635,0,0,1-1.009,1.332Zm.755,6.3a.36.36,0,1,1-.075-.3.358.358,0,0,1,.075.3v0ZM64.267,44.517a2.189,2.189,0,0,1-.369.189q-1.563.621-3.125,1.235a1.955,1.955,0,0,1-.4.109.353.353,0,0,1-.388-.206.326.326,0,0,1,.143-.408,2.4,2.4,0,0,1,.419-.211q1.534-.612,3.073-1.21a1.831,1.831,0,0,1,.454-.122.327.327,0,0,1,.347.321.351.351,0,0,1-.156.308l0,0Zm-.756,31.429a.656.656,0,1,1,.471-.2.659.659,0,0,1-.471.2ZM64.494,88.2a.332.332,0,0,1-.4-.245.366.366,0,0,1,.346-.453.355.355,0,0,1,.345.333.327.327,0,0,1-.291.365h0Zm.477-31.133q-.637-.36-1.262-.735a1.262,1.262,0,0,1-.264-.227.321.321,0,0,1-.021-.381.38.38,0,0,1,.351-.144,1.364,1.364,0,0,1,.282.1q.663.375,1.314.767a.964.964,0,0,1,.246.237.325.325,0,0,1-.013.382.312.312,0,0,1-.311.122,1.139,1.139,0,0,1-.317-.118l0-.005Zm4.743,24.854a1.828,1.828,0,0,1-.359.2c-.142.066-.288.125-.436.177a.812.812,0,0,0-.558.624q-.137.571-.3,1.136a2.241,2.241,0,0,1-.17.434.335.335,0,0,1-.315.164.317.317,0,0,1-.27-.169,1.908,1.908,0,0,1-.15-.38,8.3,8.3,0,0,1-.246-.965,1.069,1.069,0,0,0-.845-.936,2.554,2.554,0,0,1-.38-.157.9.9,0,0,1-.2-.123.347.347,0,0,1,0-.558,2.3,2.3,0,0,1,.468-.238c.779-.321.779-.319.992-1.154.063-.245.123-.49.19-.735a2.541,2.541,0,0,1,.112-.334.365.365,0,0,1,.7.01c.077.22.135.448.2.673.066.245.135.49.187.735a.838.838,0,0,0,.581.675,4.917,4.917,0,0,1,.492.2,1.562,1.562,0,0,1,.3.173.339.339,0,0,1,0,.558l0-.005Zm5.77-19.055a.343.343,0,0,1-.413.139,3.288,3.288,0,0,1-.528-.257q-1.523-.9-3.042-1.8c-.123-.069-.236-.142-.359-.2a1.226,1.226,0,0,0-.19-.062.331.331,0,0,0-.283.141c-.108.163-.209.332-.311.5a1.36,1.36,0,0,1-.319.419.333.333,0,0,1-.385.036.3.3,0,0,1-.158-.35A2.312,2.312,0,0,1,69.677,61c.095-.194.208-.378.3-.573a.328.328,0,0,0-.107-.421,4.425,4.425,0,0,0-.391-.261c-.3-.184-.615-.359-.911-.544a1.9,1.9,0,0,1-.328-.245.355.355,0,0,1-.065-.432.334.334,0,0,1,.411-.137,2.31,2.31,0,0,1,.369.176c.29.165.576.339.86.509a3.6,3.6,0,0,0,.361.2.316.316,0,0,0,.452-.143c.123-.223.224-.458.333-.687a.9.9,0,0,1,.261-.386.324.324,0,0,1,.334-.038.327.327,0,0,1,.2.273.771.771,0,0,1-.086.4c-.114.271-.246.537-.348.811a.391.391,0,0,0,.169.558,3.952,3.952,0,0,0,.4.245c1.014.6,2.028,1.2,3.041,1.807a3.779,3.779,0,0,1,.481.336.327.327,0,0,1,.084.428l0-.005Zm.615,19.5a.338.338,0,1,1,.345-.329.352.352,0,0,1-.342.334l0-.005Zm6.327-15.827a4.674,4.674,0,0,0,.4.252l1.063.634a.9.9,0,0,1,.353.3.326.326,0,0,1-.286.5.829.829,0,0,1-.439-.154c-.356-.208-.711-.419-1.066-.628-.123-.07-.235-.144-.358-.2a.366.366,0,0,0-.555.144c-.1.144-.184.3-.274.453a36.7,36.7,0,0,1-3.669,5.178c-.2.245-.411.474-.625.7a1.426,1.426,0,0,1-.267.227.32.32,0,0,1-.385-.018.338.338,0,0,1-.111-.367,1.321,1.321,0,0,1,.332-.479,35.521,35.521,0,0,0,2.376-3q.887-1.246,1.663-2.566c.05-.085.1-.17.146-.255.314-.566.291-.655-.238-.989-.1-.062-.206-.122-.3-.187a1.312,1.312,0,0,1-.215-.2.327.327,0,0,1-.015-.385.334.334,0,0,1,.306-.142.976.976,0,0,1,.436.163,4.717,4.717,0,0,0,.468.245.3.3,0,0,0,.411-.123,7.553,7.553,0,0,0,.67-1.371.335.335,0,0,0-.149-.409,5.186,5.186,0,0,0-.456-.271c-1.02-.55-2.041-1.095-3.061-1.646a3.109,3.109,0,0,1-.446-.282.343.343,0,0,1,.339-.592,3.92,3.92,0,0,1,.532.245q1.431.763,2.856,1.533c.086.046.172.1.26.139.5.245.608.208.837-.324.054-.122.1-.256.156-.381a1.781,1.781,0,0,1,.133-.261.361.361,0,0,1,.453-.17c.14.062.214.211.188.468-.054.151-.128.367-.214.592-.285.735-.277.762.42,1.138.277.149.555.294.83.446a2.221,2.221,0,0,1,.343.228.355.355,0,0,1,.1.425.343.343,0,0,1-.4.169,2.042,2.042,0,0,1-.381-.152c-.263-.134-.519-.278-.779-.416-.123-.065-.246-.133-.369-.185-.261-.107-.408-.066-.541.185-.219.415-.427.838-.615,1.266a.355.355,0,0,0,.148.512Zm4.235,2.984a.348.348,0,0,1-.333.164,1.657,1.657,0,0,1-.289-.107c-.369-.212-.738-.435-1.106-.654a.969.969,0,0,1-.139-.106.375.375,0,0,1-.11-.472.368.368,0,0,1,.464-.131,1.1,1.1,0,0,1,.213.1q.507.3,1.007.6a.706.706,0,0,1,.294.277.338.338,0,0,1,0,.335Zm3.2-9.912a.338.338,0,0,1-.321.218,1.6,1.6,0,0,1-.576-.116l-5.024-1.518c-.433-.131-.867-.26-1.3-.393a2.878,2.878,0,0,1-.44-.167.354.354,0,0,1-.209-.435c.054-.135.207-.221.449-.216.094.022.246.051.4.1q3.219.971,6.435,1.947a2.243,2.243,0,0,1,.433.18.327.327,0,0,1,.158.4h-.006ZM93.9,49.442a3.171,3.171,0,0,1,.526.043.31.31,0,0,1,.26.283.327.327,0,0,1-.253.348,1.7,1.7,0,0,1-.407.048H88.257a1.066,1.066,0,0,1-.463-.066.336.336,0,0,1-.206-.326.307.307,0,0,1,.252-.288,3.274,3.274,0,0,1,.526-.043h2.766c.923,0,1.851-.005,2.774,0l-.006,0ZM91.142,36.5a.312.312,0,0,1,.3.231.3.3,0,0,1-.123.368,1.383,1.383,0,0,1-.369.179q-1.925.63-3.854,1.247c-.129.042-.264.064-.355.085a.367.367,0,0,1-.369-.213.339.339,0,0,1,.137-.427,1.043,1.043,0,0,1,.261-.132q2.009-.654,4.021-1.3a1.1,1.1,0,0,1,.345-.038Zm-7.591-.91c.2.4.307.453.745.285.788-.3,1.571-.613,2.357-.924a1.429,1.429,0,0,1,.564-.149.332.332,0,1,1,.175.622,3.808,3.808,0,0,1-.475.229c-.748.3-1.5.591-2.245.887-.6.236-.622.3-.417.92a4.76,4.76,0,0,1,.159.5,1.113,1.113,0,0,1,.026.347.294.294,0,0,1-.214.256.325.325,0,0,1-.328-.072.789.789,0,0,1-.2-.352c-.081-.221-.149-.447-.246-.661-.114-.266-.246-.325-.514-.245-.131.038-.259.092-.387.142L79.2,38.693c-.163.064-.327.134-.492.182-.289.085-.485.024-.564-.159s.019-.376.277-.508c.14-.071.288-.122.434-.182l3.4-1.341a4.072,4.072,0,0,0,.433-.185.365.365,0,0,0,.2-.49c-.037-.131-.1-.256-.138-.387a1.263,1.263,0,0,1-.06-.286.332.332,0,0,1,.573-.252.955.955,0,0,1,.138.189c.055.095.1.2.148.31v.006ZM79.3,24.951a2.057,2.057,0,0,1,.3-.281q1.39-1.089,2.784-2.176a1.291,1.291,0,0,1,.452-.27.335.335,0,0,1,.428.284.394.394,0,0,1-.123.319c-.113.108-.231.212-.354.308q-1.3,1.018-2.6,2.03a3.341,3.341,0,0,1-.491.318.336.336,0,0,1-.424-.1.349.349,0,0,1,.029-.441v.006Zm-3.81-.886a.326.326,0,0,1,.328-.072.964.964,0,0,1,.418.314c.615.631,1.192,1.3,1.753,1.981a36.746,36.746,0,0,1,3.754,5.539c.076.137.151.276.214.419a1.427,1.427,0,0,1,.062.226.334.334,0,0,1-.475.326.674.674,0,0,1-.215-.192c-.1-.144-.183-.3-.269-.454A36.045,36.045,0,0,0,75.9,25.034c-.123-.13-.246-.255-.356-.391a.792.792,0,0,1-.134-.258.3.3,0,0,1,.087-.327l0,.006Zm-3.111-3.1a.483.483,0,0,1,.345.1,17.59,17.59,0,0,1,1.683,1.457.583.583,0,0,1,.123.2.327.327,0,0,1-.415.431,1.483,1.483,0,0,1-.345-.216c-.463-.391-.919-.789-1.377-1.186a.82.82,0,0,1-.282-.367.325.325,0,0,1,.272-.425ZM67.856,14.57a.378.378,0,0,1,.433.326.366.366,0,0,1-.618.315.378.378,0,0,1-.121-.266.4.4,0,0,1,.306-.375ZM66.713,33.786c-.416-.444-.86-.868-1.282-1.3a1.049,1.049,0,0,1-.289-.367.335.335,0,0,1,.044-.333.347.347,0,0,1,.369-.109,1.088,1.088,0,0,1,.429.3c.47.474.944.945,1.405,1.426.482.5.52.516,1.06.094q2.975-2.317,5.945-4.641c.155-.122.307-.245.472-.352a.918.918,0,0,1,.324-.122.321.321,0,0,1,.343.322.421.421,0,0,1-.145.311q-.195.18-.406.341l-5.756,4.5c-.154.122-.314.236-.461.367-.3.261-.316.387-.109.7.076.115.162.222.246.332a23.228,23.228,0,0,1,1.684,2.624,3.485,3.485,0,0,1,.246.532.341.341,0,0,1-.595.331,3.007,3.007,0,0,1-.246-.4,24.645,24.645,0,0,0-1.542-2.438c-.116-.159-.229-.32-.353-.47-.285-.348-.411-.368-.785-.081-.614.465-1.208.941-1.811,1.412-.9.7-1.8,1.4-2.692,2.106-.537.424-.538.481-.14,1.045.18.256.36.514.529.778a1.645,1.645,0,0,1,.177.368.314.314,0,0,1-.115.367.338.338,0,0,1-.434-.028,2.084,2.084,0,0,1-.262-.315c-.161-.223-.311-.453-.471-.676a2.591,2.591,0,0,0-.258-.321.344.344,0,0,0-.478-.066,4.24,4.24,0,0,0-.381.276q-.743.582-1.487,1.162a4.25,4.25,0,0,1-.38.274c-.222.135-.413.122-.538-.02s-.1-.367.112-.567c.1-.093.207-.181.317-.263l1.39-1.087c.077-.062.157-.123.232-.181.423-.35.433-.437.087-.85a1.077,1.077,0,0,1-.258-.389.323.323,0,0,1,.076-.326.329.329,0,0,1,.324-.088.713.713,0,0,1,.389.254c.491.565.638.42,1.118.044q2.132-1.672,4.27-3.339c.622-.489.632-.564.086-1.145h0Zm-7.831-5.417a.413.413,0,0,1,.383-.4.393.393,0,0,1,.017.783.408.408,0,0,1-.4-.38v0Zm-.738-9.362a2.054,2.054,0,0,1,.369-.18c.895-.358.829-.3,1.18-1.174a1.267,1.267,0,0,1,.253-.459.349.349,0,0,1,.521.015,1.08,1.08,0,0,1,.155.245,4.56,4.56,0,0,1,.2.49,1.1,1.1,0,0,0,.753.761,4.972,4.972,0,0,1,.648.28.389.389,0,0,1,.224.317.335.335,0,0,1-.111.271,1.59,1.59,0,0,1-.3.187,3.082,3.082,0,0,1-.437.175,1.113,1.113,0,0,0-.793.8,2.418,2.418,0,0,1-.13.327c-.1.23-.18.513-.5.506-.286-.007-.361-.264-.456-.48-.07-.162-.14-.324-.2-.49a.945.945,0,0,0-.6-.6c-.148-.051-.292-.114-.437-.175a2.3,2.3,0,0,1-.32-.149.361.361,0,0,1-.021-.658l0,0ZM56.954,7.356a.639.639,0,0,1,.489.161.632.632,0,0,1,.21.469.643.643,0,0,1-.174.483.65.65,0,0,1-.472.2.658.658,0,0,1-.674-.667.637.637,0,0,1,.623-.649l0,0ZM46.811,12a9.082,9.082,0,0,0,.511-.858.362.362,0,0,1,.663.016,7.627,7.627,0,0,0,.479.807.379.379,0,0,1,0,.49,5.169,5.169,0,0,0-.475.807.385.385,0,0,1-.326.223.369.369,0,0,1-.343-.187c-.182-.3-.358-.613-.528-.913A.348.348,0,0,1,46.811,12Zm.369,11.025a.644.644,0,0,1,.354,1.187.634.634,0,0,1-.971-.545.612.612,0,0,1,.624-.636l-.007-.006Zm-8.429-.39a.318.318,0,0,1,.222.413.333.333,0,0,1-.394.262.35.35,0,1,1,.173-.675ZM33.27,11.017c0-.012.027-.03.044-.032.076-.011.154-.017.171-.02a8.659,8.659,0,0,1,2.778.7.9.9,0,0,1,.337.228.536.536,0,0,1-.451.894.761.761,0,0,1-.43-.173,10.123,10.123,0,0,0-2.3-1.393.4.4,0,0,1-.138-.105c-.026-.022-.019-.07-.015-.1Zm-1.58,21.806a.4.4,0,0,0,.624,0c.148-.128.283-.272.421-.412a23.41,23.41,0,0,1,3.951-3.151q.2-.128.407-.24a.751.751,0,0,1,.221-.076.324.324,0,0,1,.355.153.327.327,0,0,1-.029.384,1.554,1.554,0,0,1-.462.359,22.669,22.669,0,0,0-3.054,2.3c-.369.327-.715.671-1.069,1.01a1.98,1.98,0,0,0-.234.264.33.33,0,0,0,.011.433,3.326,3.326,0,0,0,.325.339l4.019,3.719a1.091,1.091,0,0,0,.879.391.291.291,0,0,1,.342.321,1.058,1.058,0,0,0,.461.839c.45.409.894.826,1.338,1.241a.977.977,0,0,1,.288.367.311.311,0,0,1-.051.329.326.326,0,0,1-.318.113.889.889,0,0,1-.447-.269l-1.3-1.2a3.819,3.819,0,0,0-.309-.27.322.322,0,0,0-.515.053c-.3.368-.567.75-.847,1.129-.105.141-.2.293-.316.422a.343.343,0,0,1-.585-.352,1.8,1.8,0,0,1,.193-.367c.255-.367.519-.735.78-1.1.08-.112.17-.217.246-.332a.337.337,0,0,0-.03-.434,4.073,4.073,0,0,0-.33-.336L32.6,34.694a2.953,2.953,0,0,0-.268-.228,1.416,1.416,0,0,0-.22-.105.775.775,0,0,0-.212.094,4,4,0,0,0-.359.388,23.429,23.429,0,0,0-2.9,4.555,3.727,3.727,0,0,1-.288.511.335.335,0,0,1-.42.111.345.345,0,0,1-.178-.4,4.053,4.053,0,0,1,.236-.6A23.653,23.653,0,0,1,30.841,34.5c.135-.17.278-.332.4-.507a.376.376,0,0,0-.042-.575c-.159-.173-.337-.329-.51-.49q-1.49-1.381-2.983-2.758c-.116-.106-.229-.216-.336-.329a.786.786,0,0,1-.131-.193.32.32,0,0,1,.054-.381.328.328,0,0,1,.381-.072,1.65,1.65,0,0,1,.511.389l3.24,3c.086.081.169.167.261.245Zm7.3,13.021a.347.347,0,0,1-.435.206,3.345,3.345,0,0,1-.5-.168c-.748-.3-1.495-.6-2.242-.905-.946-.385-1.893-.768-2.839-1.158a3.322,3.322,0,0,1-.524-.265.33.33,0,0,1-.123-.415c.067-.138.186-.195.391-.2.1.032.246.073.395.128l.933.368a.512.512,0,0,0,.546-.089c.432-.327.624-.26.687.254a.58.58,0,0,0,.413.51q1.176.474,2.349.955c.164.066.329.131.491.2a1.9,1.9,0,0,1,.263.132.359.359,0,0,1,.2.438v.006Zm-20.5,3.782a3.338,3.338,0,0,1-.585-.049.32.32,0,0,1-.253-.348.3.3,0,0,1,.26-.282,4.17,4.17,0,0,1,.645-.044h6.487c.466-.02.553-.1.591-.546.036-.429.057-.858.09-1.29a1.1,1.1,0,0,1,.128-.509.326.326,0,0,1,.6.067.82.82,0,0,1,.033.231c0,.136-.02.273-.03.409l-.062.88a2.238,2.238,0,0,0,0,.235c.01.406.107.5.536.522.2.01.393,0,.589.013a1.037,1.037,0,0,1,.341.075.283.283,0,0,1,.176.282.3.3,0,0,1-.182.28,1.126,1.126,0,0,1-.341.073c-.2.013-.394,0-.589.013-.445.025-.536.122-.54.584,0,.1.006.2.01.294a23.174,23.174,0,0,0,.369,3.151,3.276,3.276,0,0,1,.06.524.334.334,0,0,1-.65.122,2.763,2.763,0,0,1-.142-.505,21.74,21.74,0,0,1-.355-2.916c-.01-.176-.017-.353-.026-.529-.033-.66-.094-.723-.779-.726H21.68c-1.072-.01-2.133-.008-3.194-.011Zm-4.424-.168a.486.486,0,0,1,.2.122.309.309,0,0,1,.007.424.35.35,0,0,1-.141.1.55.55,0,0,0-.471.638.555.555,0,0,1-.031.172.345.345,0,0,1-.338.272.325.325,0,0,1-.3-.238,2.638,2.638,0,0,1-.072-.342c-.075-.347-.151-.414-.514-.436-.157-.01-.315,0-.472,0H10.216a.84.84,0,0,1-.456-.091A.312.312,0,0,1,9.6,49.79a.307.307,0,0,1,.189-.274,1.182,1.182,0,0,1,.521-.065h1.825c.714-.006.772-.063.78-.772a31.971,31.971,0,0,1,.246-3.629,3.223,3.223,0,0,1,.1-.517.342.342,0,0,1,.356-.245.355.355,0,0,1,.307.308c.012.077.01.156.015.234h-.026c-.072.877-.15,1.754-.214,2.632-.032.449-.035.9-.054,1.347-.006.308.051.57.427.65h-.006Zm.188-6.826a.347.347,0,0,1-.385.2.367.367,0,0,1-.263-.353l-.006-.1c.02-.116.041-.272.072-.425a34.756,34.756,0,0,1,.951-3.636,2.27,2.27,0,0,1,.211-.48.325.325,0,0,1,.41-.139.32.32,0,0,1,.2.329,1.6,1.6,0,0,1-.074.4A38.124,38.124,0,0,0,14.358,42.3a1.6,1.6,0,0,1-.108.334Zm.076-6.384a1.245,1.245,0,0,1-.459-.255.337.337,0,0,1-.084-.378.345.345,0,0,1,.344-.2,1.679,1.679,0,0,1,.545.169q2.186.884,4.368,1.771l5.623,2.284c.181.075.369.145.54.234.232.122.32.29.265.467s-.264.269-.547.2a2.686,2.686,0,0,1-.333-.122L14.326,36.249ZM18.982,56.7a3.786,3.786,0,0,1-.952.245.369.369,0,0,1-.392-.276.352.352,0,0,1,.207-.379,2.567,2.567,0,0,1,.951-.245.345.345,0,0,1,.391.271.355.355,0,0,1-.21.384Zm7.713-.49a.329.329,0,1,1,.6-.095,1.789,1.789,0,0,1,.154.315q.264.717.514,1.437a1.67,1.67,0,0,1,.084.339.337.337,0,0,1-.223.367.325.325,0,0,1-.369-.115.838.838,0,0,1-.153-.245q-.3-.826-.588-1.659a.594.594,0,0,1-.023-.341l.006-.005Zm.9-14.59a.963.963,0,0,1-.246-.153.329.329,0,0,1-.113-.367.372.372,0,0,1,.369-.224,2.326,2.326,0,0,1,.338.092q1.362.546,2.721,1.1a1.352,1.352,0,0,1,.347.213.3.3,0,0,1,.08.368.321.321,0,0,1-.33.2.949.949,0,0,1-.285-.061q-1.447-.569-2.885-1.16l.006-.005Zm2.59-12.188a.332.332,0,0,1-.38.355.78.78,0,0,1-.4-.236q-.956-.911-1.908-1.825a1.47,1.47,0,0,1-.246-.322.311.311,0,0,1,.049-.38.322.322,0,0,1,.377-.073,1.237,1.237,0,0,1,.29.194q1,.946,2,1.9a.591.591,0,0,1,.211.392l.006-.005Zm-8.645-5.577a.339.339,0,0,1,.435-.023c.146.1.272.225.408.336.264.213.416.217.668-.023.413-.392.808-.8,1.217-1.2a35.1,35.1,0,0,1,4.282-3.5,1.689,1.689,0,0,1,.562-.314.34.34,0,0,1,.436.277.367.367,0,0,1-.123.315,5.237,5.237,0,0,1-.419.325,35.646,35.646,0,0,0-5.114,4.335,4.283,4.283,0,0,0-.356.391.34.34,0,0,0,.017.483c.182.2.388.39.58.584a.822.822,0,0,1,.262.383.324.324,0,0,1-.09.322.319.319,0,0,1-.327.073,1.139,1.139,0,0,1-.433-.3c-.175-.158-.337-.329-.52-.478a.33.33,0,0,0-.48.017,4.5,4.5,0,0,0-.361.387q-.956,1.119-1.818,2.314a3.216,3.216,0,0,1-.338.4.34.34,0,0,1-.435.036.344.344,0,0,1-.108-.422,2.934,2.934,0,0,1,.268-.453c.579-.817,1.2-1.6,1.844-2.364.038-.045.076-.089.116-.134.394-.435.491-.613-.01-1.068a1.173,1.173,0,0,1-.19-.222.366.366,0,0,1,.027-.483Zm-2.15-2a.308.308,0,0,1,.321-.094.465.465,0,0,1,.161.067,5.148,5.148,0,0,1,.933.889.346.346,0,0,1,.043.387.321.321,0,0,1-.246.174.492.492,0,0,1-.369-.122q-.408-.38-.8-.773a.545.545,0,0,1-.112-.2.316.316,0,0,1,.074-.324ZM9.006,30.676a.334.334,0,0,1,.288-.224,1.084,1.084,0,0,1,.531.136l1.937.866,9.681,4.335c.162.072.325.143.481.224a1.1,1.1,0,0,1,.24.167.319.319,0,0,1,.085.376.329.329,0,0,1-.331.2,1.382,1.382,0,0,1-.555-.181q-1.937-.863-3.873-1.732l-7.8-3.49a2.05,2.05,0,0,1-.567-.305.334.334,0,0,1-.117-.369v0ZM5.333,48.451a2.8,2.8,0,0,1-.526-.046.321.321,0,0,1-.257-.346.314.314,0,0,1,.256-.286,1.8,1.8,0,0,1,.407-.043h5.363a1.065,1.065,0,0,1,.463.064.342.342,0,0,1,.205.326.329.329,0,0,1-.2.267,1.182,1.182,0,0,1-.521.065H7.867c-.845,0-1.69,0-2.534,0Zm4.712,10.565c-.1-.012-.136-.016-.175-.024a.335.335,0,0,1-.269-.277.321.321,0,0,1,.135-.306,1.442,1.442,0,0,1,.547-.207l4.168-1.074c.246-.064.491-.123.738-.19a.711.711,0,0,1,.407,0,.325.325,0,0,1,.123.53.961.961,0,0,1-.475.219c-.628.164-1.256.325-1.884.49l-2.8.721c-.187.051-.38.087-.518.118Zm8.887,20.721c-.188-.007-.344-.075-.356-.282a.3.3,0,0,1,.28-.358.3.3,0,0,1,.359.279.31.31,0,0,1-.283.36Zm.835-10.365a3.353,3.353,0,0,0,.253.4c.418.569.84,1.137,1.259,1.7a1.206,1.206,0,0,1,.266.452.332.332,0,0,1-.51.367,1.524,1.524,0,0,1-.4-.423q-.667-.9-1.32-1.8c-.378-.527-.45-.55-.989-.2q-2.138,1.413-4.27,2.835c-.13.087-.259.178-.394.256a1.214,1.214,0,0,1-.268.123.318.318,0,0,1-.369-.123.326.326,0,0,1,0-.385,1.335,1.335,0,0,1,.446-.376l2.654-1.764,1.72-1.142a4.053,4.053,0,0,0,.337-.238.361.361,0,0,0,.123-.517q-.457-.823-.944-1.628a.347.347,0,0,0-.5-.153c-.145.058-.283.139-.432.186a.338.338,0,0,1-.329-.579c.132-.117.287-.207.424-.316a.35.35,0,0,0,.141-.464c-.067-.183-.154-.359-.238-.537a36.243,36.243,0,0,1-1.966-5.1,4.262,4.262,0,0,1-.143-.629.334.334,0,0,1,.221-.367.342.342,0,0,1,.433.209,4.279,4.279,0,0,1,.2.553,35.9,35.9,0,0,0,1.949,5.039c.345.722.4.735,1.09.335.884-.512,1.764-1.029,2.648-1.54a3.6,3.6,0,0,1,.529-.245.311.311,0,0,1,.369.123.344.344,0,0,1-.029.433,1.69,1.69,0,0,1-.477.342l-2.494,1.453c-.136.079-.274.156-.407.239-.428.27-.464.376-.231.8.2.367.41.714.615,1.07a3.208,3.208,0,0,0,.224.344.349.349,0,0,0,.516.1c.155-.084.3-.186.447-.284L25.5,64.214a1.854,1.854,0,0,1,.615-.333.33.33,0,0,1,.406.314.382.382,0,0,1-.148.307q-.231.184-.475.345-2.794,1.861-5.592,3.718a5.288,5.288,0,0,0-.434.305.343.343,0,0,0-.106.5Zm8.84,10.347a1.465,1.465,0,0,1-.389-.13,1.147,1.147,0,0,0-1.126.011,1.332,1.332,0,0,1-.275.1c-.418.109-.644-.122-.521-.551.043-.149.123-.29.168-.437s.077-.261.115-.4c-.041-.135-.075-.266-.123-.395q-.1-.241-.179-.49c-.086-.368.136-.583.492-.49a2.464,2.464,0,0,1,.438.166.977.977,0,0,0,.9,0,2.236,2.236,0,0,1,.44-.166c.384-.1.614.133.5.524a2.544,2.544,0,0,1-.17.436.947.947,0,0,0,0,.848,2.673,2.673,0,0,1,.183.49.367.367,0,0,1-.461.478Zm.913,6.738a.395.395,0,1,1,.353-.418.4.4,0,0,1-.353.423v-.005Zm1.49-22.541a.307.307,0,0,1-.383.014,1.39,1.39,0,0,1-.294-.282A17.881,17.881,0,0,1,29.206,62a1.369,1.369,0,0,1-.159-.376c-.045-.2.14-.406.463-.376-.026,0,.066.034.134.109a2.913,2.913,0,0,1,.214.283q.533.775,1.059,1.555a1.618,1.618,0,0,1,.194.359.312.312,0,0,1-.1.37v-.006Zm1.389-6.3a3.905,3.905,0,0,1-.435.3q-3.193,1.869-6.39,3.733a3.471,3.471,0,0,1-.472.245.351.351,0,0,1-.461-.137.367.367,0,0,1,.123-.468,2.309,2.309,0,0,1,.339-.231q3.273-1.914,6.546-3.822a1.323,1.323,0,0,1,.482-.208.34.34,0,0,1,.388.353.315.315,0,0,1-.121.243ZM33.2,86.024a.573.573,0,1,1,.424-.171.582.582,0,0,1-.424.177v-.006Zm1.412-31.513a.326.326,0,0,1-.369-.128.868.868,0,0,1-.138-.257,16.026,16.026,0,0,1-.615-2.969,1.885,1.885,0,0,1,.05-.306.292.292,0,0,1,.26-.208.339.339,0,0,1,.311.133.74.74,0,0,1,.134.384,17.036,17.036,0,0,0,.558,2.7,1.275,1.275,0,0,1,.048.346.328.328,0,0,1-.24.316v-.006Zm-3.152-4.5a3.314,3.314,0,0,1-.583-.054.306.306,0,0,1-.246-.29.326.326,0,0,1,.262-.343,2.694,2.694,0,0,1,.526-.048H39.5c.177,0,.354,0,.531.009a.634.634,0,0,1,.335.1.315.315,0,0,1-.01.538.852.852,0,0,1-.454.094H35.532q-2.034.008-4.067.005v-.006Zm5.008,23.709a.443.443,0,1,0,0,.006Zm.369-18.657a1.343,1.343,0,0,1-.378.148.3.3,0,0,1-.345-.164.313.313,0,0,1,.041-.379,1.158,1.158,0,0,1,.267-.223c.419-.252.842-.49,1.264-.735a.742.742,0,0,1,.386-.123.329.329,0,0,1,.33.334.358.358,0,0,1-.123.257A1.919,1.919,0,0,1,38,54.39c-.388.233-.773.461-1.166.682l0-.006Z" transform="translate(-0.486 -0.486)" fill="none" fill-rule="evenodd"/><path d="M55.386,85.232a.336.336,0,0,0-.324.295,1.329,1.329,0,0,0-.009.361.338.338,0,0,0,.3.324,3.86,3.86,0,0,0,.523.029H76.849a3.42,3.42,0,0,0,.523-.034.311.311,0,0,0,.271-.281,1.367,1.367,0,0,0,.009-.361.337.337,0,0,0-.3-.323,6.027,6.027,0,0,0-.639-.029H56.03A6.229,6.229,0,0,0,55.386,85.232Zm8.683-15c-.135.012-.272.01-.407.01H61.039a3.947,3.947,0,0,0-.523.03.344.344,0,0,0-.285.255,1.054,1.054,0,0,0-.027.509.3.3,0,0,0,.266.267,5.42,5.42,0,0,0,.639.033H71.542c.194,0,.389,0,.582-.018a.376.376,0,0,0,.391-.409,1.306,1.306,0,0,0,0-.229c-.029-.265-.115-.358-.385-.429-.112-.028-.229-.041-.337-.079a.3.3,0,0,1-.207-.255.311.311,0,0,1,.181-.329,2.86,2.86,0,0,1,.327-.119.326.326,0,0,0,.23-.358,2.9,2.9,0,0,0-.052-.4,10.738,10.738,0,0,0-.4-1.493,8.264,8.264,0,0,0-1.386-2.561,5.29,5.29,0,0,0-3.011-1.938,5.222,5.222,0,0,0-5.5,2.256.889.889,0,0,0-.1.2.2.2,0,0,0,.009.167.211.211,0,0,0,.131.106,4.194,4.194,0,0,0,.461.044c.194.012.39,0,.582.026a.334.334,0,0,1,.333.333.361.361,0,0,1-.346.329,3.781,3.781,0,0,1-.464.021c-.311,0-.622,0-.933.008a.526.526,0,0,0-.457.209,1.79,1.79,0,0,0-.29.74.259.259,0,0,0,.21.3,2.538,2.538,0,0,0,.4.033c.291.006.583,0,.875.007a1.535,1.535,0,0,1,.4.063.286.286,0,0,1,.2.26.325.325,0,0,1-.2.319,1.157,1.157,0,0,1-.459.058H61.093c-.463.013-.568.106-.66.557a1.989,1.989,0,0,0-.042.4.3.3,0,0,0,.275.316,3.949,3.949,0,0,0,.523.026h2.448c.136,0,.272,0,.407.009.332.027.5.162.486.375s-.164.322-.462.347ZM67.894,60.3A1.274,1.274,0,0,0,66.628,59a1.332,1.332,0,0,0-1.3,1.336,1.271,1.271,0,0,0,1.267,1.234,1.312,1.312,0,0,0,1.3-1.274Zm-1.672.042a.325.325,0,0,1-.543-.21.7.7,0,0,1,.688-.781.367.367,0,0,1,.349.2.325.325,0,0,1-.1.4C66.483,60.08,66.367,60.218,66.222,60.338ZM60.185,78.549v5.218c0,.908.021.928.9.93h3.9a4.266,4.266,0,0,0,.451-.016c.266-.03.39-.139.4-.414.014-.779.008-1.559.005-2.339a.472.472,0,0,0-.353-.483c-.143-.049-.288-.1-.428-.155a3.383,3.383,0,0,1-.013-6.125,2.785,2.785,0,0,1,.375-.135.55.55,0,0,0,.425-.614v-1.26c0-.738-.053-.793-.735-.8h-4.12c-.761,0-.8.04-.8.849Zm3.015,2.73a.348.348,0,0,1-.1.382.3.3,0,0,1-.373.015,1.106,1.106,0,0,1-.255-.232,4.859,4.859,0,0,1-.794-1.509.793.793,0,0,1-.039-.413.325.325,0,0,1,.242-.261.317.317,0,0,1,.284.1.923.923,0,0,1,.149.25,5.457,5.457,0,0,0,.749,1.409,1.1,1.1,0,0,1,.134.257h0Zm-1.131-5.552A2.583,2.583,0,0,1,63,74.491a.492.492,0,0,1,.179-.053.3.3,0,0,1,.283.216.355.355,0,0,1,0,.229,6.466,6.466,0,0,1-.9,1.2.266.266,0,0,1-.365.009.316.316,0,0,1-.121-.367Zm-.37.961a.286.286,0,0,1,.3-.1.3.3,0,0,1,.224.24.9.9,0,0,1-.128.68.3.3,0,0,1-.34.145.331.331,0,0,1-.235-.3c-.007-.039,0-.079-.009-.118a.907.907,0,0,1,.184-.549Zm10.819-3.524c-.007-.737-.059-.8-.729-.8H67.557a2.277,2.277,0,0,0-.392.031.328.328,0,0,0-.267.274,1.081,1.081,0,0,0-.027.237c0,.5-.012,1,0,1.5.009.42.07.489.47.636.07.028.144.047.214.075a3.237,3.237,0,0,1,2.022,2.458,3.42,3.42,0,0,1-.964,3.1,2.748,2.748,0,0,1-1.165.7c-.551.16-.577.326-.576.856v1.679c0,.719.06.78.75.782h4.171c.67,0,.72-.064.726-.8V73.222a.418.418,0,0,1,0-.058Zm-1.938,3.063a.308.308,0,0,1,.353.113,1.947,1.947,0,0,1,.286.918.994.994,0,0,1-.021.156.315.315,0,0,1-.224.25.273.273,0,0,1-.306-.1,1.058,1.058,0,0,1-.155-.314,2.166,2.166,0,0,1-.149-.7.323.323,0,0,1,.218-.326h0Zm-1.318-1.34a.344.344,0,0,1,.041-.31.3.3,0,0,1,.267-.132,1.3,1.3,0,0,1,.823.946c0,.23-.235.419-.428.305a1.66,1.66,0,0,1-.7-.809Zm1.9,4.668a5.07,5.07,0,0,1-1.1,2.125.913.913,0,0,1-.4.317.325.325,0,0,1-.389-.449,1.609,1.609,0,0,1,.224-.34,4.653,4.653,0,0,0,1-1.916,1.516,1.516,0,0,1,.127-.33.288.288,0,0,1,.333-.165.336.336,0,0,1,.253.287c.008.05.013.1.016.15-.017.089-.032.208-.062.321ZM35.842,124.316a.249.249,0,0,0-.354.083,4.6,4.6,0,0,0-.435.664.248.248,0,0,0,.075.373,2.488,2.488,0,0,0,.519.325.466.466,0,0,0,.44,0,.924.924,0,0,0,.454-.682.53.53,0,0,0-.186-.425A2.741,2.741,0,0,0,35.842,124.316ZM73.8,101.024a.8.8,0,0,0,.266-.513,2.847,2.847,0,0,0-.177-.983.214.214,0,0,0-.343-.093c-.161.143-.3.307-.458.459a4.929,4.929,0,0,1-.431.4.322.322,0,0,1-.39,0,.336.336,0,0,1-.1-.423,1.468,1.468,0,0,1,.19-.3c.124-.155.262-.3.388-.449a1.6,1.6,0,0,0,.16-.246.2.2,0,0,0-.1-.246,1.244,1.244,0,0,0-.528-.058h-4.23c-.933,0-1.862.013-2.8,0a1.147,1.147,0,0,0-1.029.47c-.082.11-.182.208-.274.311L61.424,102.2c-.916,1.036-1.829,2.072-2.747,3.106a1.637,1.637,0,0,0-.438.819c-.084.5-.184,1.006-.268,1.51a2.045,2.045,0,0,0-.012.409c0,.093.148.154.23.108a1.731,1.731,0,0,0,.428-.4l1.854-2.079a1.008,1.008,0,0,1,.452-.369.326.326,0,0,1,.335.06.3.3,0,0,1,.1.32.843.843,0,0,1-.124.262c-.106.142-.228.272-.346.406-.993,1.121-1.986,2.246-2.995,3.361a1.843,1.843,0,0,0-.484.989c-.068.447-.161.891-.236,1.335a2.142,2.142,0,0,0-.03.409.185.185,0,0,0,.088.136.183.183,0,0,0,.161-.014,3.937,3.937,0,0,0,.383-.369c.621-.691,1.233-1.387,1.85-2.08a1.583,1.583,0,0,1,.437-.4.342.342,0,0,1,.39.031.325.325,0,0,1,.1.375,1.161,1.161,0,0,1-.149.253c-.1.123-.2.246-.307.359-.994,1.122-1.986,2.246-3,3.36a1.826,1.826,0,0,0-.487.983c-.062.428-.155.85-.227,1.277a2.426,2.426,0,0,0-.032.409.157.157,0,0,0,.09.143.16.16,0,0,0,.17-.021,3.689,3.689,0,0,0,.382-.368c.607-.676,1.207-1.352,1.815-2.032a2.627,2.627,0,0,1,.387-.369.333.333,0,0,1,.436.032.319.319,0,0,1,.069.38,1.132,1.132,0,0,1-.153.246c-.1.123-.2.246-.309.359l-2.916,3.271a1.572,1.572,0,0,0-.448.752c-.1.56-.205,1.122-.3,1.683-.02.114-.04.253.077.322s.223-.031.305-.112c.124-.123.249-.257.364-.39l3.034-3.406,13.11-14.743q.667-.74,1.332-1.494ZM58.807,133.012c-.206,0-.285.072-.335.268a1.347,1.347,0,0,0-.031.2c-.077.632-.157,1.264-.231,1.9-.031.268-.067.536-.08.8-.011.232.066.313.3.362.149.025.3.043.45.053a1.542,1.542,0,0,0,1.561-.835,2.391,2.391,0,0,0,.253-1.018,1.643,1.643,0,0,0-1.892-1.735Zm15.3-6.787a1.526,1.526,0,0,0,1-.558c.465-.565.954-1.112,1.433-1.665l.891-1.035a.742.742,0,0,0,.233-.473,4.119,4.119,0,0,0-.236-1.345.19.19,0,0,0-.3-.062,1.651,1.651,0,0,0-.216.2c-.158.176-.308.36-.469.537a2.32,2.32,0,0,1-.3.284.355.355,0,0,1-.437,0,.345.345,0,0,1-.075-.435,2.454,2.454,0,0,1,.272-.386c.228-.274.466-.539.7-.811.637-.749.659-.6.451-1.712-.043-.224,0-.539-.288-.6-.232-.046-.345.224-.49.374-.164.172-.312.36-.49.521a.379.379,0,0,1-.528.052c-.137-.131-.135-.329.008-.546a3.655,3.655,0,0,1,.258-.325c.3-.346.6-.689.892-1.035a.77.77,0,0,0,.245-.59,8.553,8.553,0,0,0-.167-.873.211.211,0,0,0-.15-.174.206.206,0,0,0-.217.07c-.208.21-.4.439-.6.656a3.839,3.839,0,0,1-.38.374.325.325,0,0,1-.432-.015.349.349,0,0,1-.063-.437,2.92,2.92,0,0,1,.314-.432c.319-.374.637-.758.971-1.123a.92.92,0,0,0,.237-.873c-.071-.332-.122-.667-.182-1a1.06,1.06,0,0,0-.075-.226.2.2,0,0,0-.3-.074,6.8,6.8,0,0,0-.5.5q-5.785,6.536-11.564,13.081c-.121.144-.34.285-.266.5.091.249.367.183.568.2,1.036.084,2.074.072,3.113.071a49.593,49.593,0,0,0,7.139-.619Z" transform="translate(-17.011 -28.676)" fill="none" fill-rule="evenodd"/><path d="M98.682,49.368a49.341,49.341,0,1,0-49.4,49.314A49.35,49.35,0,0,0,98.682,49.368ZM36.921,95.954a.329.329,0,0,1-.407.246,5.272,5.272,0,0,1-.63-.151A48.513,48.513,0,0,1,29.4,93.677a47.315,47.315,0,0,1-13.124-8.7A48.252,48.252,0,0,1,1.2,55.893a48.407,48.407,0,0,1,11.561-38.5A48.514,48.514,0,0,1,27.64,5.857,47.713,47.713,0,0,1,43.032,1.138,48.624,48.624,0,0,1,71.969,92.377a47.75,47.75,0,0,1-9.135,3.669,4.68,4.68,0,0,1-.575.133.3.3,0,0,1-.36-.233,4.8,4.8,0,0,1-.131-.575q-1.52-8.427-3.038-16.855l-1.383-7.671a5.857,5.857,0,0,1-.085-.642.279.279,0,0,1,.238-.3,3.988,3.988,0,0,1,.529-.033h3.01c.417-.029.555-.145.615-.572.093-.7.164-1.407.246-2.111.034-.294.073-.587.1-.881.036-.492-.091-.643-.572-.7-.658-.072-.687-.095-.688-.748V58.848a.413.413,0,0,1,.362-.463l.116-.026a.492.492,0,0,0,.419-.5c.011-.492.018-.984,0-1.476a.467.467,0,0,0-.485-.492,4.751,4.751,0,0,0-.53-.016H57.255c-.784,0-.83-.046-.832-.845V43.1a15.013,15.013,0,0,0-.552-4.083,10.139,10.139,0,0,0-1.059-2.494,6.673,6.673,0,0,0-3.3-2.917,1.987,1.987,0,0,1-.215-.1.277.277,0,0,1-.146-.392c.071-.162.172-.312.231-.477a2.122,2.122,0,0,0-2.756-2.764,2.116,2.116,0,0,0-1.164,2.789c.068.164.161.315.231.477a.257.257,0,0,1-.116.355,3.68,3.68,0,0,1-.369.17A6.533,6.533,0,0,0,44.5,35.8a9.3,9.3,0,0,0-1.484,3,14.4,14.4,0,0,0-.587,3.664q-.033.944-.034,1.889V54.8a6.623,6.623,0,0,1-.026.707.355.355,0,0,1-.344.343,4.242,4.242,0,0,1-.53.022H38.133c-.842,0-.921.082-.927.9,0,.335,0,.669.006,1a.521.521,0,0,0,.464.586.455.455,0,0,1,.431.531v5.786a5.1,5.1,0,0,1-.016.531.369.369,0,0,1-.369.383c-.155.022-.315.013-.47.042a.453.453,0,0,0-.412.492,2.167,2.167,0,0,0,.02.294q.148,1.353.3,2.707a2.073,2.073,0,0,0,.034.232c.08.38.207.492.6.521.157.011.315,0,.472,0H40.8a3.518,3.518,0,0,1,.471.022.315.315,0,0,1,.3.369,5.2,5.2,0,0,1-.086.583q-.631,3.515-1.267,7.031-1.6,8.768-3.182,17.539a4.333,4.333,0,0,1-.114.523ZM47.073,41.112c-.137-.011-.274-.009-.412-.009H44.182a3.987,3.987,0,0,1-.529-.027.307.307,0,0,1-.279-.326,2.092,2.092,0,0,1,.043-.41c.093-.465.2-.561.668-.575.413-.011.826,0,1.239,0a1.142,1.142,0,0,0,.465-.06.336.336,0,0,0,.2-.329.294.294,0,0,0-.2-.268,1.545,1.545,0,0,0-.4-.065c-.3-.01-.59,0-.886-.007A2.479,2.479,0,0,1,44.1,39a.267.267,0,0,1-.213-.308,1.864,1.864,0,0,1,.293-.764.529.529,0,0,1,.463-.215c.315,0,.63,0,.945-.009a3.777,3.777,0,0,0,.47-.021.369.369,0,0,0,.351-.34A.342.342,0,0,0,46.067,37c-.195-.025-.393-.015-.59-.027a4.21,4.21,0,0,1-.466-.045.214.214,0,0,1-.141-.282.966.966,0,0,1,.1-.211,5.244,5.244,0,0,1,5.573-2.329,5.367,5.367,0,0,1,3.048,2,8.582,8.582,0,0,1,1.4,2.647,11.24,11.24,0,0,1,.4,1.54,2.962,2.962,0,0,1,.053.409.337.337,0,0,1-.232.369,2.725,2.725,0,0,0-.331.123.322.322,0,0,0-.183.339.3.3,0,0,0,.209.263c.109.04.229.052.342.081a.426.426,0,0,1,.39.443,1.3,1.3,0,0,1,0,.236.383.383,0,0,1-.4.421c-.2.021-.393.014-.589.019H44.1a5.45,5.45,0,0,1-.648-.034.308.308,0,0,1-.269-.276,1.109,1.109,0,0,1,.027-.525A.351.351,0,0,1,43.5,41.9a3.989,3.989,0,0,1,.529-.031h2.655c.137,0,.275,0,.412-.01.3-.026.46-.149.471-.35C47.579,41.28,47.4,41.14,47.073,41.112Zm1-9.213a1.4,1.4,0,0,1,1.374-1.41,1.346,1.346,0,0,1,1.334,1.368A1.384,1.384,0,0,1,49.405,33.2a1.341,1.341,0,0,1-1.34-1.3h0Zm7.626,22.883v.294c-.007.729-.059.789-.76.792H50.571c-.722,0-.779-.063-.785-.77V53.444c0-.521.026-.685.6-.843a2.914,2.914,0,0,0,1.219-.694A3.241,3.241,0,0,0,50.5,46.437c-.074-.027-.15-.047-.224-.074-.412-.145-.476-.213-.492-.626-.012-.492,0-.984,0-1.477a.993.993,0,0,1,.028-.233.334.334,0,0,1,.279-.27,2.6,2.6,0,0,1,.41-.031H54.93c.7,0,.756.063.763.788v10.27l0,0ZM43.98,43.726h4.3c.712,0,.762.057.768.783v1.24a.545.545,0,0,1-.444.6,2.97,2.97,0,0,0-.391.133,3.251,3.251,0,0,0,.013,6.028c.146.058.3.1.448.153a.47.47,0,0,1,.369.475c0,.767.009,1.535-.006,2.3,0,.271-.135.378-.413.408a4.649,4.649,0,0,1-.471.015H44.076c-.916,0-.939-.022-.939-.915V44.561c0-.8.04-.834.834-.837l.009,0ZM49.467,56.6H59.915a6.314,6.314,0,0,1,.647.028.334.334,0,0,1,.3.314,1.3,1.3,0,0,1-.016.351.308.308,0,0,1-.271.273,3.623,3.623,0,0,1-.529.033H38.8a4.006,4.006,0,0,1-.53-.028.335.335,0,0,1-.3-.315,1.242,1.242,0,0,1,.009-.351.336.336,0,0,1,.329-.287c.215-.02.433-.02.649-.02H49.467ZM60.012,62v2.649c0,.157,0,.315-.008.471-.028.369-.142.471-.524.483a1.979,1.979,0,0,1-.351-.02.347.347,0,0,1-.309-.31,3.31,3.31,0,0,1-.031-.469V59.152A3.112,3.112,0,0,1,58.8,58.8c.036-.3.146-.405.462-.421.568-.027.753.053.749.678C60,60.034,60,61.014,60,62l.009,0ZM58.02,65.115c-.024.347-.123.463-.464.48a5.413,5.413,0,0,1-.764-.014.347.347,0,0,1-.342-.342,3.322,3.322,0,0,1-.028-.469c0-1.864-.006-3.728,0-5.592,0-.758.064-.811.8-.808a3.582,3.582,0,0,1,.47.023A.338.338,0,0,1,58,58.7a4.66,4.66,0,0,1,.026.529v5.413c-.006.153,0,.315-.006.471Zm-2.337-.287c0,.72-.057.768-.775.775h-.826c-.738,0-.785-.051-.792-.819v-5.5a5.506,5.506,0,0,1,.026-.59.341.341,0,0,1,.308-.31,2.465,2.465,0,0,1,.353-.024h1c.625.01.693.081.7.731V61.93c0,.969.006,1.934,0,2.9Zm-3.122,0c0,.714-.062.769-.775.775h-1.3a2.539,2.539,0,0,1-.409-.032.321.321,0,0,1-.273-.273,1.846,1.846,0,0,1-.032-.351v-5.89a2.236,2.236,0,0,1,.026-.352.355.355,0,0,1,.308-.312,1.639,1.639,0,0,1,.293-.021h1.531a1.643,1.643,0,0,1,.293.021.35.35,0,0,1,.307.312,4.418,4.418,0,0,1,.027.528V62c0,.941.006,1.884,0,2.826h0Zm-3.516.021c0,.682-.068.747-.738.753H46.955a2.68,2.68,0,0,1-.352-.023.348.348,0,0,1-.311-.308,3.139,3.139,0,0,1-.032-.469V59.15c0-.721.065-.775.769-.781h1.3a2.434,2.434,0,0,1,.352.017.359.359,0,0,1,.347.339,3.425,3.425,0,0,1,.021.47v2.83c0,.946.009,1.882,0,2.823h0ZM45.5,64.834c0,.712-.058.763-.778.769-.369,0-.746.009-1.119-.008-.336-.016-.439-.133-.465-.479-.01-.123-.007-.236-.007-.353V59.227a4.227,4.227,0,0,1,.014-.47.357.357,0,0,1,.381-.369q.794-.025,1.588,0c.237.008.343.137.369.38.016.156.014.314.015.471v2.767c0,.945.007,1.886,0,2.828h0Zm-4.731-2.848v-3c.019-.516.106-.6.637-.615a4.656,4.656,0,0,1,.586.016.351.351,0,0,1,.352.332,2.663,2.663,0,0,1,.027.41v5.651c0,.778-.068.83-.849.823-.675,0-.749-.07-.753-.739V61.985ZM40.048,62v2.649c0,.156,0,.314-.007.47-.027.35-.133.455-.468.48a2.139,2.139,0,0,1-.235,0c-.369-.02-.475-.123-.5-.507-.014-.2-.013-.392-.013-.588V59.381a6.3,6.3,0,0,1,.027-.646.355.355,0,0,1,.337-.348,1.789,1.789,0,0,1,.293-.015c.435.008.558.115.563.565.011,1.02,0,2.04,0,3.061Zm-1.4,4.375H60.193c.216,0,.434,0,.648.02a.333.333,0,0,1,.329.35,2.25,2.25,0,0,1-.02.353c-.057.508-.105,1.018-.177,1.524-.053.38-.161.469-.537.492-.156.011-.315.008-.472.008H38.891c-.2,0-.394,0-.589-.012a.407.407,0,0,1-.438-.4c-.057-.328-.088-.663-.123-1-.034-.312-.072-.627-.086-.94A.325.325,0,0,1,38,66.39c.217-.018.432-.016.647-.016h0ZM39.138,92c-.123.133-.236.264-.36.39-.082.081-.177.189-.3.112s-.1-.208-.076-.322c.095-.562.2-1.125.3-1.686a1.566,1.566,0,0,1,.444-.752l2.891-3.277c.1-.123.21-.235.306-.359a1.136,1.136,0,0,0,.152-.246.321.321,0,0,0-.069-.38.327.327,0,0,0-.432-.032,2.613,2.613,0,0,0-.384.369c-.6.676-1.2,1.353-1.8,2.035a3.69,3.69,0,0,1-.379.369.157.157,0,0,1-.257-.123,2.41,2.41,0,0,1,.032-.414c.071-.427.163-.85.225-1.278a1.833,1.833,0,0,1,.483-.984c1-1.116,1.98-2.241,2.968-3.365.1-.123.211-.235.3-.359a1.148,1.148,0,0,0,.148-.253.329.329,0,0,0-.1-.375.336.336,0,0,0-.385-.031,1.583,1.583,0,0,0-.433.4c-.615.694-1.22,1.391-1.833,2.083a3.848,3.848,0,0,1-.38.369.178.178,0,0,1-.159.014.186.186,0,0,1-.087-.136,2.188,2.188,0,0,1,.029-.41c.075-.446.168-.89.235-1.337a1.853,1.853,0,0,1,.48-.99c1-1.117,1.979-2.243,2.967-3.367a4.81,4.81,0,0,0,.343-.406.848.848,0,0,0,.123-.262.306.306,0,0,0-.1-.32.321.321,0,0,0-.332-.06,1.116,1.116,0,0,0-.447.369q-.921,1.038-1.837,2.082a1.722,1.722,0,0,1-.424.4c-.081.045-.224-.015-.228-.108a2.07,2.07,0,0,1,.012-.41c.084-.5.182-1.006.266-1.512a1.645,1.645,0,0,1,.438-.826Q42.842,75.055,44.2,73.5q1.243-1.423,2.488-2.843c.091-.1.191-.2.272-.311a1.132,1.132,0,0,1,1.019-.471c.925.02,1.845,0,2.775,0h4.189a1.219,1.219,0,0,1,.523.058.2.2,0,0,1,.1.246,1.552,1.552,0,0,1-.159.247c-.123.152-.262.293-.383.449a1.44,1.44,0,0,0-.188.3.338.338,0,0,0,.1.423.316.316,0,0,0,.387,0,4.8,4.8,0,0,0,.427-.4c.153-.153.294-.318.454-.461a.211.211,0,0,1,.339.1,2.878,2.878,0,0,1,.176.984.788.788,0,0,1-.263.514q-.661.756-1.323,1.508L42.145,88.6,39.137,92Zm7.642,5.875c-.207-.016-.48.054-.571-.2-.075-.21.14-.349.268-.492q5.8-6.454,11.613-12.9.238-.258.5-.491a.2.2,0,0,1,.3.072,1.046,1.046,0,0,1,.075.223c.063.329.112.659.183.984a.9.9,0,0,1-.238.861c-.336.359-.656.738-.976,1.107a2.927,2.927,0,0,0-.315.426.339.339,0,0,0,.063.432.331.331,0,0,0,.434.015,3.83,3.83,0,0,0,.381-.369c.2-.214.394-.44.6-.648a.209.209,0,0,1,.369.1,8.292,8.292,0,0,1,.168.861.72.72,0,0,1-.246.582c-.3.341-.6.679-.9,1.02a3.609,3.609,0,0,0-.26.321c-.142.214-.14.414-.007.539a.374.374,0,0,0,.53-.051c.19-.175.322-.344.492-.514.146-.15.26-.417.492-.369.286.057.246.369.289.588.209,1.1.187.947-.452,1.688-.231.268-.471.529-.7.8a2.467,2.467,0,0,0-.273.381.336.336,0,0,0,.075.429.361.361,0,0,0,.439,0,2.309,2.309,0,0,0,.3-.28c.161-.174.312-.356.471-.529a1.649,1.649,0,0,1,.218-.2.193.193,0,0,1,.3.062,4,4,0,0,1,.237,1.326.728.728,0,0,1-.234.467q-.446.51-.9,1.02c-.481.546-.971,1.085-1.439,1.643a1.54,1.54,0,0,1-1,.55,50.7,50.7,0,0,1-7.173.61c-1.038,0-2.081.012-3.121-.07h0Z" transform="translate(0 0)" fill="#fff"/><path d="M27.926,84.728c.135-.113.283-.211.428-.31l5.508-3.778c.161-.109.317-.228.468-.351a.393.393,0,0,0,.145-.313.337.337,0,0,0-.125-.258.318.318,0,0,0-.274-.061,1.747,1.747,0,0,0-.605.339l-5.509,3.775c-.145.1-.288.2-.441.289a.336.336,0,0,1-.508-.106,3.239,3.239,0,0,1-.22-.349c-.206-.361-.415-.72-.605-1.087-.229-.436-.194-.544.228-.818.131-.085.266-.163.4-.243l2.449-1.476a1.69,1.69,0,0,0,.47-.347.359.359,0,0,0,.029-.44.3.3,0,0,0-.363-.124,3.445,3.445,0,0,0-.522.249c-.871.519-1.738,1.044-2.608,1.565-.684.409-.733.393-1.074-.34a37.183,37.183,0,0,1-1.92-5.121,4.438,4.438,0,0,0-.194-.561.334.334,0,0,0-.427-.212.341.341,0,0,0-.217.374,4.433,4.433,0,0,0,.14.638,37.535,37.535,0,0,0,1.937,5.18c.082.18.169.36.235.545a.363.363,0,0,1-.139.472c-.136.111-.288.2-.418.321a.35.35,0,0,0-.078.434.33.33,0,0,0,.4.154,4.378,4.378,0,0,0,.425-.189.339.339,0,0,1,.5.156q.484.816.93,1.654a.374.374,0,0,1-.121.525,4,4,0,0,1-.332.242l-1.7,1.16-2.608,1.79a1.324,1.324,0,0,0-.439.382.34.34,0,0,0,0,.392.308.308,0,0,0,.363.125,1.157,1.157,0,0,0,.264-.125c.134-.08.26-.172.389-.26L26.4,85.74c.531-.361.605-.337.974.2.427.615.863,1.225,1.3,1.833a1.532,1.532,0,0,0,.4.429.315.315,0,0,0,.381,0,.343.343,0,0,0,.121-.373,1.234,1.234,0,0,0-.262-.459c-.412-.576-.827-1.152-1.239-1.731a3.4,3.4,0,0,1-.25-.4.352.352,0,0,1,.106-.507ZM35.98,45.079a.337.337,0,0,0-.383.071.308.308,0,0,0-.054.374.771.771,0,0,0,.132.189c.107.112.221.219.337.323q1.5,1.354,2.995,2.7c.174.156.352.31.512.481a.363.363,0,0,1,.042.563c-.123.172-.269.332-.405.5a23.125,23.125,0,0,0-2.863,4.429,3.911,3.911,0,0,0-.236.587.336.336,0,0,0,.179.391.34.34,0,0,0,.421-.109,3.626,3.626,0,0,0,.289-.5,22.911,22.911,0,0,1,2.912-4.466,3.92,3.92,0,0,1,.36-.38.793.793,0,0,1,.213-.093,1.465,1.465,0,0,1,.221.1,3.022,3.022,0,0,1,.269.224L45,54.152c.115.1.227.214.332.329a.325.325,0,0,1,.029.425c-.072.113-.163.216-.247.326-.263.36-.527.721-.784,1.081a1.808,1.808,0,0,0-.194.361.343.343,0,0,0,.109.415.36.36,0,0,0,.479-.071,4.464,4.464,0,0,0,.317-.414c.282-.371.553-.748.851-1.107a.328.328,0,0,1,.517-.052,3.92,3.92,0,0,1,.311.265l1.3,1.176a.9.9,0,0,0,.449.265.332.332,0,0,0,.319-.111.3.3,0,0,0,.051-.324.958.958,0,0,0-.288-.36c-.447-.408-.892-.816-1.344-1.217a1.033,1.033,0,0,1-.463-.823.279.279,0,0,0-.089-.243A.3.3,0,0,0,46.4,54a1.113,1.113,0,0,1-.882-.383q-2.015-1.827-4.035-3.646a3.372,3.372,0,0,1-.327-.333.318.318,0,0,1-.011-.426,1.953,1.953,0,0,1,.234-.258c.355-.333.707-.67,1.074-.991a22.723,22.723,0,0,1,3.066-2.256,1.552,1.552,0,0,0,.464-.352.315.315,0,0,0,.028-.377.328.328,0,0,0-.356-.15.754.754,0,0,0-.222.075c-.139.072-.275.152-.408.234a23.422,23.422,0,0,0-3.968,3.089c-.139.137-.275.278-.423.4-.231.2-.37.2-.627,0-.093-.071-.175-.155-.261-.233L36.49,45.462a1.567,1.567,0,0,0-.509-.382Zm38.46,5.729q-2.123,1.66-4.249,3.315c-.478.374-.618.518-1.114-.043a.712.712,0,0,0-.387-.253.328.328,0,0,0-.323.087.32.32,0,0,0-.076.324,1.063,1.063,0,0,0,.257.385c.344.41.334.5-.087.844-.075.062-.154.121-.231.18l-1.385,1.081a4.034,4.034,0,0,0-.316.262c-.207.2-.245.411-.111.563s.314.153.535.02a4.213,4.213,0,0,0,.379-.272q.739-.578,1.48-1.153a4.221,4.221,0,0,1,.379-.274.343.343,0,0,1,.476.066,2.553,2.553,0,0,1,.257.319c.159.221.308.45.468.671a2.081,2.081,0,0,0,.261.313.336.336,0,0,0,.432.028.311.311,0,0,0,.115-.365,1.637,1.637,0,0,0-.176-.365q-.255-.392-.527-.773c-.4-.559-.4-.617.139-1.037.89-.7,1.785-1.394,2.679-2.091.6-.468,1.2-.942,1.8-1.4.367-.283.5-.265.781.08.123.15.236.309.352.468A24.461,24.461,0,0,1,77.786,54.2a3.047,3.047,0,0,0,.245.394.341.341,0,0,0,.449.108.337.337,0,0,0,.144-.436,3.5,3.5,0,0,0-.245-.528A23.053,23.053,0,0,0,76.7,51.135c-.082-.109-.168-.215-.245-.329-.206-.314-.189-.439.109-.7.146-.127.3-.243.458-.365l5.73-4.467c.138-.107.274-.22.4-.338a.417.417,0,0,0,.144-.309.317.317,0,0,0-.341-.32.918.918,0,0,0-.323.122c-.164.1-.316.23-.47.349q-2.953,2.311-5.916,4.612c-.538.418-.576.406-1.056-.094-.458-.478-.93-.945-1.4-1.416a1.09,1.09,0,0,0-.427-.3.346.346,0,0,0-.367.108.332.332,0,0,0-.044.331,1.036,1.036,0,0,0,.288.365c.425.429.856.851,1.275,1.29.545.576.535.65-.084,1.133ZM93.32,65.029H87.275c-.142,0-.285,0-.427.013-.29.029-.468.181-.462.378s.181.33.483.36c.182.017.365.014.548.015h5.862a4.635,4.635,0,0,1,.547.029.342.342,0,0,1,.315.313,1.75,1.75,0,0,1,.018.293c-.007.635-.154.747-.749.692q-.79-.076-1.582-.123a2.278,2.278,0,0,0-.483.017.314.314,0,0,0-.265.286.334.334,0,0,0,.208.332,1.253,1.253,0,0,0,.473.1c.487.042.974.082,1.46.123a4.242,4.242,0,0,1,.484.06.349.349,0,0,1,.329.369A3.618,3.618,0,0,1,94,68.87c-.1.779-.208,1.556-.312,2.332a1.582,1.582,0,0,0-.027.584.341.341,0,0,0,.284.271.32.32,0,0,0,.35-.18,2.329,2.329,0,0,0,.148-.506c.149-.852.267-1.708.337-2.568.05-.629.11-.822.844-.737a1.255,1.255,0,0,0,.3,0,.369.369,0,0,0,.364-.33.356.356,0,0,0-.28-.344,3.684,3.684,0,0,0-.419-.075c-.127-.019-.244-.025-.361-.053a.352.352,0,0,1-.3-.332q-.019-.323-.009-.647a31.245,31.245,0,0,0-.115-3.88c-.065-.723-.167-1.443-.242-2.165-.04-.377.052-.5.435-.581.337-.072.682-.115,1.018-.182a2.306,2.306,0,0,0,.462-.156.318.318,0,0,0,.173-.347.352.352,0,0,0-.3-.264,1.431,1.431,0,0,0-.545.033l-5.29.906a3.164,3.164,0,0,0-.415.094.382.382,0,0,0-.313.384c.016.166.195.308.454.3a3.328,3.328,0,0,0,.484-.057c.742-.122,1.483-.256,2.225-.379.692-.113.775-.057.871.613a33.93,33.93,0,0,1,.319,3.577C94.186,64.964,94.124,65.027,93.32,65.029Zm-20.554.047c-.115.016-.231.011-.345.025a.846.846,0,0,0-.223.055.316.316,0,0,0-.2.269.331.331,0,0,0,.2.33,1.209,1.209,0,0,0,.278.067c.115.016.231.011.344.032a.328.328,0,0,1,.284.328,3.81,3.81,0,0,1-.022.536,15.962,15.962,0,0,1-.528,2.753c-.049.172-.1.343-.139.519-.053.265.017.436.189.506.19.076.372-.029.487-.3a4.364,4.364,0,0,0,.168-.509,16.751,16.751,0,0,0,.572-3.108c.061-.689.113-.742.77-.748h5.307c.154,0,.308,0,.461.012.27.029.372.14.384.424a4.281,4.281,0,0,1-.015.539c-.041.456-.089.912-.134,1.371-.012.124-.035.238-.039.356-.007.26.1.429.274.466s.361-.1.43-.388a2.931,2.931,0,0,0,.064-.413c.051-.514.1-1.031.141-1.547.059-.793.077-.814.869-.817h1.443a1.309,1.309,0,0,0,.229-.026.37.37,0,0,0,.317-.367.343.343,0,0,0-.3-.309,2.99,2.99,0,0,0-.46-.031H82.3a3.091,3.091,0,0,1-.4-.02.35.35,0,0,1-.339-.345c-.029-.237-.037-.476-.048-.715a25.346,25.346,0,0,0-.59-4.5,4.079,4.079,0,0,0-.164-.572.345.345,0,0,0-.412-.242.364.364,0,0,0-.241.422,1.961,1.961,0,0,0,.046.295c.043.214.094.428.138.642a23.672,23.672,0,0,1,.491,3.968,5.849,5.849,0,0,1-.014.716.328.328,0,0,1-.3.319,3.782,3.782,0,0,1-.517.029h-5.2a4.452,4.452,0,0,1-.461-.017.39.39,0,0,1-.381-.374,4.455,4.455,0,0,1-.036-.476,16.245,16.245,0,0,0-.222-2.087,1.425,1.425,0,0,0-.149-.512.326.326,0,0,0-.339-.176.332.332,0,0,0-.263.282,1.725,1.725,0,0,0,.04.592,16.477,16.477,0,0,1,.208,1.9,3.776,3.776,0,0,1,0,.418c-.017.278-.117.388-.382.425Zm18.3,15.436a.356.356,0,0,1,.543-.191c.123.054.247.126.371.191.262.143.519.292.783.43a2,2,0,0,0,.383.157.341.341,0,0,0,.4-.175.372.372,0,0,0-.1-.438,2.226,2.226,0,0,0-.344-.235c-.275-.157-.555-.306-.833-.46-.7-.388-.709-.417-.422-1.174.085-.226.16-.455.215-.611.026-.266-.048-.418-.189-.483a.358.358,0,0,0-.455.176,1.9,1.9,0,0,0-.134.269c-.056.126-.1.263-.156.393-.23.548-.34.592-.841.334-.088-.045-.175-.1-.261-.143-.957-.527-1.911-1.057-2.869-1.581a3.852,3.852,0,0,0-.535-.252.342.342,0,0,0-.436.15.36.36,0,0,0,.1.461,3.122,3.122,0,0,0,.448.29q1.537.853,3.076,1.7a5.126,5.126,0,0,1,.457.279.35.35,0,0,1,.15.422,7.894,7.894,0,0,1-.673,1.414.3.3,0,0,1-.18.152.3.3,0,0,1-.232-.026c-.163-.073-.315-.168-.47-.252a.965.965,0,0,0-.438-.168.332.332,0,0,0-.307.146.345.345,0,0,0,.015.4,1.323,1.323,0,0,0,.216.2c.1.072.2.126.3.194.532.344.555.436.24,1.02-.047.088-.1.175-.147.263A37.119,37.119,0,0,1,84.681,89.1a1.368,1.368,0,0,0-.334.494.354.354,0,0,0,.111.379.315.315,0,0,0,.388.019,1.464,1.464,0,0,0,.267-.234c.215-.238.425-.479.629-.727a37.88,37.88,0,0,0,3.685-5.344c.09-.157.174-.319.275-.468a.363.363,0,0,1,.557-.148,3.873,3.873,0,0,1,.36.21c.357.215.713.433,1.072.647a.816.816,0,0,0,.44.159.328.328,0,0,0,.294-.17.344.344,0,0,0-.006-.346.911.911,0,0,0-.355-.314L91,82.6c-.135-.083-.272-.164-.4-.26a.373.373,0,0,1-.153-.524c.189-.443.4-.879.617-1.308ZM32.883,65.572c.678,0,.738.067.771.733.009.178.016.356.026.535a22.352,22.352,0,0,0,.352,2.942,2.783,2.783,0,0,0,.141.51.33.33,0,0,0,.374.221.335.335,0,0,0,.269-.344,3.372,3.372,0,0,0-.06-.529,23.842,23.842,0,0,1-.365-3.18c0-.1-.011-.2-.01-.3,0-.465.094-.565.535-.59.193-.011.389,0,.582-.014a1.075,1.075,0,0,0,.338-.074.3.3,0,0,0,.18-.282.286.286,0,0,0-.174-.285,1.02,1.02,0,0,0-.338-.075c-.193-.015-.389,0-.582-.014-.425-.02-.521-.123-.53-.527v-.237q.029-.443.061-.888c.01-.137.027-.275.029-.413a.857.857,0,0,0-.033-.234.321.321,0,1,0-.591-.067,1.128,1.128,0,0,0-.128.513c-.033.434-.053.865-.089,1.3-.038.453-.121.531-.585.551-.174.007-.35,0-.524,0h-5.9a4.088,4.088,0,0,0-.639.044.3.3,0,0,0-.257.284.322.322,0,0,0,.251.352,3.269,3.269,0,0,0,.579.049h3.152c1.059.01,2.112.006,3.162.011ZM29.571,40.681c.515.473.412.655.01,1.1-.04.046-.079.091-.118.138-.658.79-1.293,1.6-1.878,2.443a3.018,3.018,0,0,0-.273.468.36.36,0,0,0,.11.437.342.342,0,0,0,.443-.038,3.269,3.269,0,0,0,.344-.418q.877-1.233,1.852-2.391a4.529,4.529,0,0,1,.369-.4.334.334,0,0,1,.488-.018c.187.153.352.33.529.493a1.155,1.155,0,0,0,.441.309.322.322,0,0,0,.333-.076.338.338,0,0,0,.091-.333.85.85,0,0,0-.266-.4c-.2-.2-.406-.393-.591-.6a.354.354,0,0,1-.017-.5,4.432,4.432,0,0,1,.363-.4,36.453,36.453,0,0,1,5.2-4.479q.221-.157.427-.336a.382.382,0,0,0,.125-.325.35.35,0,0,0-.157-.247.342.342,0,0,0-.288-.04,1.712,1.712,0,0,0-.572.324,35.871,35.871,0,0,0-4.363,3.619c-.416.409-.819.833-1.239,1.238-.257.253-.412.244-.682.024-.139-.114-.267-.245-.415-.346a.341.341,0,0,0-.444.024.383.383,0,0,0-.027.5,1.167,1.167,0,0,0,.2.229Zm48.447,56.56a1.637,1.637,0,0,0-.313-.162q-.248-.1-.5-.187a.812.812,0,0,1-.6-.635c-.053-.231-.126-.461-.192-.691-.063-.212-.126-.427-.2-.634a.385.385,0,0,0-.722-.009,2.19,2.19,0,0,0-.115.314c-.068.23-.126.461-.194.691-.219.785-.219.783-1.018,1.085a2.45,2.45,0,0,0-.481.224.311.311,0,0,0,0,.525.944.944,0,0,0,.2.116,2.75,2.75,0,0,0,.39.148,1.042,1.042,0,0,1,.868.88,7.3,7.3,0,0,0,.252.908,1.7,1.7,0,0,0,.154.357.329.329,0,0,0,.278.159.355.355,0,0,0,.323-.155,2.047,2.047,0,0,0,.174-.408c.107-.354.21-.709.3-1.068a.789.789,0,0,1,.572-.587q.229-.073.448-.167a1.922,1.922,0,0,0,.368-.183.3.3,0,0,0,0-.52Zm-60.884-50.3a2.068,2.068,0,0,0,.572.3l7.843,3.417q1.947.848,3.895,1.694A1.417,1.417,0,0,0,30,52.53a.333.333,0,0,0,.333-.2.305.305,0,0,0-.085-.368,1.1,1.1,0,0,0-.241-.163c-.157-.079-.32-.149-.483-.219l-9.736-4.24L17.841,46.5a1.115,1.115,0,0,0-.534-.133.33.33,0,0,0-.293.232.317.317,0,0,0,.121.348Zm73.923,3.736a.328.328,0,0,0-.192.332,1.285,1.285,0,0,0,.059.285c.04.131.1.256.135.387a.367.367,0,0,1-.2.49,3.973,3.973,0,0,1-.424.185L87.109,53.7c-.142.058-.288.112-.425.182-.253.132-.349.323-.271.508s.269.245.553.159c.166-.049.326-.123.482-.183l3.276-1.314a3.744,3.744,0,0,1,.379-.142c.261-.076.391-.017.5.245.09.214.156.441.241.661a.792.792,0,0,0,.2.351.314.314,0,0,0,.321.072.293.293,0,0,0,.21-.255,1.161,1.161,0,0,0-.026-.348c-.041-.17-.1-.336-.156-.5-.2-.618-.175-.684.409-.92.732-.3,1.467-.587,2.2-.886a3.791,3.791,0,0,0,.465-.229.334.334,0,0,0,.156-.38.327.327,0,0,0-.327-.242,1.377,1.377,0,0,0-.553.149c-.771.307-1.538.623-2.31.924-.429.168-.539.116-.73-.285-.051-.105-.09-.216-.145-.32a.94.94,0,0,0-.135-.189.32.32,0,0,0-.37-.076ZM32.88,56.615c.285.074.5,0,.551-.2s-.033-.346-.267-.466c-.176-.089-.361-.159-.545-.234l-5.668-2.277-4.4-1.769A1.71,1.71,0,0,0,22,51.5a.348.348,0,0,0-.347.2.335.335,0,0,0,.084.378,1.243,1.243,0,0,0,.463.254L32.545,56.5a2.72,2.72,0,0,0,.336.115ZM66.573,35.666a2.358,2.358,0,0,0,.328.154c.149.063.3.126.449.181a.973.973,0,0,1,.618.622c.062.171.134.338.206.506.1.223.174.488.468.5.328.007.405-.285.512-.523a2.481,2.481,0,0,0,.134-.338,1.146,1.146,0,0,1,.814-.822,3.2,3.2,0,0,0,.449-.181,1.612,1.612,0,0,0,.3-.194.347.347,0,0,0,.113-.28.4.4,0,0,0-.229-.327,5.05,5.05,0,0,0-.665-.288,1.137,1.137,0,0,1-.774-.786,4.76,4.76,0,0,0-.207-.506,1.119,1.119,0,0,0-.159-.253.358.358,0,0,0-.535-.015,1.3,1.3,0,0,0-.26.475c-.361.9-.292.842-1.211,1.212a2.1,2.1,0,0,0-.378.186.374.374,0,0,0,.024.68ZM82.712,77.8c-.984-.617-1.969-1.227-2.954-1.841-.131-.081-.265-.159-.389-.249a.411.411,0,0,1-.163-.568c.1-.267.227-.55.338-.826a.817.817,0,0,0,.083-.406.334.334,0,0,0-.19-.278.3.3,0,0,0-.324.038.915.915,0,0,0-.253.393c-.106.233-.2.473-.324.7a.311.311,0,0,1-.188.178.3.3,0,0,1-.252-.032,3.52,3.52,0,0,1-.351-.2c-.281-.172-.558-.35-.836-.518a2.228,2.228,0,0,0-.358-.18.317.317,0,0,0-.4.14.374.374,0,0,0,.063.439,1.879,1.879,0,0,0,.319.25c.293.188.6.367.886.554a4.263,4.263,0,0,1,.38.266.343.343,0,0,1,.1.429c-.087.2-.2.387-.289.584a2.372,2.372,0,0,0-.176.438.316.316,0,0,0,.153.356.311.311,0,0,0,.375-.036,1.4,1.4,0,0,0,.309-.427c.1-.17.2-.342.3-.508a.317.317,0,0,1,.275-.144,1.075,1.075,0,0,1,.185.063c.119.061.239.135.349.206l2.955,1.835a3.226,3.226,0,0,0,.514.262.325.325,0,0,0,.4-.141.344.344,0,0,0-.07-.434,3.64,3.64,0,0,0-.473-.343Zm.748-37.463c.11.135.237.257.359.385a35.584,35.584,0,0,1,5.2,7.018c.087.151.171.306.271.448a.682.682,0,0,0,.216.19.336.336,0,0,0,.478-.323,1.269,1.269,0,0,0-.062-.223q-.1-.212-.216-.413a36.206,36.206,0,0,0-3.781-5.462c-.564-.672-1.143-1.329-1.765-1.953a.982.982,0,0,0-.421-.309.334.334,0,0,0-.33.071.289.289,0,0,0-.09.317.786.786,0,0,0,.141.254ZM46.942,65.893H48.23a1.264,1.264,0,0,0,.473-.066.223.223,0,0,0,.163-.185.215.215,0,0,0-.153-.189.928.928,0,0,0-.349-.067c-.184,0-.369-.005-.553-.005h-8.4a4.173,4.173,0,0,0-.547.033c-.168.023-.285.125-.272.238s.111.182.256.2a5.062,5.062,0,0,0,.606.038h7.491ZM21.505,63.314c.062-.849.139-1.7.208-2.547h.026a1.149,1.149,0,0,0-.015-.226.344.344,0,0,0-.3-.3.333.333,0,0,0-.347.237,3.07,3.07,0,0,0-.1.5,30.8,30.8,0,0,0-.239,3.513c-.007.687-.064.741-.759.747H18.207a1.153,1.153,0,0,0-.508.063.3.3,0,0,0-.184.266.3.3,0,0,0,.159.283.822.822,0,0,0,.444.088H20.24c.359.022.427.087.5.422a2.589,2.589,0,0,0,.07.33.317.317,0,0,0,.3.23.336.336,0,0,0,.329-.263.534.534,0,0,0,.03-.166.529.529,0,0,1,.458-.618.341.341,0,0,0,.138-.1.3.3,0,0,0-.007-.41.479.479,0,0,0-.193-.119c-.359-.077-.424-.336-.409-.647.018-.416.022-.851.052-1.286Zm53.752-4.959a3.487,3.487,0,0,0-.537.252.319.319,0,0,0-.125.408c.069.135.19.191.4.2.1-.029.25-.065.4-.12.579-.216,1.156-.437,1.734-.656Q80.345,57.219,83.557,56a4.39,4.39,0,0,0,.6-.272.325.325,0,0,0,.159-.4.355.355,0,0,0-.439-.211,4.515,4.515,0,0,0-.568.185L79.556,56.72l-4.3,1.635ZM39.75,73.093a1.309,1.309,0,0,0-.469.2l-6.373,3.6a2.308,2.308,0,0,0-.33.218.339.339,0,0,0-.12.441.347.347,0,0,0,.449.129,3.357,3.357,0,0,0,.458-.231q3.111-1.758,6.222-3.519a3.809,3.809,0,0,0,.424-.282.293.293,0,0,0,.12-.231.314.314,0,0,0-.111-.248.338.338,0,0,0-.268-.077ZM36.864,94.3a.867.867,0,0,1,0-.775,2.333,2.333,0,0,0,.154-.4c.1-.358-.112-.573-.458-.48a2.056,2.056,0,0,0-.4.151.884.884,0,0,1-.821,0,2.233,2.233,0,0,0-.4-.151c-.323-.082-.525.121-.447.448a4.659,4.659,0,0,0,.163.448c.04.112.072.237.112.361-.035.123-.065.244-.105.362s-.112.263-.152.4c-.112.389.094.6.474.5a1.252,1.252,0,0,0,.25-.093,1.038,1.038,0,0,1,1.023-.01,1.326,1.326,0,0,0,.354.118.334.334,0,0,0,.419-.437,2.513,2.513,0,0,0-.167-.447ZM97.519,74.583a2.279,2.279,0,0,0-.421-.162q-3.134-.885-6.272-1.759c-.146-.04-.3-.067-.389-.086-.24,0-.384.073-.437.195a.313.313,0,0,0,.2.393,2.9,2.9,0,0,0,.429.151c.42.121.839.237,1.265.355l4.9,1.371a1.659,1.659,0,0,0,.56.105.331.331,0,0,0,.313-.2.286.286,0,0,0-.155-.365ZM46.847,60.994c-.161-.069-.325-.133-.489-.2q-1.168-.473-2.338-.942a.573.573,0,0,1-.411-.5c-.062-.507-.253-.574-.684-.251a.514.514,0,0,1-.543.088c-.31-.121-.612-.242-.929-.362-.144-.054-.295-.1-.393-.127a.374.374,0,0,0-.389.2.324.324,0,0,0,.122.41,3.328,3.328,0,0,0,.521.261c.941.384,1.884.762,2.826,1.142.743.3,1.485.6,2.231.893a3.36,3.36,0,0,0,.5.165.346.346,0,0,0,.433-.2.361.361,0,0,0-.2-.437A1.876,1.876,0,0,0,46.847,60.994Z" transform="translate(-8.263 -16.039)" fill="rgba(255,255,255,0.8)"/><path d="M92.052,56.146a4.71,4.71,0,0,0-.533.03c-.143.018-.249.1-.255.2s.077.192.209.23a1.528,1.528,0,0,0,.468.046h5.847a2.39,2.39,0,0,0,.412-.033c.162-.026.271-.131.257-.246a.273.273,0,0,0-.264-.2,4.494,4.494,0,0,0-.533-.03H94.856c-.936,0-1.868,0-2.8,0ZM18.746,64.1a.961.961,0,0,0,.471-.214A.312.312,0,0,0,19.3,63.6a.319.319,0,0,0-.2-.226.714.714,0,0,0-.4,0c-.244.06-.488.119-.732.185L13.82,64.6a1.448,1.448,0,0,0-.543.2.31.31,0,0,0-.134.3.329.329,0,0,0,.267.27c.038.007.077.01.173.023.137-.03.328-.065.516-.113q1.39-.35,2.778-.7C17.5,64.418,18.122,64.262,18.746,64.1Zm-4.268-9.034a.262.262,0,0,0,.2-.188.25.25,0,0,0-.205-.229,1.479,1.479,0,0,0-.461-.045H8.663a2.544,2.544,0,0,0-.406.03.267.267,0,0,0-.255.2c-.015.115.1.22.256.243a3.969,3.969,0,0,0,.525.033h5.175a1.64,1.64,0,0,0,.52-.046ZM90.393,44.745a.325.325,0,0,0-.134.4.372.372,0,0,0,.371.208c.091-.021.227-.042.357-.082q1.938-.6,3.873-1.216a1.371,1.371,0,0,0,.371-.174.291.291,0,0,0,.123-.358.312.312,0,0,0-.306-.226,1.147,1.147,0,0,0-.347.048q-2.021.628-4.041,1.267A1.063,1.063,0,0,0,90.393,44.745Zm-71.662.333a1.867,1.867,0,0,0,.062-.4.328.328,0,0,0-.169-.327.251.251,0,0,0-.341.138,2.563,2.563,0,0,0-.176.478q-.48,1.791-.794,3.621c-.026.153-.044.307-.061.424l.005.1a.365.365,0,0,0,.219.352.282.282,0,0,0,.321-.2,1.8,1.8,0,0,0,.093-.332q.334-1.941.841-3.846Zm62.705-9.341a.324.324,0,0,0-.311-.147.761.761,0,0,0-.426.214q-1.5,1.264-3,2.533a1.193,1.193,0,0,0-.269.334c-.124.221.039.509.207.514a.718.718,0,0,0,.542-.218q1.5-1.264,3-2.533a1.4,1.4,0,0,0,.271-.334.33.33,0,0,0-.013-.363Zm2.1-3.275a3.29,3.29,0,0,0,.5-.345q1.322-1.1,2.635-2.206a4.246,4.246,0,0,0,.359-.335.445.445,0,0,0,.124-.346A.366.366,0,0,0,87,28.966a.321.321,0,0,0-.284-.046,1.287,1.287,0,0,0-.458.293q-1.412,1.18-2.821,2.364a2.115,2.115,0,0,0-.3.305.4.4,0,0,0-.031.473.327.327,0,0,0,.431.106ZM67.771,50.493a2.034,2.034,0,0,0-.47.116q-1.594.569-3.185,1.15a2.578,2.578,0,0,0-.435.2.3.3,0,0,0-.148.388.373.373,0,0,0,.4.2,2.184,2.184,0,0,0,.411-.1q1.622-.582,3.24-1.173a2.313,2.313,0,0,0,.382-.179.327.327,0,0,0,.167-.284.3.3,0,0,0-.108-.227.359.359,0,0,0-.255-.082ZM34.393,49.462a.294.294,0,0,0,.305-.2.341.341,0,0,0-.074-.383,1.232,1.232,0,0,0-.319-.222Q33.051,48.071,31.8,47.5a2,2,0,0,0-.312-.1.33.33,0,0,0-.339.234.37.37,0,0,0,.1.383.876.876,0,0,0,.226.159Q32.8,48.8,34.132,49.4a.774.774,0,0,0,.261.059ZM50.638,19.978a.307.307,0,0,0,.292.189.335.335,0,0,0,.277-.225,5.491,5.491,0,0,1,.4-.813.436.436,0,0,0,0-.493,8,8,0,0,1-.408-.813c-.149-.293-.418-.3-.563-.016s-.276.583-.435.863a.4.4,0,0,0-.015.394c.144.3.293.61.448.914ZM38.152,57.654A.61.61,0,0,0,38,57.3a.427.427,0,0,0-.353-.123.325.325,0,0,0-.295.193,1.393,1.393,0,0,0-.057.283,12.5,12.5,0,0,0,.7,2.748.77.77,0,0,0,.156.238.417.417,0,0,0,.418.119.325.325,0,0,0,.27-.282.987.987,0,0,0-.054-.321,13.271,13.271,0,0,1-.632-2.5Zm-6.537-24.1a.372.372,0,0,0-.391.066.251.251,0,0,0-.051.34,1.351,1.351,0,0,0,.255.288q.985.821,1.978,1.633a.838.838,0,0,0,.411.212.383.383,0,0,0,.286-.077.276.276,0,0,0,.108-.241.517.517,0,0,0-.228-.346q-1.035-.852-2.071-1.7A1.321,1.321,0,0,0,31.616,33.559Zm5.322-15.74a11.174,11.174,0,0,1,2.385,1.173.9.9,0,0,0,.446.145.594.594,0,0,0,.552-.247.388.388,0,0,0-.085-.507.953.953,0,0,0-.349-.192,10.651,10.651,0,0,0-2.878-.594c-.018,0-.1.007-.177.016-.017,0-.044.016-.046.027,0,.03-.011.07.009.089a.416.416,0,0,0,.142.089ZM34.514,69.785q-.515-.73-1.039-1.455a2.774,2.774,0,0,0-.212-.259c-.067-.07-.157-.1-.132-.1-.316-.027-.5.162-.453.352a1.235,1.235,0,0,0,.156.352,16.762,16.762,0,0,0,1.1,1.544,1.337,1.337,0,0,0,.288.263.312.312,0,0,0,.376-.013.284.284,0,0,0,.1-.344,1.511,1.511,0,0,0-.19-.338Zm41.64-41.691c.479.37.956.741,1.439,1.106a1.589,1.589,0,0,0,.36.2.372.372,0,0,0,.365-.075A.279.279,0,0,0,78.388,29a.542.542,0,0,0-.128-.184A17.962,17.962,0,0,0,76.5,27.461a.547.547,0,0,0-.36-.1.348.348,0,0,0-.244.138.275.275,0,0,0-.038.255.782.782,0,0,0,.294.336ZM30.8,64.513a.8.8,0,0,0,.172.24.4.4,0,0,0,.414.113.328.328,0,0,0,.25-.36,1.479,1.479,0,0,0-.094-.332q-.285-.7-.579-1.405a1.618,1.618,0,0,0-.173-.308.391.391,0,0,0-.339-.147.366.366,0,0,0-.333.24.509.509,0,0,0,.02.339q.326.812.662,1.621Zm10.985-3.7a.323.323,0,0,0,.135-.243.287.287,0,0,0-.1-.224.394.394,0,0,0-.26-.092.91.91,0,0,0-.425.116c-.465.231-.93.463-1.392.694a1.254,1.254,0,0,0-.293.211.264.264,0,0,0-.045.358.351.351,0,0,0,.38.155,1.667,1.667,0,0,0,.416-.139c.43-.208.856-.424,1.281-.641a2.133,2.133,0,0,0,.306-.2ZM69.6,63.735a.274.274,0,0,0,.015-.364,1.023,1.023,0,0,0-.275-.227q-.726-.375-1.467-.731a1.759,1.759,0,0,0-.315-.1.462.462,0,0,0-.392.138.271.271,0,0,0,.023.363,1.371,1.371,0,0,0,.3.216q.7.36,1.41.7a1.4,1.4,0,0,0,.365.117A.38.38,0,0,0,69.6,63.735Zm-3.788-7.567a1.222,1.222,0,0,0-.218-.022h-1.6a1.261,1.261,0,0,0-.269.033.219.219,0,0,0,0,.437,1.51,1.51,0,0,0,.324.041c.238.006.477,0,.717,0h.717a2.244,2.244,0,0,0,.327-.026.287.287,0,0,0,.269-.233.274.274,0,0,0-.267-.231ZM89.9,75.906q-.5-.312-1-.614a1.089,1.089,0,0,0-.212-.1.36.36,0,0,0-.463.135.393.393,0,0,0,.11.484.923.923,0,0,0,.139.109c.367.225.735.454,1.1.672a1.625,1.625,0,0,0,.288.109.344.344,0,0,0,.332-.169.357.357,0,0,0,0-.343A.724.724,0,0,0,89.9,75.906ZM83.8,62.7c-.446-.142-.894-.274-1.264-.387a1.975,1.975,0,0,0-.2,0,.338.338,0,0,0-.308.219.3.3,0,0,0,.123.347.571.571,0,0,0,.2.11c.392.116.786.231,1.183.334a.665.665,0,0,0,.288,0,.312.312,0,0,0,.227-.2.286.286,0,0,0-.06-.286A.476.476,0,0,0,83.8,62.7ZM72.6,69.558a.365.365,0,0,0-.384.011,1.006,1.006,0,0,0-.213.172c-.217.236-.433.474-.638.718a.773.773,0,0,0-.144.269.249.249,0,0,0,.075.226.354.354,0,0,0,.252.1A.459.459,0,0,0,71.726,71a3.225,3.225,0,0,0,1.016-1.143.232.232,0,0,0-.139-.3ZM60.7,15.542a.76.76,0,0,0,.55-.236.74.74,0,0,0,.2-.558.77.77,0,0,0-1.54.024.756.756,0,0,0,.227.55.775.775,0,0,0,.559.22Zm6.621,65.79a.771.771,0,1,0,.8.726A.771.771,0,0,0,67.319,81.332ZM50.939,30.961a.771.771,0,1,0-.043-1.541.748.748,0,0,0-.749.788.768.768,0,0,0,.792.753ZM23.027,29.029q.385.4.783.779a.472.472,0,0,0,.359.123.313.313,0,0,0,.239-.175.359.359,0,0,0-.042-.39,5.107,5.107,0,0,0-.908-.9A.445.445,0,0,0,23.3,28.4a.293.293,0,0,0-.312.094.326.326,0,0,0-.064.329A.558.558,0,0,0,23.027,29.029Zm13.761,62.58a.514.514,0,1,0,.509.519A.514.514,0,0,0,36.788,91.609ZM22.514,62.832a2.287,2.287,0,0,0-.942.278.414.414,0,0,0-.2.431.372.372,0,0,0,.388.312,3.369,3.369,0,0,0,.943-.278.418.418,0,0,0,.2-.431.349.349,0,0,0-.387-.312ZM63.84,60.257a.328.328,0,0,0-.291.165.236.236,0,0,0,.031.3,2.2,2.2,0,0,0,1.083.559.369.369,0,0,0,.272-.066.272.272,0,0,0,.115-.224.5.5,0,0,0-.032-.131,2.009,2.009,0,0,0-1.178-.6Zm15.836,28.27a.252.252,0,0,0-.234.266.258.258,0,0,0,.257.247.262.262,0,0,0,.256-.248.253.253,0,0,0-.279-.264ZM62.75,35.073a.257.257,0,0,0-.012-.514.274.274,0,0,0-.257.263.271.271,0,0,0,.269.251ZM32.906,92.638a.252.252,0,0,0-.234.275.255.255,0,0,0,.277.237.264.264,0,0,0,.236-.28.252.252,0,0,0-.278-.232ZM71.492,21.709a.256.256,0,0,0,.136-.462.263.263,0,0,0-.2-.049.273.273,0,0,0-.212.253.259.259,0,0,0,.082.187.266.266,0,0,0,.192.071ZM39.618,80.3a.256.256,0,1,0,.247.287.255.255,0,0,0-.247-.287Zm2.521-50.374a.236.236,0,0,0,.181-.036.244.244,0,0,0,.1-.155.234.234,0,0,0-.014-.186.23.23,0,0,0-.145-.116.251.251,0,0,0-.263.054.258.258,0,0,0,.138.439ZM67.881,94.179a.271.271,0,0,0-.206.1.261.261,0,0,0-.047.222.255.255,0,1,0,.252-.326Zm3.853-16.717a.24.24,0,0,0,.218.267.261.261,0,0,0,.25-.111.255.255,0,0,0,.01-.271.261.261,0,0,0-.241-.129.243.243,0,0,0-.17.073.238.238,0,0,0-.067.171ZM22.616,85.446a.239.239,0,0,0-.224.285c.01.165.135.219.285.225a.249.249,0,0,0,.226-.286.241.241,0,0,0-.286-.224Zm26.654-27.9a.971.971,0,0,0-.145-.26.3.3,0,0,0-.275-.1.328.328,0,0,0-.235.271.876.876,0,0,0,.038.428,5.161,5.161,0,0,0,.769,1.566,1.092,1.092,0,0,0,.248.242.277.277,0,0,0,.361-.016.378.378,0,0,0,.1-.4A1.158,1.158,0,0,0,50,59a5.794,5.794,0,0,1-.727-1.457Zm0-3.514a.333.333,0,0,0,.395-.008,6.021,6.021,0,0,0,.977-1.075.265.265,0,0,0,0-.2.32.32,0,0,0-.305-.193.617.617,0,0,0-.194.048,2.411,2.411,0,0,0-1,1.105.258.258,0,0,0,.131.328Zm-.492,1.592c.092.036.19-.02.238-.137a1.1,1.1,0,0,0,.089-.642.264.264,0,0,0-.156-.227.174.174,0,0,0-.214.095,1.064,1.064,0,0,0-.13.518.741.741,0,0,0,.006.113.309.309,0,0,0,.167.281Zm9.316,1.047a.308.308,0,0,0-.346.158,1.405,1.405,0,0,0-.132.316,4.339,4.339,0,0,1-1.036,1.833,1.539,1.539,0,0,0-.232.325.288.288,0,0,0,.038.322.353.353,0,0,0,.367.108.946.946,0,0,0,.415-.3,4.726,4.726,0,0,0,1.142-2.032c.031-.109.045-.223.061-.306a1.387,1.387,0,0,0-.017-.144.332.332,0,0,0-.261-.276Zm-.75-2.982c-.007-.4-.469-1.109-.735-1.137a.254.254,0,0,0-.239.158.536.536,0,0,0-.036.373,1.926,1.926,0,0,0,.63.972C57.125,54.182,57.341,53.954,57.341,53.686Zm.179,1.5a1.057,1.057,0,0,0,.187.329.356.356,0,0,0,.367.1.351.351,0,0,0,.27-.262.933.933,0,0,0,.024-.164,1.877,1.877,0,0,0-.344-.964.4.4,0,0,0-.425-.118.342.342,0,0,0-.257.336A1.85,1.85,0,0,0,57.52,55.183ZM53.2,37.838a.352.352,0,0,0-.336-.195.669.669,0,0,0-.658.746.311.311,0,0,0,.519.2c.135-.112.254-.247.38-.371a.309.309,0,0,0,.094-.38Zm33.691,64.156c-.542-.807-1.081-1.618-1.628-2.422-.2-.3-.325-.32-.633-.134-.267.16-.528.331-.789.5-.368.24-.394.32-.151.689.4.6.8,1.2,1.2,1.8a1.575,1.575,0,0,1,.171.3c.057.142-.015.226-.173.2a1.794,1.794,0,0,1-.312-.085l-3.068-1a1.189,1.189,0,0,0-.368-.087.587.587,0,0,0-.305.095q-.249.15-.491.31c-.475.308-.491.375-.177.837q1.227,1.837,2.463,3.672c.263.392.524.786.8,1.172.169.239.292.264.544.111q.477-.286.936-.6c.238-.159.262-.288.109-.535-.123-.2-.266-.4-.4-.6-.306-.457-.614-.914-.912-1.373-.058-.086-.122-.189-.036-.288s.183-.041.278-.017c.057.014.113.032.168.05l1.617.512c.506.157,1.011.311,1.515.471a.647.647,0,0,0,.586-.08c.162-.109.33-.208.491-.314.447-.288.468-.358.177-.8-.532-.8-1.073-1.6-1.609-2.4Zm-40.015,7.425c-.9-.174-1.826-.237-2.743-.328-.321-.032-.411.054-.461.367-.009.049-.012.1-.017.145q-.35,2.914-.692,5.83c-.049.418.022.509.441.562.437.055.877.106,1.314.151.468.048.932.122,1.365.132a3.715,3.715,0,0,0,1.8-.411,3.233,3.233,0,0,0,1.629-2.222,3.653,3.653,0,0,0-.186-2.388A3.19,3.19,0,0,0,46.876,109.419Zm.514,4.326a1.52,1.52,0,0,1-1.547.847q-.224-.016-.446-.053c-.236-.046-.314-.123-.3-.368.012-.273.047-.545.079-.816.074-.641.153-1.283.23-1.924a1.351,1.351,0,0,1,.031-.2c.05-.2.125-.269.333-.272a1.647,1.647,0,0,1,1.88,1.752,2.475,2.475,0,0,1-.257,1.038Zm31.354-6.79c-.122-.285-.252-.332-.539-.22-.209.081-.414.177-.619.269-.431.191-.863.377-1.287.579-.237.112-.279.233-.185.48a6.159,6.159,0,0,0,.245.568c.122.247.245.29.5.2a2.734,2.734,0,0,1,.332-.123c.181-.04.256.06.19.239a.673.673,0,0,1-.04.079,1.6,1.6,0,0,1-2.455.432,2.234,2.234,0,0,1-.734-1.593,1.537,1.537,0,0,1,.517-1.254,1.514,1.514,0,0,1,1.3-.348,2.573,2.573,0,0,1,.477.145c.258.1.359.074.489-.154.179-.3.351-.616.508-.932.115-.229.068-.361-.152-.493a2.424,2.424,0,0,0-.651-.266,3.3,3.3,0,0,0-2.072.158,3.627,3.627,0,0,0-2.325,3.493,3.718,3.718,0,0,0,.812,2.1,3.152,3.152,0,0,0,2.823,1.341,2.979,2.979,0,0,0,2.09-.945c.074-.079.135-.17.208-.247.136-.144.192-.161.353-.043a.42.42,0,0,0,.466.039c.223-.1.45-.193.671-.3.3-.143.349-.258.219-.563q-.555-1.324-1.144-2.634ZM32.5,105.765a1.263,1.263,0,0,0-.157-.082l-3.551-1.635a.889.889,0,0,0-.306-.1.283.283,0,0,0-.274.143,2.375,2.375,0,0,0-.137.261q-1,2.143-1.992,4.288c-.183.394-.371.787-.541,1.183-.123.276-.074.383.19.527.061.033.123.062.187.09l1.852.862c.575.265,1.147.531,1.729.789.33.146.45.1.61-.228.109-.22.211-.444.311-.67.154-.344.113-.461-.236-.627-.418-.2-.842-.389-1.262-.584-.261-.123-.521-.238-.776-.37-.188-.1-.236-.2-.185-.384a1.8,1.8,0,0,1,.236-.507.28.28,0,0,1,.362-.113c.074.027.147.059.218.093.484.221.966.449,1.454.665.288.123.408.081.55-.2.1-.193.185-.392.274-.59.169-.37.136-.475-.229-.649-.454-.216-.913-.425-1.368-.638a1.648,1.648,0,0,1-.237-.123.291.291,0,0,1-.123-.41c.084-.2.123-.457.41-.483a.412.412,0,0,1,.172.039,2.461,2.461,0,0,1,.272.123c.581.268,1.163.54,1.748.8.259.123.384.091.5-.123q.24-.458.438-.935a.3.3,0,0,0-.139-.415Zm24.441,9.2h-.323c-.586.019-1.172.045-1.758.056s-.612-.04-.612-.629c0-.383.067-.452.44-.466.547-.021,1.095-.039,1.641-.063.32-.014.419-.124.413-.444,0-.238-.02-.477-.031-.714-.015-.324-.122-.419-.442-.409-.518.016-1.036.025-1.554.046-.478.018-.565-.071-.544-.6a.9.9,0,0,1,.019-.148.265.265,0,0,1,.217-.215,1.8,1.8,0,0,1,.263-.02c.654-.023,1.309-.04,1.963-.065.357-.015.469-.146.455-.506-.01-.239-.016-.478-.025-.715-.013-.373-.115-.479-.482-.477-.264,0-.528.024-.791.032l-3.049.088a1.115,1.115,0,0,0-.2.02.352.352,0,0,0-.334.382v.209q.073,2.222.148,4.441c.017.537.034,1.074.059,1.616.015.3.109.389.394.406a1.958,1.958,0,0,0,.206,0l1.789-.07c.611-.032,1.211-.032,1.816-.05a3.9,3.9,0,0,0,.467-.043.269.269,0,0,0,.252-.283A6.184,6.184,0,0,0,57.3,115.3c-.029-.256-.109-.322-.364-.338Zm7.349-2.972a4.866,4.866,0,0,0-.867-.211c-.3-.044-.59-.082-.883-.124a1.475,1.475,0,0,1-.471-.125.326.326,0,0,1-.013-.6.978.978,0,0,1,.473-.111,4.063,4.063,0,0,1,1.273.2c.282.08.387.025.479-.26s.2-.6.281-.91.023-.438-.284-.531a5.26,5.26,0,0,0-2.019-.213,2.876,2.876,0,0,0-.967.274A2.305,2.305,0,0,0,60,112.153a1.617,1.617,0,0,0,.943,1.131,3.361,3.361,0,0,0,.769.238c.379.064.759.117,1.137.174a1.3,1.3,0,0,1,.5.14.3.3,0,0,1-.01.558,1.2,1.2,0,0,1-.529.124,3.933,3.933,0,0,1-1.3-.177c-.13-.036-.257-.083-.39-.108-.194-.038-.308.012-.366.2-.12.4-.24.8-.34,1.2a.284.284,0,0,0,.2.373,1.565,1.565,0,0,0,.24.081,5.53,5.53,0,0,0,1.535.185,4.022,4.022,0,0,0,2.037-.429,2.013,2.013,0,0,0,1.13-2.174,1.8,1.8,0,0,0-1.259-1.677ZM24.516,101.4c-.735-.507-1.489-.986-2.241-1.466-.262-.169-.384-.134-.567.123-.029.041-.055.082-.082.123q-1.561,2.433-3.125,4.866a3.2,3.2,0,0,0-.165.279.284.284,0,0,0,.083.418,9.019,9.019,0,0,0,1.109.721c.159.089.263.051.388-.093a2.251,2.251,0,0,0,.152-.217c.2-.315.4-.631.613-.943s.3-.328.626-.132c.26.159.512.332.778.477a2.056,2.056,0,0,0,1.308.226,2.455,2.455,0,0,0,1.125-4.383Zm-1.383,2.53a.5.5,0,0,1-.481,0,2.709,2.709,0,0,1-.567-.363.279.279,0,0,1-.082-.415,5.073,5.073,0,0,1,.475-.74.268.268,0,0,1,.385-.093,3,3,0,0,1,.561.37.594.594,0,0,1,.2.473,1.03,1.03,0,0,1-.5.767Zm47.494,9.315-1.039-3.365c-.2-.632-.389-1.265-.587-1.9-.148-.473-.22-.51-.7-.375-.233.064-.465.132-.7.2-.529.15-.567.208-.413.708q.663,2.152,1.329,4.3c.122.383.233.767.365,1.147.073.216.18.29.387.25a9.5,9.5,0,0,0,1.256-.348c.132-.046.195-.149.181-.338-.019-.064-.044-.172-.076-.279ZM36.539,106.88c-.269-.1-.545-.18-.819-.27-.518-.171-.572-.146-.742.37q-.737,2.239-1.474,4.482c-.1.293-.194.583-.281.878s-.038.391.242.492.58.2.869.293c.422.14.5.1.645-.338.24-.735.483-1.468.723-2.2l.982-3a1.5,1.5,0,0,0,.1-.394c0-.163-.058-.245-.244-.312Zm3.151,6.555a3.483,3.483,0,0,0-.819-.227.208.208,0,0,0-.195.032.287.287,0,0,0-.107.193c-.1.4-.172.8-.241,1.12-.016.3.029.405.191.471a4.09,4.09,0,0,0,.794.221.245.245,0,0,0,.291-.2,10.637,10.637,0,0,0,.256-1.263.3.3,0,0,0-.17-.343Z" transform="translate(-3.888 -6.804)" fill="#fff"/></svg>